<ttFont>
<head>
    <!-- Most of this table will be recalculated by the compiler -->
    <tableVersion value="1.0"/>
    <fontRevision value="1.00700378418"/>
    <checkSumAdjustment value="0x621b99f5"/>
    <magicNumber value="0x5f0f3cf5"/>
    <flags value="00000000 00011001"/>
    <unitsPerEm value="1000"/>
    <created value="Sun Mar 25 09:11:00 2012"/>
    <modified value="Sun Mar 25 06:51:14 2012"/>
    <xMin value="-130"/>
    <yMin value="-237"/>
    <xMax value="1132"/>
    <yMax value="1008"/>
    <macStyle value="00000000 00000000"/>
    <lowestRecPPEM value="9"/>
    <fontDirectionHint value="2"/>
    <indexToLocFormat value="1"/>
    <glyphDataFormat value="0"/>
  </head>
    <TTGlyph name=".notdef" xMin="30" yMin="9" xMax="378" yMax="463">
      <contour>
        <pt x="136" y="236" on="1"/>
        <pt x="40" y="377" on="1"/>
        <pt x="34" y="385" on="0"/>
        <pt x="30" y="401" on="0"/>
        <pt x="30" y="409" on="1"/>
        <pt x="30" y="432" on="0"/>
        <pt x="69" y="463" on="0"/>
        <pt x="92" y="463" on="1"/>
        <pt x="120" y="463" on="0"/>
        <pt x="136" y="440" on="1"/>
        <pt x="204" y="325" on="1"/>
        <pt x="272" y="440" on="1"/>
        <pt x="288" y="463" on="0"/>
        <pt x="316" y="463" on="1"/>
        <pt x="339" y="463" on="0"/>
        <pt x="378" y="432" on="0"/>
        <pt x="378" y="409" on="1"/>
        <pt x="378" y="401" on="0"/>
        <pt x="374" y="385" on="0"/>
        <pt x="368" y="377" on="1"/>
        <pt x="272" y="236" on="1"/>
        <pt x="368" y="95" on="1"/>
        <pt x="374" y="87" on="0"/>
        <pt x="378" y="71" on="0"/>
        <pt x="378" y="63" on="1"/>
        <pt x="378" y="40" on="0"/>
        <pt x="339" y="9" on="0"/>
        <pt x="316" y="9" on="1"/>
        <pt x="288" y="9" on="0"/>
        <pt x="272" y="32" on="1"/>
        <pt x="204" y="147" on="1"/>
        <pt x="136" y="32" on="1"/>
        <pt x="120" y="9" on="0"/>
        <pt x="92" y="9" on="1"/>
        <pt x="69" y="9" on="0"/>
        <pt x="30" y="40" on="0"/>
        <pt x="30" y="63" on="1"/>
        <pt x="30" y="71" on="0"/>
        <pt x="34" y="87" on="0"/>
        <pt x="40" y="95" on="1"/>
      </contour>
    </TTGlyph>
    <TTGlyph name="A" xMin="4" yMin="0" xMax="585" yMax="737">
      <contour>
        <pt x="104" y="0" on="1"/>
        <pt x="88" y="0" on="0"/>
        <pt x="53" y="10" on="0"/>
        <pt x="23" y="27" on="0"/>
        <pt x="4" y="50" on="0"/>
        <pt x="4" y="64" on="1"/>
        <pt x="4" y="67" on="0"/>
        <pt x="6" y="75" on="1"/>
        <pt x="192" y="685" on="1"/>
        <pt x="200" y="711" on="0"/>
        <pt x="259" y="737" on="0"/>
        <pt x="294" y="737" on="1"/>
        <pt x="329" y="737" on="0"/>
        <pt x="388" y="711" on="0"/>
        <pt x="396" y="685" on="1"/>
        <pt x="583" y="75" on="1"/>
        <pt x="585" y="67" on="0"/>
        <pt x="585" y="64" on="1"/>
        <pt x="585" y="50" on="0"/>
        <pt x="566" y="27" on="0"/>
        <pt x="536" y="10" on="0"/>
        <pt x="501" y="0" on="0"/>
        <pt x="485" y="0" on="1"/>
        <pt x="466" y="0" on="0"/>
        <pt x="439" y="13" on="0"/>
        <pt x="434" y="29" on="1"/>
        <pt x="400" y="154" on="1"/>
        <pt x="189" y="154" on="1"/>
        <pt x="155" y="29" on="1"/>
        <pt x="150" y="13" on="0"/>
        <pt x="123" y="0" on="0"/>
      </contour>
      <contour>
        <pt x="367" y="274" on="1"/>
        <pt x="294" y="542" on="1"/>
        <pt x="221" y="274" on="1"/>
      </contour>
    </TTGlyph>
    <TTGlyph name="AE" xMin="51" yMin="0" xMax="803" yMax="731">
      <contour>
        <pt x="530" y="426" on="1"/>
        <pt x="638" y="426" on="1"/>
        <pt x="661" y="426" on="0"/>
        <pt x="685" y="389" on="0"/>
        <pt x="685" y="365" on="1"/>
        <pt x="685" y="345" on="0"/>
        <pt x="663" y="306" on="0"/>
        <pt x="638" y="306" on="1"/>
        <pt x="530" y="306" on="1"/>
        <pt x="530" y="136" on="1"/>
        <pt x="756" y="136" on="1"/>
        <pt x="779" y="136" on="0"/>
        <pt x="803" y="95" on="0"/>
        <pt x="803" y="67" on="1"/>
        <pt x="803" y="43" on="0"/>
        <pt x="781" y="0" on="0"/>
        <pt x="756" y="0" on="1"/>
        <pt x="442" y="0" on="1"/>
        <pt x="416" y="0" on="0"/>
        <pt x="374" y="24" on="0"/>
        <pt x="374" y="48" on="1"/>
        <pt x="374" y="306" on="1"/>
        <pt x="197" y="306" on="1"/>
        <pt x="197" y="53" on="1"/>
        <pt x="197" y="42" on="0"/>
        <pt x="192" y="22" on="0"/>
        <pt x="176" y="8" on="0"/>
        <pt x="145" y="0" on="0"/>
        <pt x="119" y="0" on="1"/>
        <pt x="82" y="0" on="0"/>
        <pt x="51" y="30" on="0"/>
        <pt x="51" y="53" on="1"/>
        <pt x="51" y="495" on="1"/>
        <pt x="51" y="559" on="0"/>
        <pt x="88" y="649" on="0"/>
        <pt x="151" y="706" on="0"/>
        <pt x="237" y="731" on="0"/>
        <pt x="287" y="731" on="1"/>
        <pt x="756" y="731" on="1"/>
        <pt x="781" y="731" on="0"/>
        <pt x="803" y="688" on="0"/>
        <pt x="803" y="664" on="1"/>
        <pt x="803" y="636" on="0"/>
        <pt x="779" y="595" on="0"/>
        <pt x="756" y="595" on="1"/>
        <pt x="530" y="595" on="1"/>
      </contour>
      <contour>
        <pt x="197" y="426" on="1"/>
        <pt x="374" y="426" on="1"/>
        <pt x="374" y="595" on="1"/>
        <pt x="287" y="595" on="1"/>
        <pt x="245" y="595" on="0"/>
        <pt x="197" y="546" on="0"/>
        <pt x="197" y="495" on="1"/>
      </contour>
    </TTGlyph>
    <TTGlyph name="AEacute" xMin="51" yMin="0" xMax="803" yMax="955">
      <contour>
        <pt x="530" y="426" on="1"/>
        <pt x="638" y="426" on="1"/>
        <pt x="661" y="426" on="0"/>
        <pt x="685" y="389" on="0"/>
        <pt x="685" y="365" on="1"/>
        <pt x="685" y="345" on="0"/>
        <pt x="663" y="306" on="0"/>
        <pt x="638" y="306" on="1"/>
        <pt x="530" y="306" on="1"/>
        <pt x="530" y="136" on="1"/>
        <pt x="756" y="136" on="1"/>
        <pt x="779" y="136" on="0"/>
        <pt x="803" y="95" on="0"/>
        <pt x="803" y="67" on="1"/>
        <pt x="803" y="43" on="0"/>
        <pt x="781" y="0" on="0"/>
        <pt x="756" y="0" on="1"/>
        <pt x="442" y="0" on="1"/>
        <pt x="416" y="0" on="0"/>
        <pt x="374" y="24" on="0"/>
        <pt x="374" y="48" on="1"/>
        <pt x="374" y="306" on="1"/>
        <pt x="197" y="306" on="1"/>
        <pt x="197" y="53" on="1"/>
        <pt x="197" y="42" on="0"/>
        <pt x="192" y="22" on="0"/>
        <pt x="176" y="8" on="0"/>
        <pt x="145" y="0" on="0"/>
        <pt x="119" y="0" on="1"/>
        <pt x="82" y="0" on="0"/>
        <pt x="51" y="30" on="0"/>
        <pt x="51" y="53" on="1"/>
        <pt x="51" y="495" on="1"/>
        <pt x="51" y="559" on="0"/>
        <pt x="88" y="649" on="0"/>
        <pt x="151" y="706" on="0"/>
        <pt x="237" y="731" on="0"/>
        <pt x="287" y="731" on="1"/>
        <pt x="756" y="731" on="1"/>
        <pt x="781" y="731" on="0"/>
        <pt x="803" y="688" on="0"/>
        <pt x="803" y="664" on="1"/>
        <pt x="803" y="636" on="0"/>
        <pt x="779" y="595" on="0"/>
        <pt x="756" y="595" on="1"/>
        <pt x="530" y="595" on="1"/>
      </contour>
      <contour>
        <pt x="197" y="426" on="1"/>
        <pt x="374" y="426" on="1"/>
        <pt x="374" y="595" on="1"/>
        <pt x="287" y="595" on="1"/>
        <pt x="245" y="595" on="0"/>
        <pt x="197" y="546" on="0"/>
        <pt x="197" y="495" on="1"/>
      </contour>
      <contour>
        <pt x="449" y="798" on="1"/>
        <pt x="439" y="794" on="0"/>
        <pt x="434" y="794" on="1"/>
        <pt x="414" y="794" on="0"/>
        <pt x="388" y="832" on="0"/>
        <pt x="388" y="852" on="1"/>
        <pt x="388" y="877" on="0"/>
        <pt x="408" y="887" on="1"/>
        <pt x="548" y="952" on="1"/>
        <pt x="555" y="955" on="0"/>
        <pt x="562" y="955" on="1"/>
        <pt x="572" y="955" on="0"/>
        <pt x="589" y="944" on="0"/>
        <pt x="602" y="927" on="0"/>
        <pt x="609" y="907" on="0"/>
        <pt x="609" y="897" on="1"/>
        <pt x="609" y="886" on="0"/>
        <pt x="600" y="868" on="0"/>
        <pt x="589" y="863" on="1"/>
      </contour>
    </TTGlyph>
    <TTGlyph name="Aacute" xMin="4" yMin="0" xMax="585" yMax="959">
      <contour>
        <pt x="104" y="0" on="1"/>
        <pt x="88" y="0" on="0"/>
        <pt x="53" y="10" on="0"/>
        <pt x="23" y="27" on="0"/>
        <pt x="4" y="50" on="0"/>
        <pt x="4" y="64" on="1"/>
        <pt x="4" y="67" on="0"/>
        <pt x="6" y="75" on="1"/>
        <pt x="192" y="685" on="1"/>
        <pt x="200" y="711" on="0"/>
        <pt x="259" y="737" on="0"/>
        <pt x="294" y="737" on="1"/>
        <pt x="329" y="737" on="0"/>
        <pt x="388" y="711" on="0"/>
        <pt x="396" y="685" on="1"/>
        <pt x="583" y="75" on="1"/>
        <pt x="585" y="67" on="0"/>
        <pt x="585" y="64" on="1"/>
        <pt x="585" y="50" on="0"/>
        <pt x="566" y="27" on="0"/>
        <pt x="536" y="10" on="0"/>
        <pt x="501" y="0" on="0"/>
        <pt x="485" y="0" on="1"/>
        <pt x="466" y="0" on="0"/>
        <pt x="439" y="13" on="0"/>
        <pt x="434" y="29" on="1"/>
        <pt x="400" y="154" on="1"/>
        <pt x="189" y="154" on="1"/>
        <pt x="155" y="29" on="1"/>
        <pt x="150" y="13" on="0"/>
        <pt x="123" y="0" on="0"/>
      </contour>
      <contour>
        <pt x="367" y="274" on="1"/>
        <pt x="294" y="542" on="1"/>
        <pt x="221" y="274" on="1"/>
      </contour>
      <contour>
        <pt x="282" y="802" on="1"/>
        <pt x="272" y="798" on="0"/>
        <pt x="267" y="798" on="1"/>
        <pt x="247" y="798" on="0"/>
        <pt x="221" y="836" on="0"/>
        <pt x="221" y="856" on="1"/>
        <pt x="221" y="881" on="0"/>
        <pt x="241" y="891" on="1"/>
        <pt x="381" y="956" on="1"/>
        <pt x="388" y="959" on="0"/>
        <pt x="395" y="959" on="1"/>
        <pt x="405" y="959" on="0"/>
        <pt x="422" y="948" on="0"/>
        <pt x="435" y="931" on="0"/>
        <pt x="442" y="911" on="0"/>
        <pt x="442" y="901" on="1"/>
        <pt x="442" y="890" on="0"/>
        <pt x="433" y="872" on="0"/>
        <pt x="422" y="867" on="1"/>
      </contour>
    </TTGlyph>
    <TTGlyph name="Abreve" xMin="4" yMin="0" xMax="585" yMax="963">
      <contour>
        <pt x="104" y="0" on="1"/>
        <pt x="88" y="0" on="0"/>
        <pt x="53" y="10" on="0"/>
        <pt x="23" y="27" on="0"/>
        <pt x="4" y="50" on="0"/>
        <pt x="4" y="64" on="1"/>
        <pt x="4" y="67" on="0"/>
        <pt x="6" y="75" on="1"/>
        <pt x="192" y="685" on="1"/>
        <pt x="200" y="711" on="0"/>
        <pt x="259" y="737" on="0"/>
        <pt x="294" y="737" on="1"/>
        <pt x="329" y="737" on="0"/>
        <pt x="388" y="711" on="0"/>
        <pt x="396" y="685" on="1"/>
        <pt x="583" y="75" on="1"/>
        <pt x="585" y="67" on="0"/>
        <pt x="585" y="64" on="1"/>
        <pt x="585" y="50" on="0"/>
        <pt x="566" y="27" on="0"/>
        <pt x="536" y="10" on="0"/>
        <pt x="501" y="0" on="0"/>
        <pt x="485" y="0" on="1"/>
        <pt x="466" y="0" on="0"/>
        <pt x="439" y="13" on="0"/>
        <pt x="434" y="29" on="1"/>
        <pt x="400" y="154" on="1"/>
        <pt x="189" y="154" on="1"/>
        <pt x="155" y="29" on="1"/>
        <pt x="150" y="13" on="0"/>
        <pt x="123" y="0" on="0"/>
      </contour>
      <contour>
        <pt x="367" y="274" on="1"/>
        <pt x="294" y="542" on="1"/>
        <pt x="221" y="274" on="1"/>
      </contour>
      <contour>
        <pt x="434" y="963" on="1"/>
        <pt x="434" y="935" on="0"/>
        <pt x="411" y="885" on="0"/>
        <pt x="372" y="847" on="0"/>
        <pt x="322" y="824" on="0"/>
        <pt x="295" y="824" on="1"/>
        <pt x="268" y="824" on="0"/>
        <pt x="217" y="847" on="0"/>
        <pt x="178" y="885" on="0"/>
        <pt x="155" y="935" on="0"/>
        <pt x="155" y="963" on="1"/>
        <pt x="235" y="963" on="1"/>
        <pt x="235" y="931" on="0"/>
        <pt x="273" y="890" on="0"/>
        <pt x="295" y="890" on="1"/>
        <pt x="316" y="890" on="0"/>
        <pt x="354" y="931" on="0"/>
        <pt x="354" y="963" on="1"/>
      </contour>
    </TTGlyph>
    <TTGlyph name="Acircumflex" xMin="4" yMin="0" xMax="585" yMax="959">
      <contour>
        <pt x="104" y="0" on="1"/>
        <pt x="88" y="0" on="0"/>
        <pt x="53" y="10" on="0"/>
        <pt x="23" y="27" on="0"/>
        <pt x="4" y="50" on="0"/>
        <pt x="4" y="64" on="1"/>
        <pt x="4" y="67" on="0"/>
        <pt x="6" y="75" on="1"/>
        <pt x="192" y="685" on="1"/>
        <pt x="200" y="711" on="0"/>
        <pt x="259" y="737" on="0"/>
        <pt x="294" y="737" on="1"/>
        <pt x="329" y="737" on="0"/>
        <pt x="388" y="711" on="0"/>
        <pt x="396" y="685" on="1"/>
        <pt x="583" y="75" on="1"/>
        <pt x="585" y="67" on="0"/>
        <pt x="585" y="64" on="1"/>
        <pt x="585" y="50" on="0"/>
        <pt x="566" y="27" on="0"/>
        <pt x="536" y="10" on="0"/>
        <pt x="501" y="0" on="0"/>
        <pt x="485" y="0" on="1"/>
        <pt x="466" y="0" on="0"/>
        <pt x="439" y="13" on="0"/>
        <pt x="434" y="29" on="1"/>
        <pt x="400" y="154" on="1"/>
        <pt x="189" y="154" on="1"/>
        <pt x="155" y="29" on="1"/>
        <pt x="150" y="13" on="0"/>
        <pt x="123" y="0" on="0"/>
      </contour>
      <contour>
        <pt x="367" y="274" on="1"/>
        <pt x="294" y="542" on="1"/>
        <pt x="221" y="274" on="1"/>
      </contour>
      <contour>
        <pt x="190" y="811" on="1"/>
        <pt x="184" y="808" on="0"/>
        <pt x="179" y="808" on="1"/>
        <pt x="165" y="808" on="0"/>
        <pt x="148" y="837" on="0"/>
        <pt x="148" y="854" on="1"/>
        <pt x="148" y="867" on="0"/>
        <pt x="159" y="890" on="0"/>
        <pt x="173" y="898" on="1"/>
        <pt x="277" y="954" on="1"/>
        <pt x="287" y="959" on="0"/>
        <pt x="294" y="959" on="1"/>
        <pt x="301" y="959" on="0"/>
        <pt x="311" y="954" on="1"/>
        <pt x="415" y="898" on="1"/>
        <pt x="429" y="890" on="0"/>
        <pt x="440" y="867" on="0"/>
        <pt x="440" y="854" on="1"/>
        <pt x="440" y="837" on="0"/>
        <pt x="423" y="808" on="0"/>
        <pt x="409" y="808" on="1"/>
        <pt x="404" y="808" on="0"/>
        <pt x="398" y="811" on="1"/>
        <pt x="294" y="867" on="1"/>
      </contour>
    </TTGlyph>
    <TTGlyph name="Adieresis" xMin="4" yMin="0" xMax="585" yMax="927">
      <contour>
        <pt x="104" y="0" on="1"/>
        <pt x="88" y="0" on="0"/>
        <pt x="53" y="10" on="0"/>
        <pt x="23" y="27" on="0"/>
        <pt x="4" y="50" on="0"/>
        <pt x="4" y="64" on="1"/>
        <pt x="4" y="67" on="0"/>
        <pt x="6" y="75" on="1"/>
        <pt x="192" y="685" on="1"/>
        <pt x="200" y="711" on="0"/>
        <pt x="259" y="737" on="0"/>
        <pt x="294" y="737" on="1"/>
        <pt x="329" y="737" on="0"/>
        <pt x="388" y="711" on="0"/>
        <pt x="396" y="685" on="1"/>
        <pt x="583" y="75" on="1"/>
        <pt x="585" y="67" on="0"/>
        <pt x="585" y="64" on="1"/>
        <pt x="585" y="50" on="0"/>
        <pt x="566" y="27" on="0"/>
        <pt x="536" y="10" on="0"/>
        <pt x="501" y="0" on="0"/>
        <pt x="485" y="0" on="1"/>
        <pt x="466" y="0" on="0"/>
        <pt x="439" y="13" on="0"/>
        <pt x="434" y="29" on="1"/>
        <pt x="400" y="154" on="1"/>
        <pt x="189" y="154" on="1"/>
        <pt x="155" y="29" on="1"/>
        <pt x="150" y="13" on="0"/>
        <pt x="123" y="0" on="0"/>
      </contour>
      <contour>
        <pt x="367" y="274" on="1"/>
        <pt x="294" y="542" on="1"/>
        <pt x="221" y="274" on="1"/>
      </contour>
      <contour>
        <pt x="216" y="927" on="1"/>
        <pt x="239" y="927" on="0"/>
        <pt x="272" y="892" on="0"/>
        <pt x="272" y="869" on="1"/>
        <pt x="272" y="846" on="0"/>
        <pt x="239" y="810" on="0"/>
        <pt x="216" y="810" on="1"/>
        <pt x="193" y="810" on="0"/>
        <pt x="159" y="846" on="0"/>
        <pt x="159" y="869" on="1"/>
        <pt x="159" y="892" on="0"/>
        <pt x="193" y="927" on="0"/>
      </contour>
      <contour>
        <pt x="376" y="927" on="1"/>
        <pt x="399" y="927" on="0"/>
        <pt x="432" y="892" on="0"/>
        <pt x="432" y="869" on="1"/>
        <pt x="432" y="846" on="0"/>
        <pt x="399" y="810" on="0"/>
        <pt x="376" y="810" on="1"/>
        <pt x="353" y="810" on="0"/>
        <pt x="319" y="846" on="0"/>
        <pt x="319" y="869" on="1"/>
        <pt x="319" y="892" on="0"/>
        <pt x="353" y="927" on="0"/>
      </contour>
    </TTGlyph>
    <TTGlyph name="Agrave" xMin="4" yMin="0" xMax="585" yMax="959">
      <contour>
        <pt x="104" y="0" on="1"/>
        <pt x="88" y="0" on="0"/>
        <pt x="53" y="10" on="0"/>
        <pt x="23" y="27" on="0"/>
        <pt x="4" y="50" on="0"/>
        <pt x="4" y="64" on="1"/>
        <pt x="4" y="67" on="0"/>
        <pt x="6" y="75" on="1"/>
        <pt x="192" y="685" on="1"/>
        <pt x="200" y="711" on="0"/>
        <pt x="259" y="737" on="0"/>
        <pt x="294" y="737" on="1"/>
        <pt x="329" y="737" on="0"/>
        <pt x="388" y="711" on="0"/>
        <pt x="396" y="685" on="1"/>
        <pt x="583" y="75" on="1"/>
        <pt x="585" y="67" on="0"/>
        <pt x="585" y="64" on="1"/>
        <pt x="585" y="50" on="0"/>
        <pt x="566" y="27" on="0"/>
        <pt x="536" y="10" on="0"/>
        <pt x="501" y="0" on="0"/>
        <pt x="485" y="0" on="1"/>
        <pt x="466" y="0" on="0"/>
        <pt x="439" y="13" on="0"/>
        <pt x="434" y="29" on="1"/>
        <pt x="400" y="154" on="1"/>
        <pt x="189" y="154" on="1"/>
        <pt x="155" y="29" on="1"/>
        <pt x="150" y="13" on="0"/>
        <pt x="123" y="0" on="0"/>
      </contour>
      <contour>
        <pt x="367" y="274" on="1"/>
        <pt x="294" y="542" on="1"/>
        <pt x="221" y="274" on="1"/>
      </contour>
      <contour>
        <pt x="186" y="867" on="1"/>
        <pt x="175" y="872" on="0"/>
        <pt x="166" y="890" on="0"/>
        <pt x="166" y="901" on="1"/>
        <pt x="166" y="911" on="0"/>
        <pt x="173" y="931" on="0"/>
        <pt x="186" y="948" on="0"/>
        <pt x="203" y="959" on="0"/>
        <pt x="213" y="959" on="1"/>
        <pt x="219" y="959" on="0"/>
        <pt x="227" y="956" on="1"/>
        <pt x="367" y="891" on="1"/>
        <pt x="387" y="881" on="0"/>
        <pt x="387" y="856" on="1"/>
        <pt x="387" y="836" on="0"/>
        <pt x="361" y="798" on="0"/>
        <pt x="341" y="798" on="1"/>
        <pt x="336" y="798" on="0"/>
        <pt x="326" y="802" on="1"/>
      </contour>
    </TTGlyph>
    <TTGlyph name="Amacron" xMin="4" yMin="0" xMax="585" yMax="938">
      <contour>
        <pt x="104" y="0" on="1"/>
        <pt x="88" y="0" on="0"/>
        <pt x="53" y="10" on="0"/>
        <pt x="23" y="27" on="0"/>
        <pt x="4" y="50" on="0"/>
        <pt x="4" y="64" on="1"/>
        <pt x="4" y="67" on="0"/>
        <pt x="6" y="75" on="1"/>
        <pt x="192" y="685" on="1"/>
        <pt x="200" y="711" on="0"/>
        <pt x="259" y="737" on="0"/>
        <pt x="294" y="737" on="1"/>
        <pt x="329" y="737" on="0"/>
        <pt x="388" y="711" on="0"/>
        <pt x="396" y="685" on="1"/>
        <pt x="583" y="75" on="1"/>
        <pt x="585" y="67" on="0"/>
        <pt x="585" y="64" on="1"/>
        <pt x="585" y="50" on="0"/>
        <pt x="566" y="27" on="0"/>
        <pt x="536" y="10" on="0"/>
        <pt x="501" y="0" on="0"/>
        <pt x="485" y="0" on="1"/>
        <pt x="466" y="0" on="0"/>
        <pt x="439" y="13" on="0"/>
        <pt x="434" y="29" on="1"/>
        <pt x="400" y="154" on="1"/>
        <pt x="189" y="154" on="1"/>
        <pt x="155" y="29" on="1"/>
        <pt x="150" y="13" on="0"/>
        <pt x="123" y="0" on="0"/>
      </contour>
      <contour>
        <pt x="367" y="274" on="1"/>
        <pt x="294" y="542" on="1"/>
        <pt x="221" y="274" on="1"/>
      </contour>
      <contour>
        <pt x="147" y="888" on="1"/>
        <pt x="147" y="909" on="0"/>
        <pt x="173" y="938" on="0"/>
        <pt x="194" y="938" on="1"/>
        <pt x="394" y="938" on="1"/>
        <pt x="412" y="938" on="0"/>
        <pt x="442" y="909" on="0"/>
        <pt x="442" y="888" on="1"/>
        <pt x="442" y="866" on="0"/>
        <pt x="412" y="839" on="0"/>
        <pt x="394" y="839" on="1"/>
        <pt x="194" y="839" on="1"/>
        <pt x="173" y="839" on="0"/>
        <pt x="147" y="866" on="0"/>
      </contour>
    </TTGlyph>
    <TTGlyph name="Aogonek" xMin="4" yMin="-218" xMax="585" yMax="737">
      <contour>
        <pt x="509" y="-155" on="1"/>
        <pt x="523" y="-155" on="0"/>
        <pt x="534" y="-178" on="0"/>
        <pt x="534" y="-189" on="1"/>
        <pt x="534" y="-200" on="0"/>
        <pt x="523" y="-218" on="0"/>
        <pt x="503" y="-218" on="1"/>
        <pt x="437" y="-218" on="0"/>
        <pt x="378" y="-161" on="0"/>
        <pt x="378" y="-121" on="1"/>
        <pt x="378" y="-88" on="0"/>
        <pt x="415" y="-17" on="0"/>
        <pt x="448" y="9" on="1"/>
        <pt x="437" y="15" on="0"/>
        <pt x="434" y="29" on="1"/>
        <pt x="400" y="154" on="1"/>
        <pt x="189" y="154" on="1"/>
        <pt x="155" y="29" on="1"/>
        <pt x="150" y="13" on="0"/>
        <pt x="123" y="0" on="0"/>
        <pt x="104" y="0" on="1"/>
        <pt x="88" y="0" on="0"/>
        <pt x="53" y="10" on="0"/>
        <pt x="23" y="27" on="0"/>
        <pt x="4" y="50" on="0"/>
        <pt x="4" y="64" on="1"/>
        <pt x="4" y="67" on="0"/>
        <pt x="6" y="75" on="1"/>
        <pt x="192" y="685" on="1"/>
        <pt x="200" y="711" on="0"/>
        <pt x="259" y="737" on="0"/>
        <pt x="294" y="737" on="1"/>
        <pt x="329" y="737" on="0"/>
        <pt x="388" y="711" on="0"/>
        <pt x="396" y="685" on="1"/>
        <pt x="583" y="75" on="1"/>
        <pt x="585" y="67" on="0"/>
        <pt x="585" y="64" on="1"/>
        <pt x="585" y="44" on="0"/>
        <pt x="550" y="15" on="0"/>
        <pt x="527" y="7" on="1"/>
        <pt x="510" y="-2" on="0"/>
        <pt x="483" y="-29" on="0"/>
        <pt x="462" y="-60" on="0"/>
        <pt x="451" y="-92" on="0"/>
        <pt x="451" y="-107" on="1"/>
        <pt x="451" y="-128" on="0"/>
        <pt x="477" y="-155" on="0"/>
      </contour>
      <contour>
        <pt x="367" y="274" on="1"/>
        <pt x="294" y="542" on="1"/>
        <pt x="221" y="274" on="1"/>
      </contour>
    </TTGlyph>
    <TTGlyph name="Aring" xMin="4" yMin="0" xMax="585" yMax="1008">
      <contour>
        <pt x="104" y="0" on="1"/>
        <pt x="88" y="0" on="0"/>
        <pt x="53" y="10" on="0"/>
        <pt x="23" y="27" on="0"/>
        <pt x="4" y="50" on="0"/>
        <pt x="4" y="64" on="1"/>
        <pt x="4" y="67" on="0"/>
        <pt x="6" y="75" on="1"/>
        <pt x="192" y="685" on="1"/>
        <pt x="200" y="711" on="0"/>
        <pt x="259" y="737" on="0"/>
        <pt x="294" y="737" on="1"/>
        <pt x="329" y="737" on="0"/>
        <pt x="388" y="711" on="0"/>
        <pt x="396" y="685" on="1"/>
        <pt x="583" y="75" on="1"/>
        <pt x="585" y="67" on="0"/>
        <pt x="585" y="64" on="1"/>
        <pt x="585" y="50" on="0"/>
        <pt x="566" y="27" on="0"/>
        <pt x="536" y="10" on="0"/>
        <pt x="501" y="0" on="0"/>
        <pt x="485" y="0" on="1"/>
        <pt x="466" y="0" on="0"/>
        <pt x="439" y="13" on="0"/>
        <pt x="434" y="29" on="1"/>
        <pt x="400" y="154" on="1"/>
        <pt x="189" y="154" on="1"/>
        <pt x="155" y="29" on="1"/>
        <pt x="150" y="13" on="0"/>
        <pt x="123" y="0" on="0"/>
      </contour>
      <contour>
        <pt x="367" y="274" on="1"/>
        <pt x="294" y="542" on="1"/>
        <pt x="221" y="274" on="1"/>
      </contour>
      <contour>
        <pt x="293" y="1008" on="1"/>
        <pt x="313" y="1008" on="0"/>
        <pt x="350" y="991" on="0"/>
        <pt x="378" y="963" on="0"/>
        <pt x="394" y="927" on="0"/>
        <pt x="394" y="907" on="1"/>
        <pt x="394" y="887" on="0"/>
        <pt x="377" y="849" on="0"/>
        <pt x="349" y="821" on="0"/>
        <pt x="313" y="804" on="0"/>
        <pt x="293" y="804" on="1"/>
        <pt x="273" y="804" on="0"/>
        <pt x="237" y="821" on="0"/>
        <pt x="210" y="849" on="0"/>
        <pt x="194" y="887" on="0"/>
        <pt x="194" y="907" on="1"/>
        <pt x="194" y="926" on="0"/>
        <pt x="209" y="963" on="0"/>
        <pt x="236" y="991" on="0"/>
        <pt x="272" y="1008" on="0"/>
      </contour>
      <contour>
        <pt x="333" y="906" on="1"/>
        <pt x="333" y="921" on="0"/>
        <pt x="311" y="945" on="0"/>
        <pt x="294" y="945" on="1"/>
        <pt x="277" y="945" on="0"/>
        <pt x="253" y="920" on="0"/>
        <pt x="253" y="906" on="1"/>
        <pt x="253" y="891" on="0"/>
        <pt x="277" y="864" on="0"/>
        <pt x="294" y="864" on="1"/>
        <pt x="311" y="864" on="0"/>
        <pt x="333" y="890" on="0"/>
      </contour>
    </TTGlyph>
    <TTGlyph name="Atilde" xMin="4" yMin="0" xMax="585" yMax="946">
      <contour>
        <pt x="104" y="0" on="1"/>
        <pt x="88" y="0" on="0"/>
        <pt x="53" y="10" on="0"/>
        <pt x="23" y="27" on="0"/>
        <pt x="4" y="50" on="0"/>
        <pt x="4" y="64" on="1"/>
        <pt x="4" y="67" on="0"/>
        <pt x="6" y="75" on="1"/>
        <pt x="192" y="685" on="1"/>
        <pt x="200" y="711" on="0"/>
        <pt x="259" y="737" on="0"/>
        <pt x="294" y="737" on="1"/>
        <pt x="329" y="737" on="0"/>
        <pt x="388" y="711" on="0"/>
        <pt x="396" y="685" on="1"/>
        <pt x="583" y="75" on="1"/>
        <pt x="585" y="67" on="0"/>
        <pt x="585" y="64" on="1"/>
        <pt x="585" y="50" on="0"/>
        <pt x="566" y="27" on="0"/>
        <pt x="536" y="10" on="0"/>
        <pt x="501" y="0" on="0"/>
        <pt x="485" y="0" on="1"/>
        <pt x="466" y="0" on="0"/>
        <pt x="439" y="13" on="0"/>
        <pt x="434" y="29" on="1"/>
        <pt x="400" y="154" on="1"/>
        <pt x="189" y="154" on="1"/>
        <pt x="155" y="29" on="1"/>
        <pt x="150" y="13" on="0"/>
        <pt x="123" y="0" on="0"/>
      </contour>
      <contour>
        <pt x="367" y="274" on="1"/>
        <pt x="294" y="542" on="1"/>
        <pt x="221" y="274" on="1"/>
      </contour>
      <contour>
        <pt x="241" y="845" on="1"/>
        <pt x="225" y="845" on="0"/>
        <pt x="201" y="838" on="0"/>
        <pt x="181" y="831" on="0"/>
        <pt x="164" y="824" on="0"/>
        <pt x="155" y="824" on="1"/>
        <pt x="143" y="824" on="0"/>
        <pt x="129" y="836" on="0"/>
        <pt x="120" y="853" on="0"/>
        <pt x="117" y="869" on="0"/>
        <pt x="117" y="873" on="1"/>
        <pt x="117" y="900" on="0"/>
        <pt x="138" y="929" on="0"/>
        <pt x="167" y="943" on="0"/>
        <pt x="195" y="946" on="0"/>
        <pt x="202" y="946" on="1"/>
        <pt x="225" y="946" on="0"/>
        <pt x="261" y="938" on="0"/>
        <pt x="294" y="927" on="0"/>
        <pt x="327" y="919" on="0"/>
        <pt x="348" y="919" on="1"/>
        <pt x="364" y="919" on="0"/>
        <pt x="388" y="926" on="0"/>
        <pt x="408" y="933" on="0"/>
        <pt x="425" y="940" on="0"/>
        <pt x="434" y="940" on="1"/>
        <pt x="446" y="940" on="0"/>
        <pt x="460" y="927" on="0"/>
        <pt x="469" y="911" on="0"/>
        <pt x="472" y="895" on="0"/>
        <pt x="472" y="891" on="1"/>
        <pt x="472" y="864" on="0"/>
        <pt x="451" y="835" on="0"/>
        <pt x="422" y="821" on="0"/>
        <pt x="394" y="818" on="0"/>
        <pt x="387" y="818" on="1"/>
        <pt x="360" y="818" on="0"/>
        <pt x="322" y="826" on="0"/>
        <pt x="289" y="837" on="0"/>
        <pt x="259" y="845" on="0"/>
      </contour>
    </TTGlyph>
    <TTGlyph name="B" xMin="54" yMin="0" xMax="545" yMax="731">
      <contour>
        <pt x="54" y="683" on="1"/>
        <pt x="54" y="707" on="0"/>
        <pt x="96" y="731" on="0"/>
        <pt x="122" y="731" on="1"/>
        <pt x="327" y="731" on="1"/>
        <pt x="364" y="731" on="0"/>
        <pt x="436" y="715" on="0"/>
        <pt x="493" y="675" on="0"/>
        <pt x="527" y="606" on="0"/>
        <pt x="527" y="553" on="1"/>
        <pt x="527" y="492" on="0"/>
        <pt x="482" y="413" on="0"/>
        <pt x="442" y="396" on="1"/>
        <pt x="465" y="387" on="0"/>
        <pt x="503" y="363" on="0"/>
        <pt x="530" y="326" on="0"/>
        <pt x="545" y="273" on="0"/>
        <pt x="545" y="236" on="1"/>
        <pt x="545" y="215" on="1"/>
        <pt x="545" y="156" on="0"/>
        <pt x="514" y="74" on="0"/>
        <pt x="460" y="23" on="0"/>
        <pt x="386" y="0" on="0"/>
        <pt x="344" y="0" on="1"/>
        <pt x="122" y="0" on="1"/>
        <pt x="90" y="0" on="0"/>
        <pt x="54" y="28" on="0"/>
        <pt x="54" y="47" on="1"/>
      </contour>
      <contour>
        <pt x="309" y="136" on="1"/>
        <pt x="347" y="136" on="0"/>
        <pt x="389" y="180" on="0"/>
        <pt x="389" y="228" on="1"/>
        <pt x="389" y="244" on="1"/>
        <pt x="389" y="295" on="0"/>
        <pt x="347" y="336" on="0"/>
        <pt x="309" y="336" on="1"/>
        <pt x="209" y="336" on="1"/>
        <pt x="209" y="136" on="1"/>
      </contour>
      <contour>
        <pt x="209" y="456" on="1"/>
        <pt x="314" y="456" on="1"/>
        <pt x="343" y="456" on="0"/>
        <pt x="371" y="499" on="0"/>
        <pt x="371" y="525" on="1"/>
        <pt x="371" y="551" on="0"/>
        <pt x="343" y="595" on="0"/>
        <pt x="314" y="595" on="1"/>
        <pt x="209" y="595" on="1"/>
      </contour>
    </TTGlyph>
    <TTGlyph name="C" xMin="46" yMin="-6" xMax="537" yMax="731">
      <contour>
        <pt x="381" y="505" on="1"/>
        <pt x="381" y="515" on="0"/>
        <pt x="377" y="545" on="0"/>
        <pt x="359" y="574" on="0"/>
        <pt x="324" y="595" on="0"/>
        <pt x="292" y="595" on="1"/>
        <pt x="249" y="595" on="0"/>
        <pt x="202" y="546" on="0"/>
        <pt x="202" y="495" on="1"/>
        <pt x="202" y="230" on="1"/>
        <pt x="202" y="179" on="0"/>
        <pt x="249" y="130" on="0"/>
        <pt x="293" y="130" on="1"/>
        <pt x="323" y="130" on="0"/>
        <pt x="357" y="150" on="0"/>
        <pt x="375" y="180" on="0"/>
        <pt x="380" y="215" on="0"/>
        <pt x="381" y="230" on="1"/>
        <pt x="383" y="258" on="0"/>
        <pt x="428" y="277" on="0"/>
        <pt x="458" y="277" on="1"/>
        <pt x="499" y="277" on="0"/>
        <pt x="537" y="248" on="0"/>
        <pt x="537" y="203" on="1"/>
        <pt x="537" y="153" on="0"/>
        <pt x="499" y="75" on="0"/>
        <pt x="431" y="22" on="0"/>
        <pt x="340" y="-6" on="0"/>
        <pt x="286" y="-6" on="1"/>
        <pt x="237" y="-6" on="0"/>
        <pt x="150" y="19" on="0"/>
        <pt x="84" y="76" on="0"/>
        <pt x="46" y="165" on="0"/>
        <pt x="46" y="230" on="1"/>
        <pt x="46" y="495" on="1"/>
        <pt x="46" y="559" on="0"/>
        <pt x="84" y="649" on="0"/>
        <pt x="150" y="706" on="0"/>
        <pt x="237" y="731" on="0"/>
        <pt x="286" y="731" on="1"/>
        <pt x="340" y="731" on="0"/>
        <pt x="431" y="705" on="0"/>
        <pt x="499" y="654" on="0"/>
        <pt x="537" y="580" on="0"/>
        <pt x="537" y="532" on="1"/>
        <pt x="537" y="487" on="0"/>
        <pt x="499" y="458" on="0"/>
        <pt x="459" y="458" on="1"/>
        <pt x="427" y="458" on="0"/>
        <pt x="383" y="478" on="0"/>
      </contour>
    </TTGlyph>
    <TTGlyph name="Cacute" xMin="46" yMin="-6" xMax="537" yMax="959">
      <contour>
        <pt x="381" y="505" on="1"/>
        <pt x="381" y="515" on="0"/>
        <pt x="377" y="545" on="0"/>
        <pt x="359" y="574" on="0"/>
        <pt x="324" y="595" on="0"/>
        <pt x="292" y="595" on="1"/>
        <pt x="249" y="595" on="0"/>
        <pt x="202" y="546" on="0"/>
        <pt x="202" y="495" on="1"/>
        <pt x="202" y="230" on="1"/>
        <pt x="202" y="179" on="0"/>
        <pt x="249" y="130" on="0"/>
        <pt x="293" y="130" on="1"/>
        <pt x="323" y="130" on="0"/>
        <pt x="357" y="150" on="0"/>
        <pt x="375" y="180" on="0"/>
        <pt x="380" y="215" on="0"/>
        <pt x="381" y="230" on="1"/>
        <pt x="383" y="258" on="0"/>
        <pt x="428" y="277" on="0"/>
        <pt x="458" y="277" on="1"/>
        <pt x="499" y="277" on="0"/>
        <pt x="537" y="248" on="0"/>
        <pt x="537" y="203" on="1"/>
        <pt x="537" y="153" on="0"/>
        <pt x="499" y="75" on="0"/>
        <pt x="431" y="22" on="0"/>
        <pt x="340" y="-6" on="0"/>
        <pt x="286" y="-6" on="1"/>
        <pt x="237" y="-6" on="0"/>
        <pt x="150" y="19" on="0"/>
        <pt x="84" y="76" on="0"/>
        <pt x="46" y="165" on="0"/>
        <pt x="46" y="230" on="1"/>
        <pt x="46" y="495" on="1"/>
        <pt x="46" y="559" on="0"/>
        <pt x="84" y="649" on="0"/>
        <pt x="150" y="706" on="0"/>
        <pt x="237" y="731" on="0"/>
        <pt x="286" y="731" on="1"/>
        <pt x="340" y="731" on="0"/>
        <pt x="431" y="705" on="0"/>
        <pt x="499" y="654" on="0"/>
        <pt x="537" y="580" on="0"/>
        <pt x="537" y="532" on="1"/>
        <pt x="537" y="487" on="0"/>
        <pt x="499" y="458" on="0"/>
        <pt x="459" y="458" on="1"/>
        <pt x="427" y="458" on="0"/>
        <pt x="383" y="478" on="0"/>
      </contour>
      <contour>
        <pt x="266" y="802" on="1"/>
        <pt x="256" y="798" on="0"/>
        <pt x="251" y="798" on="1"/>
        <pt x="231" y="798" on="0"/>
        <pt x="205" y="836" on="0"/>
        <pt x="205" y="856" on="1"/>
        <pt x="205" y="881" on="0"/>
        <pt x="225" y="891" on="1"/>
        <pt x="365" y="956" on="1"/>
        <pt x="372" y="959" on="0"/>
        <pt x="379" y="959" on="1"/>
        <pt x="389" y="959" on="0"/>
        <pt x="406" y="948" on="0"/>
        <pt x="419" y="931" on="0"/>
        <pt x="426" y="911" on="0"/>
        <pt x="426" y="901" on="1"/>
        <pt x="426" y="890" on="0"/>
        <pt x="417" y="872" on="0"/>
        <pt x="406" y="867" on="1"/>
      </contour>
    </TTGlyph>
    <TTGlyph name="Ccaron" xMin="46" yMin="-6" xMax="537" yMax="971">
      <contour>
        <pt x="381" y="505" on="1"/>
        <pt x="381" y="515" on="0"/>
        <pt x="377" y="545" on="0"/>
        <pt x="359" y="574" on="0"/>
        <pt x="324" y="595" on="0"/>
        <pt x="292" y="595" on="1"/>
        <pt x="249" y="595" on="0"/>
        <pt x="202" y="546" on="0"/>
        <pt x="202" y="495" on="1"/>
        <pt x="202" y="230" on="1"/>
        <pt x="202" y="179" on="0"/>
        <pt x="249" y="130" on="0"/>
        <pt x="293" y="130" on="1"/>
        <pt x="323" y="130" on="0"/>
        <pt x="357" y="150" on="0"/>
        <pt x="375" y="180" on="0"/>
        <pt x="380" y="215" on="0"/>
        <pt x="381" y="230" on="1"/>
        <pt x="383" y="258" on="0"/>
        <pt x="428" y="277" on="0"/>
        <pt x="458" y="277" on="1"/>
        <pt x="499" y="277" on="0"/>
        <pt x="537" y="248" on="0"/>
        <pt x="537" y="203" on="1"/>
        <pt x="537" y="153" on="0"/>
        <pt x="499" y="75" on="0"/>
        <pt x="431" y="22" on="0"/>
        <pt x="340" y="-6" on="0"/>
        <pt x="286" y="-6" on="1"/>
        <pt x="237" y="-6" on="0"/>
        <pt x="150" y="19" on="0"/>
        <pt x="84" y="76" on="0"/>
        <pt x="46" y="165" on="0"/>
        <pt x="46" y="230" on="1"/>
        <pt x="46" y="495" on="1"/>
        <pt x="46" y="559" on="0"/>
        <pt x="84" y="649" on="0"/>
        <pt x="150" y="706" on="0"/>
        <pt x="237" y="731" on="0"/>
        <pt x="286" y="731" on="1"/>
        <pt x="340" y="731" on="0"/>
        <pt x="431" y="705" on="0"/>
        <pt x="499" y="654" on="0"/>
        <pt x="537" y="580" on="0"/>
        <pt x="537" y="532" on="1"/>
        <pt x="537" y="487" on="0"/>
        <pt x="499" y="458" on="0"/>
        <pt x="459" y="458" on="1"/>
        <pt x="427" y="458" on="0"/>
        <pt x="383" y="478" on="0"/>
      </contour>
      <contour>
        <pt x="290" y="912" on="1"/>
        <pt x="394" y="968" on="1"/>
        <pt x="400" y="971" on="0"/>
        <pt x="405" y="971" on="1"/>
        <pt x="419" y="971" on="0"/>
        <pt x="436" y="942" on="0"/>
        <pt x="436" y="925" on="1"/>
        <pt x="436" y="912" on="0"/>
        <pt x="425" y="889" on="0"/>
        <pt x="411" y="881" on="1"/>
        <pt x="307" y="825" on="1"/>
        <pt x="297" y="820" on="0"/>
        <pt x="290" y="820" on="1"/>
        <pt x="283" y="820" on="0"/>
        <pt x="273" y="825" on="1"/>
        <pt x="169" y="881" on="1"/>
        <pt x="155" y="889" on="0"/>
        <pt x="144" y="912" on="0"/>
        <pt x="144" y="925" on="1"/>
        <pt x="144" y="942" on="0"/>
        <pt x="161" y="971" on="0"/>
        <pt x="175" y="971" on="1"/>
        <pt x="180" y="971" on="0"/>
        <pt x="186" y="968" on="1"/>
      </contour>
    </TTGlyph>
    <TTGlyph name="Ccedilla" xMin="46" yMin="-219" xMax="537" yMax="731">
      <contour>
        <pt x="381" y="505" on="1"/>
        <pt x="381" y="515" on="0"/>
        <pt x="377" y="545" on="0"/>
        <pt x="359" y="574" on="0"/>
        <pt x="324" y="595" on="0"/>
        <pt x="292" y="595" on="1"/>
        <pt x="249" y="595" on="0"/>
        <pt x="202" y="546" on="0"/>
        <pt x="202" y="495" on="1"/>
        <pt x="202" y="230" on="1"/>
        <pt x="202" y="179" on="0"/>
        <pt x="249" y="130" on="0"/>
        <pt x="293" y="130" on="1"/>
        <pt x="323" y="130" on="0"/>
        <pt x="357" y="150" on="0"/>
        <pt x="375" y="180" on="0"/>
        <pt x="380" y="215" on="0"/>
        <pt x="381" y="230" on="1"/>
        <pt x="383" y="258" on="0"/>
        <pt x="428" y="277" on="0"/>
        <pt x="458" y="277" on="1"/>
        <pt x="499" y="277" on="0"/>
        <pt x="537" y="248" on="0"/>
        <pt x="537" y="203" on="1"/>
        <pt x="537" y="157" on="0"/>
        <pt x="505" y="84" on="0"/>
        <pt x="448" y="32" on="0"/>
        <pt x="369" y="0" on="0"/>
        <pt x="322" y="-4" on="1"/>
        <pt x="308" y="-47" on="1"/>
        <pt x="359" y="-49" on="0"/>
        <pt x="408" y="-94" on="0"/>
        <pt x="408" y="-126" on="1"/>
        <pt x="408" y="-139" on="0"/>
        <pt x="398" y="-171" on="0"/>
        <pt x="373" y="-200" on="0"/>
        <pt x="330" y="-219" on="0"/>
        <pt x="297" y="-219" on="1"/>
        <pt x="283" y="-219" on="0"/>
        <pt x="252" y="-215" on="0"/>
        <pt x="226" y="-208" on="0"/>
        <pt x="209" y="-196" on="0"/>
        <pt x="209" y="-188" on="1"/>
        <pt x="209" y="-185" on="0"/>
        <pt x="212" y="-171" on="0"/>
        <pt x="218" y="-157" on="0"/>
        <pt x="228" y="-146" on="0"/>
        <pt x="235" y="-146" on="1"/>
        <pt x="244" y="-146" on="0"/>
        <pt x="269" y="-160" on="0"/>
        <pt x="293" y="-160" on="1"/>
        <pt x="313" y="-160" on="0"/>
        <pt x="339" y="-145" on="0"/>
        <pt x="339" y="-129" on="1"/>
        <pt x="339" y="-116" on="0"/>
        <pt x="319" y="-97" on="0"/>
        <pt x="296" y="-95" on="1"/>
        <pt x="234" y="-89" on="1"/>
        <pt x="259" y="-5" on="1"/>
        <pt x="214" y="-2" on="0"/>
        <pt x="137" y="27" on="0"/>
        <pt x="79" y="84" on="0"/>
        <pt x="46" y="170" on="0"/>
        <pt x="46" y="230" on="1"/>
        <pt x="46" y="495" on="1"/>
        <pt x="46" y="559" on="0"/>
        <pt x="84" y="649" on="0"/>
        <pt x="150" y="706" on="0"/>
        <pt x="237" y="731" on="0"/>
        <pt x="286" y="731" on="1"/>
        <pt x="340" y="731" on="0"/>
        <pt x="431" y="705" on="0"/>
        <pt x="499" y="654" on="0"/>
        <pt x="537" y="580" on="0"/>
        <pt x="537" y="532" on="1"/>
        <pt x="537" y="487" on="0"/>
        <pt x="499" y="458" on="0"/>
        <pt x="459" y="458" on="1"/>
        <pt x="427" y="458" on="0"/>
        <pt x="383" y="478" on="0"/>
      </contour>
    </TTGlyph>
    <TTGlyph name="Ccircumflex" xMin="46" yMin="-6" xMax="537" yMax="959">
      <contour>
        <pt x="381" y="505" on="1"/>
        <pt x="381" y="515" on="0"/>
        <pt x="377" y="545" on="0"/>
        <pt x="359" y="574" on="0"/>
        <pt x="324" y="595" on="0"/>
        <pt x="292" y="595" on="1"/>
        <pt x="249" y="595" on="0"/>
        <pt x="202" y="546" on="0"/>
        <pt x="202" y="495" on="1"/>
        <pt x="202" y="230" on="1"/>
        <pt x="202" y="179" on="0"/>
        <pt x="249" y="130" on="0"/>
        <pt x="293" y="130" on="1"/>
        <pt x="323" y="130" on="0"/>
        <pt x="357" y="150" on="0"/>
        <pt x="375" y="180" on="0"/>
        <pt x="380" y="215" on="0"/>
        <pt x="381" y="230" on="1"/>
        <pt x="383" y="258" on="0"/>
        <pt x="428" y="277" on="0"/>
        <pt x="458" y="277" on="1"/>
        <pt x="499" y="277" on="0"/>
        <pt x="537" y="248" on="0"/>
        <pt x="537" y="203" on="1"/>
        <pt x="537" y="153" on="0"/>
        <pt x="499" y="75" on="0"/>
        <pt x="431" y="22" on="0"/>
        <pt x="340" y="-6" on="0"/>
        <pt x="286" y="-6" on="1"/>
        <pt x="237" y="-6" on="0"/>
        <pt x="150" y="19" on="0"/>
        <pt x="84" y="76" on="0"/>
        <pt x="46" y="165" on="0"/>
        <pt x="46" y="230" on="1"/>
        <pt x="46" y="495" on="1"/>
        <pt x="46" y="559" on="0"/>
        <pt x="84" y="649" on="0"/>
        <pt x="150" y="706" on="0"/>
        <pt x="237" y="731" on="0"/>
        <pt x="286" y="731" on="1"/>
        <pt x="340" y="731" on="0"/>
        <pt x="431" y="705" on="0"/>
        <pt x="499" y="654" on="0"/>
        <pt x="537" y="580" on="0"/>
        <pt x="537" y="532" on="1"/>
        <pt x="537" y="487" on="0"/>
        <pt x="499" y="458" on="0"/>
        <pt x="459" y="458" on="1"/>
        <pt x="427" y="458" on="0"/>
        <pt x="383" y="478" on="0"/>
      </contour>
      <contour>
        <pt x="187" y="811" on="1"/>
        <pt x="181" y="808" on="0"/>
        <pt x="176" y="808" on="1"/>
        <pt x="162" y="808" on="0"/>
        <pt x="145" y="837" on="0"/>
        <pt x="145" y="854" on="1"/>
        <pt x="145" y="867" on="0"/>
        <pt x="156" y="890" on="0"/>
        <pt x="170" y="898" on="1"/>
        <pt x="274" y="954" on="1"/>
        <pt x="284" y="959" on="0"/>
        <pt x="291" y="959" on="1"/>
        <pt x="298" y="959" on="0"/>
        <pt x="308" y="954" on="1"/>
        <pt x="412" y="898" on="1"/>
        <pt x="426" y="890" on="0"/>
        <pt x="437" y="867" on="0"/>
        <pt x="437" y="854" on="1"/>
        <pt x="437" y="837" on="0"/>
        <pt x="420" y="808" on="0"/>
        <pt x="406" y="808" on="1"/>
        <pt x="401" y="808" on="0"/>
        <pt x="395" y="811" on="1"/>
        <pt x="291" y="867" on="1"/>
      </contour>
    </TTGlyph>
    <TTGlyph name="Cdotaccent" xMin="46" yMin="-6" xMax="537" yMax="927">
      <contour>
        <pt x="381" y="505" on="1"/>
        <pt x="381" y="515" on="0"/>
        <pt x="377" y="545" on="0"/>
        <pt x="359" y="574" on="0"/>
        <pt x="324" y="595" on="0"/>
        <pt x="292" y="595" on="1"/>
        <pt x="249" y="595" on="0"/>
        <pt x="202" y="546" on="0"/>
        <pt x="202" y="495" on="1"/>
        <pt x="202" y="230" on="1"/>
        <pt x="202" y="179" on="0"/>
        <pt x="249" y="130" on="0"/>
        <pt x="293" y="130" on="1"/>
        <pt x="323" y="130" on="0"/>
        <pt x="357" y="150" on="0"/>
        <pt x="375" y="180" on="0"/>
        <pt x="380" y="215" on="0"/>
        <pt x="381" y="230" on="1"/>
        <pt x="383" y="258" on="0"/>
        <pt x="428" y="277" on="0"/>
        <pt x="458" y="277" on="1"/>
        <pt x="499" y="277" on="0"/>
        <pt x="537" y="248" on="0"/>
        <pt x="537" y="203" on="1"/>
        <pt x="537" y="153" on="0"/>
        <pt x="499" y="75" on="0"/>
        <pt x="431" y="22" on="0"/>
        <pt x="340" y="-6" on="0"/>
        <pt x="286" y="-6" on="1"/>
        <pt x="237" y="-6" on="0"/>
        <pt x="150" y="19" on="0"/>
        <pt x="84" y="76" on="0"/>
        <pt x="46" y="165" on="0"/>
        <pt x="46" y="230" on="1"/>
        <pt x="46" y="495" on="1"/>
        <pt x="46" y="559" on="0"/>
        <pt x="84" y="649" on="0"/>
        <pt x="150" y="706" on="0"/>
        <pt x="237" y="731" on="0"/>
        <pt x="286" y="731" on="1"/>
        <pt x="340" y="731" on="0"/>
        <pt x="431" y="705" on="0"/>
        <pt x="499" y="654" on="0"/>
        <pt x="537" y="580" on="0"/>
        <pt x="537" y="532" on="1"/>
        <pt x="537" y="487" on="0"/>
        <pt x="499" y="458" on="0"/>
        <pt x="459" y="458" on="1"/>
        <pt x="427" y="458" on="0"/>
        <pt x="383" y="478" on="0"/>
      </contour>
      <contour>
        <pt x="293" y="927" on="1"/>
        <pt x="316" y="927" on="0"/>
        <pt x="349" y="892" on="0"/>
        <pt x="349" y="869" on="1"/>
        <pt x="349" y="846" on="0"/>
        <pt x="316" y="810" on="0"/>
        <pt x="293" y="810" on="1"/>
        <pt x="270" y="810" on="0"/>
        <pt x="236" y="846" on="0"/>
        <pt x="236" y="869" on="1"/>
        <pt x="236" y="892" on="0"/>
        <pt x="270" y="927" on="0"/>
      </contour>
    </TTGlyph>
    <TTGlyph name="D" xMin="54" yMin="0" xMax="545" yMax="731">
      <contour>
        <pt x="299" y="731" on="1"/>
        <pt x="351" y="731" on="0"/>
        <pt x="441" y="706" on="0"/>
        <pt x="507" y="649" on="0"/>
        <pt x="545" y="559" on="0"/>
        <pt x="545" y="495" on="1"/>
        <pt x="545" y="236" on="1"/>
        <pt x="545" y="171" on="0"/>
        <pt x="507" y="82" on="0"/>
        <pt x="441" y="25" on="0"/>
        <pt x="351" y="0" on="0"/>
        <pt x="299" y="0" on="1"/>
        <pt x="122" y="0" on="1"/>
        <pt x="91" y="0" on="0"/>
        <pt x="54" y="28" on="0"/>
        <pt x="54" y="47" on="1"/>
        <pt x="54" y="684" on="1"/>
        <pt x="54" y="703" on="0"/>
        <pt x="91" y="731" on="0"/>
        <pt x="122" y="731" on="1"/>
      </contour>
      <contour>
        <pt x="210" y="595" on="1"/>
        <pt x="210" y="136" on="1"/>
        <pt x="299" y="136" on="1"/>
        <pt x="341" y="136" on="0"/>
        <pt x="389" y="185" on="0"/>
        <pt x="389" y="236" on="1"/>
        <pt x="389" y="495" on="1"/>
        <pt x="389" y="546" on="0"/>
        <pt x="341" y="595" on="0"/>
        <pt x="299" y="595" on="1"/>
      </contour>
    </TTGlyph>
    <TTGlyph name="Dcaron" xMin="54" yMin="0" xMax="545" yMax="971">
      <contour>
        <pt x="299" y="731" on="1"/>
        <pt x="351" y="731" on="0"/>
        <pt x="441" y="706" on="0"/>
        <pt x="507" y="649" on="0"/>
        <pt x="545" y="559" on="0"/>
        <pt x="545" y="495" on="1"/>
        <pt x="545" y="236" on="1"/>
        <pt x="545" y="171" on="0"/>
        <pt x="507" y="82" on="0"/>
        <pt x="441" y="25" on="0"/>
        <pt x="351" y="0" on="0"/>
        <pt x="299" y="0" on="1"/>
        <pt x="122" y="0" on="1"/>
        <pt x="91" y="0" on="0"/>
        <pt x="54" y="28" on="0"/>
        <pt x="54" y="47" on="1"/>
        <pt x="54" y="684" on="1"/>
        <pt x="54" y="703" on="0"/>
        <pt x="91" y="731" on="0"/>
        <pt x="122" y="731" on="1"/>
      </contour>
      <contour>
        <pt x="210" y="595" on="1"/>
        <pt x="210" y="136" on="1"/>
        <pt x="299" y="136" on="1"/>
        <pt x="341" y="136" on="0"/>
        <pt x="389" y="185" on="0"/>
        <pt x="389" y="236" on="1"/>
        <pt x="389" y="495" on="1"/>
        <pt x="389" y="546" on="0"/>
        <pt x="341" y="595" on="0"/>
        <pt x="299" y="595" on="1"/>
      </contour>
      <contour>
        <pt x="274" y="912" on="1"/>
        <pt x="378" y="968" on="1"/>
        <pt x="384" y="971" on="0"/>
        <pt x="389" y="971" on="1"/>
        <pt x="403" y="971" on="0"/>
        <pt x="420" y="942" on="0"/>
        <pt x="420" y="925" on="1"/>
        <pt x="420" y="912" on="0"/>
        <pt x="409" y="889" on="0"/>
        <pt x="395" y="881" on="1"/>
        <pt x="291" y="825" on="1"/>
        <pt x="281" y="820" on="0"/>
        <pt x="274" y="820" on="1"/>
        <pt x="267" y="820" on="0"/>
        <pt x="257" y="825" on="1"/>
        <pt x="153" y="881" on="1"/>
        <pt x="139" y="889" on="0"/>
        <pt x="128" y="912" on="0"/>
        <pt x="128" y="925" on="1"/>
        <pt x="128" y="942" on="0"/>
        <pt x="145" y="971" on="0"/>
        <pt x="159" y="971" on="1"/>
        <pt x="164" y="971" on="0"/>
        <pt x="170" y="968" on="1"/>
      </contour>
    </TTGlyph>
    <TTGlyph name="Dcroat" xMin="-10" yMin="0" xMax="551" yMax="731">
      <contour>
        <pt x="305" y="731" on="1"/>
        <pt x="357" y="731" on="0"/>
        <pt x="447" y="706" on="0"/>
        <pt x="513" y="649" on="0"/>
        <pt x="551" y="559" on="0"/>
        <pt x="551" y="495" on="1"/>
        <pt x="551" y="236" on="1"/>
        <pt x="551" y="171" on="0"/>
        <pt x="513" y="82" on="0"/>
        <pt x="447" y="25" on="0"/>
        <pt x="357" y="0" on="0"/>
        <pt x="305" y="0" on="1"/>
        <pt x="128" y="0" on="1"/>
        <pt x="97" y="0" on="0"/>
        <pt x="60" y="28" on="0"/>
        <pt x="60" y="47" on="1"/>
        <pt x="60" y="327" on="1"/>
        <pt x="28" y="327" on="1"/>
        <pt x="9" y="327" on="0"/>
        <pt x="-10" y="361" on="0"/>
        <pt x="-10" y="382" on="1"/>
        <pt x="-10" y="402" on="0"/>
        <pt x="9" y="437" on="0"/>
        <pt x="28" y="437" on="1"/>
        <pt x="60" y="437" on="1"/>
        <pt x="60" y="684" on="1"/>
        <pt x="60" y="703" on="0"/>
        <pt x="97" y="731" on="0"/>
        <pt x="128" y="731" on="1"/>
      </contour>
      <contour>
        <pt x="216" y="595" on="1"/>
        <pt x="216" y="437" on="1"/>
        <pt x="278" y="437" on="1"/>
        <pt x="297" y="437" on="0"/>
        <pt x="316" y="402" on="0"/>
        <pt x="316" y="382" on="1"/>
        <pt x="316" y="360" on="0"/>
        <pt x="297" y="327" on="0"/>
        <pt x="278" y="327" on="1"/>
        <pt x="216" y="327" on="1"/>
        <pt x="216" y="136" on="1"/>
        <pt x="305" y="136" on="1"/>
        <pt x="347" y="136" on="0"/>
        <pt x="395" y="185" on="0"/>
        <pt x="395" y="236" on="1"/>
        <pt x="395" y="495" on="1"/>
        <pt x="395" y="546" on="0"/>
        <pt x="347" y="595" on="0"/>
        <pt x="305" y="595" on="1"/>
      </contour>
    </TTGlyph>
    <TTGlyph name="Delta" xMin="20" yMin="0" xMax="602" yMax="737">
      <contour>
        <pt x="596" y="88" on="1"/>
        <pt x="602" y="70" on="0"/>
        <pt x="602" y="53" on="1"/>
        <pt x="602" y="29" on="0"/>
        <pt x="572" y="0" on="0"/>
        <pt x="536" y="0" on="1"/>
        <pt x="86" y="0" on="1"/>
        <pt x="50" y="0" on="0"/>
        <pt x="20" y="29" on="0"/>
        <pt x="20" y="53" on="1"/>
        <pt x="20" y="70" on="0"/>
        <pt x="26" y="88" on="1"/>
        <pt x="208" y="679" on="1"/>
        <pt x="216" y="705" on="0"/>
        <pt x="269" y="737" on="0"/>
        <pt x="311" y="737" on="1"/>
        <pt x="353" y="737" on="0"/>
        <pt x="406" y="705" on="0"/>
        <pt x="414" y="679" on="1"/>
      </contour>
      <contour>
        <pt x="423" y="136" on="1"/>
        <pt x="311" y="552" on="1"/>
        <pt x="199" y="136" on="1"/>
      </contour>
    </TTGlyph>
    <TTGlyph name="E" xMin="54" yMin="0" xMax="525" yMax="731">
      <contour>
        <pt x="210" y="426" on="1"/>
        <pt x="360" y="426" on="1"/>
        <pt x="383" y="426" on="0"/>
        <pt x="407" y="389" on="0"/>
        <pt x="407" y="365" on="1"/>
        <pt x="407" y="345" on="0"/>
        <pt x="385" y="306" on="0"/>
        <pt x="360" y="306" on="1"/>
        <pt x="210" y="306" on="1"/>
        <pt x="210" y="136" on="1"/>
        <pt x="478" y="136" on="1"/>
        <pt x="501" y="136" on="0"/>
        <pt x="525" y="95" on="0"/>
        <pt x="525" y="67" on="1"/>
        <pt x="525" y="43" on="0"/>
        <pt x="503" y="0" on="0"/>
        <pt x="478" y="0" on="1"/>
        <pt x="122" y="0" on="1"/>
        <pt x="96" y="0" on="0"/>
        <pt x="54" y="24" on="0"/>
        <pt x="54" y="48" on="1"/>
        <pt x="54" y="683" on="1"/>
        <pt x="54" y="707" on="0"/>
        <pt x="96" y="731" on="0"/>
        <pt x="122" y="731" on="1"/>
        <pt x="478" y="731" on="1"/>
        <pt x="503" y="731" on="0"/>
        <pt x="525" y="688" on="0"/>
        <pt x="525" y="664" on="1"/>
        <pt x="525" y="636" on="0"/>
        <pt x="501" y="595" on="0"/>
        <pt x="478" y="595" on="1"/>
        <pt x="210" y="595" on="1"/>
      </contour>
    </TTGlyph>
    <TTGlyph name="Eacute" xMin="54" yMin="0" xMax="525" yMax="959">
      <contour>
        <pt x="210" y="426" on="1"/>
        <pt x="360" y="426" on="1"/>
        <pt x="383" y="426" on="0"/>
        <pt x="407" y="389" on="0"/>
        <pt x="407" y="365" on="1"/>
        <pt x="407" y="345" on="0"/>
        <pt x="385" y="306" on="0"/>
        <pt x="360" y="306" on="1"/>
        <pt x="210" y="306" on="1"/>
        <pt x="210" y="136" on="1"/>
        <pt x="478" y="136" on="1"/>
        <pt x="501" y="136" on="0"/>
        <pt x="525" y="95" on="0"/>
        <pt x="525" y="67" on="1"/>
        <pt x="525" y="43" on="0"/>
        <pt x="503" y="0" on="0"/>
        <pt x="478" y="0" on="1"/>
        <pt x="122" y="0" on="1"/>
        <pt x="96" y="0" on="0"/>
        <pt x="54" y="24" on="0"/>
        <pt x="54" y="48" on="1"/>
        <pt x="54" y="683" on="1"/>
        <pt x="54" y="707" on="0"/>
        <pt x="96" y="731" on="0"/>
        <pt x="122" y="731" on="1"/>
        <pt x="478" y="731" on="1"/>
        <pt x="503" y="731" on="0"/>
        <pt x="525" y="688" on="0"/>
        <pt x="525" y="664" on="1"/>
        <pt x="525" y="636" on="0"/>
        <pt x="501" y="595" on="0"/>
        <pt x="478" y="595" on="1"/>
        <pt x="210" y="595" on="1"/>
      </contour>
      <contour>
        <pt x="264" y="802" on="1"/>
        <pt x="254" y="798" on="0"/>
        <pt x="249" y="798" on="1"/>
        <pt x="229" y="798" on="0"/>
        <pt x="203" y="836" on="0"/>
        <pt x="203" y="856" on="1"/>
        <pt x="203" y="881" on="0"/>
        <pt x="223" y="891" on="1"/>
        <pt x="363" y="956" on="1"/>
        <pt x="370" y="959" on="0"/>
        <pt x="377" y="959" on="1"/>
        <pt x="387" y="959" on="0"/>
        <pt x="404" y="948" on="0"/>
        <pt x="417" y="931" on="0"/>
        <pt x="424" y="911" on="0"/>
        <pt x="424" y="901" on="1"/>
        <pt x="424" y="890" on="0"/>
        <pt x="415" y="872" on="0"/>
        <pt x="404" y="867" on="1"/>
      </contour>
    </TTGlyph>
    <TTGlyph name="Ebreve" xMin="54" yMin="0" xMax="525" yMax="963">
      <contour>
        <pt x="210" y="426" on="1"/>
        <pt x="360" y="426" on="1"/>
        <pt x="383" y="426" on="0"/>
        <pt x="407" y="389" on="0"/>
        <pt x="407" y="365" on="1"/>
        <pt x="407" y="345" on="0"/>
        <pt x="385" y="306" on="0"/>
        <pt x="360" y="306" on="1"/>
        <pt x="210" y="306" on="1"/>
        <pt x="210" y="136" on="1"/>
        <pt x="478" y="136" on="1"/>
        <pt x="501" y="136" on="0"/>
        <pt x="525" y="95" on="0"/>
        <pt x="525" y="67" on="1"/>
        <pt x="525" y="43" on="0"/>
        <pt x="503" y="0" on="0"/>
        <pt x="478" y="0" on="1"/>
        <pt x="122" y="0" on="1"/>
        <pt x="96" y="0" on="0"/>
        <pt x="54" y="24" on="0"/>
        <pt x="54" y="48" on="1"/>
        <pt x="54" y="683" on="1"/>
        <pt x="54" y="707" on="0"/>
        <pt x="96" y="731" on="0"/>
        <pt x="122" y="731" on="1"/>
        <pt x="478" y="731" on="1"/>
        <pt x="503" y="731" on="0"/>
        <pt x="525" y="688" on="0"/>
        <pt x="525" y="664" on="1"/>
        <pt x="525" y="636" on="0"/>
        <pt x="501" y="595" on="0"/>
        <pt x="478" y="595" on="1"/>
        <pt x="210" y="595" on="1"/>
      </contour>
      <contour>
        <pt x="428" y="963" on="1"/>
        <pt x="428" y="935" on="0"/>
        <pt x="405" y="885" on="0"/>
        <pt x="366" y="847" on="0"/>
        <pt x="316" y="824" on="0"/>
        <pt x="289" y="824" on="1"/>
        <pt x="262" y="824" on="0"/>
        <pt x="211" y="847" on="0"/>
        <pt x="172" y="885" on="0"/>
        <pt x="149" y="935" on="0"/>
        <pt x="149" y="963" on="1"/>
        <pt x="229" y="963" on="1"/>
        <pt x="229" y="931" on="0"/>
        <pt x="267" y="890" on="0"/>
        <pt x="289" y="890" on="1"/>
        <pt x="310" y="890" on="0"/>
        <pt x="348" y="931" on="0"/>
        <pt x="348" y="963" on="1"/>
      </contour>
    </TTGlyph>
    <TTGlyph name="Ecaron" xMin="54" yMin="0" xMax="525" yMax="971">
      <contour>
        <pt x="210" y="426" on="1"/>
        <pt x="360" y="426" on="1"/>
        <pt x="383" y="426" on="0"/>
        <pt x="407" y="389" on="0"/>
        <pt x="407" y="365" on="1"/>
        <pt x="407" y="345" on="0"/>
        <pt x="385" y="306" on="0"/>
        <pt x="360" y="306" on="1"/>
        <pt x="210" y="306" on="1"/>
        <pt x="210" y="136" on="1"/>
        <pt x="478" y="136" on="1"/>
        <pt x="501" y="136" on="0"/>
        <pt x="525" y="95" on="0"/>
        <pt x="525" y="67" on="1"/>
        <pt x="525" y="43" on="0"/>
        <pt x="503" y="0" on="0"/>
        <pt x="478" y="0" on="1"/>
        <pt x="122" y="0" on="1"/>
        <pt x="96" y="0" on="0"/>
        <pt x="54" y="24" on="0"/>
        <pt x="54" y="48" on="1"/>
        <pt x="54" y="683" on="1"/>
        <pt x="54" y="707" on="0"/>
        <pt x="96" y="731" on="0"/>
        <pt x="122" y="731" on="1"/>
        <pt x="478" y="731" on="1"/>
        <pt x="503" y="731" on="0"/>
        <pt x="525" y="688" on="0"/>
        <pt x="525" y="664" on="1"/>
        <pt x="525" y="636" on="0"/>
        <pt x="501" y="595" on="0"/>
        <pt x="478" y="595" on="1"/>
        <pt x="210" y="595" on="1"/>
      </contour>
      <contour>
        <pt x="288" y="912" on="1"/>
        <pt x="392" y="968" on="1"/>
        <pt x="398" y="971" on="0"/>
        <pt x="403" y="971" on="1"/>
        <pt x="417" y="971" on="0"/>
        <pt x="434" y="942" on="0"/>
        <pt x="434" y="925" on="1"/>
        <pt x="434" y="912" on="0"/>
        <pt x="423" y="889" on="0"/>
        <pt x="409" y="881" on="1"/>
        <pt x="305" y="825" on="1"/>
        <pt x="295" y="820" on="0"/>
        <pt x="288" y="820" on="1"/>
        <pt x="281" y="820" on="0"/>
        <pt x="271" y="825" on="1"/>
        <pt x="167" y="881" on="1"/>
        <pt x="153" y="889" on="0"/>
        <pt x="142" y="912" on="0"/>
        <pt x="142" y="925" on="1"/>
        <pt x="142" y="942" on="0"/>
        <pt x="159" y="971" on="0"/>
        <pt x="173" y="971" on="1"/>
        <pt x="178" y="971" on="0"/>
        <pt x="184" y="968" on="1"/>
      </contour>
    </TTGlyph>
    <TTGlyph name="Ecircumflex" xMin="54" yMin="0" xMax="525" yMax="959">
      <contour>
        <pt x="210" y="426" on="1"/>
        <pt x="360" y="426" on="1"/>
        <pt x="383" y="426" on="0"/>
        <pt x="407" y="389" on="0"/>
        <pt x="407" y="365" on="1"/>
        <pt x="407" y="345" on="0"/>
        <pt x="385" y="306" on="0"/>
        <pt x="360" y="306" on="1"/>
        <pt x="210" y="306" on="1"/>
        <pt x="210" y="136" on="1"/>
        <pt x="478" y="136" on="1"/>
        <pt x="501" y="136" on="0"/>
        <pt x="525" y="95" on="0"/>
        <pt x="525" y="67" on="1"/>
        <pt x="525" y="43" on="0"/>
        <pt x="503" y="0" on="0"/>
        <pt x="478" y="0" on="1"/>
        <pt x="122" y="0" on="1"/>
        <pt x="96" y="0" on="0"/>
        <pt x="54" y="24" on="0"/>
        <pt x="54" y="48" on="1"/>
        <pt x="54" y="683" on="1"/>
        <pt x="54" y="707" on="0"/>
        <pt x="96" y="731" on="0"/>
        <pt x="122" y="731" on="1"/>
        <pt x="478" y="731" on="1"/>
        <pt x="503" y="731" on="0"/>
        <pt x="525" y="688" on="0"/>
        <pt x="525" y="664" on="1"/>
        <pt x="525" y="636" on="0"/>
        <pt x="501" y="595" on="0"/>
        <pt x="478" y="595" on="1"/>
        <pt x="210" y="595" on="1"/>
      </contour>
      <contour>
        <pt x="195" y="811" on="1"/>
        <pt x="189" y="808" on="0"/>
        <pt x="184" y="808" on="1"/>
        <pt x="170" y="808" on="0"/>
        <pt x="153" y="837" on="0"/>
        <pt x="153" y="854" on="1"/>
        <pt x="153" y="867" on="0"/>
        <pt x="164" y="890" on="0"/>
        <pt x="178" y="898" on="1"/>
        <pt x="282" y="954" on="1"/>
        <pt x="292" y="959" on="0"/>
        <pt x="299" y="959" on="1"/>
        <pt x="306" y="959" on="0"/>
        <pt x="316" y="954" on="1"/>
        <pt x="420" y="898" on="1"/>
        <pt x="434" y="890" on="0"/>
        <pt x="445" y="867" on="0"/>
        <pt x="445" y="854" on="1"/>
        <pt x="445" y="837" on="0"/>
        <pt x="428" y="808" on="0"/>
        <pt x="414" y="808" on="1"/>
        <pt x="409" y="808" on="0"/>
        <pt x="403" y="811" on="1"/>
        <pt x="299" y="867" on="1"/>
      </contour>
    </TTGlyph>
    <TTGlyph name="Edieresis" xMin="54" yMin="0" xMax="525" yMax="927">
      <contour>
        <pt x="210" y="426" on="1"/>
        <pt x="360" y="426" on="1"/>
        <pt x="383" y="426" on="0"/>
        <pt x="407" y="389" on="0"/>
        <pt x="407" y="365" on="1"/>
        <pt x="407" y="345" on="0"/>
        <pt x="385" y="306" on="0"/>
        <pt x="360" y="306" on="1"/>
        <pt x="210" y="306" on="1"/>
        <pt x="210" y="136" on="1"/>
        <pt x="478" y="136" on="1"/>
        <pt x="501" y="136" on="0"/>
        <pt x="525" y="95" on="0"/>
        <pt x="525" y="67" on="1"/>
        <pt x="525" y="43" on="0"/>
        <pt x="503" y="0" on="0"/>
        <pt x="478" y="0" on="1"/>
        <pt x="122" y="0" on="1"/>
        <pt x="96" y="0" on="0"/>
        <pt x="54" y="24" on="0"/>
        <pt x="54" y="48" on="1"/>
        <pt x="54" y="683" on="1"/>
        <pt x="54" y="707" on="0"/>
        <pt x="96" y="731" on="0"/>
        <pt x="122" y="731" on="1"/>
        <pt x="478" y="731" on="1"/>
        <pt x="503" y="731" on="0"/>
        <pt x="525" y="688" on="0"/>
        <pt x="525" y="664" on="1"/>
        <pt x="525" y="636" on="0"/>
        <pt x="501" y="595" on="0"/>
        <pt x="478" y="595" on="1"/>
        <pt x="210" y="595" on="1"/>
      </contour>
      <contour>
        <pt x="213" y="927" on="1"/>
        <pt x="236" y="927" on="0"/>
        <pt x="269" y="892" on="0"/>
        <pt x="269" y="869" on="1"/>
        <pt x="269" y="846" on="0"/>
        <pt x="236" y="810" on="0"/>
        <pt x="213" y="810" on="1"/>
        <pt x="190" y="810" on="0"/>
        <pt x="156" y="846" on="0"/>
        <pt x="156" y="869" on="1"/>
        <pt x="156" y="892" on="0"/>
        <pt x="190" y="927" on="0"/>
      </contour>
      <contour>
        <pt x="373" y="927" on="1"/>
        <pt x="396" y="927" on="0"/>
        <pt x="429" y="892" on="0"/>
        <pt x="429" y="869" on="1"/>
        <pt x="429" y="846" on="0"/>
        <pt x="396" y="810" on="0"/>
        <pt x="373" y="810" on="1"/>
        <pt x="350" y="810" on="0"/>
        <pt x="316" y="846" on="0"/>
        <pt x="316" y="869" on="1"/>
        <pt x="316" y="892" on="0"/>
        <pt x="350" y="927" on="0"/>
      </contour>
    </TTGlyph>
    <TTGlyph name="Edotaccent" xMin="54" yMin="0" xMax="525" yMax="927">
      <contour>
        <pt x="210" y="426" on="1"/>
        <pt x="360" y="426" on="1"/>
        <pt x="383" y="426" on="0"/>
        <pt x="407" y="389" on="0"/>
        <pt x="407" y="365" on="1"/>
        <pt x="407" y="345" on="0"/>
        <pt x="385" y="306" on="0"/>
        <pt x="360" y="306" on="1"/>
        <pt x="210" y="306" on="1"/>
        <pt x="210" y="136" on="1"/>
        <pt x="478" y="136" on="1"/>
        <pt x="501" y="136" on="0"/>
        <pt x="525" y="95" on="0"/>
        <pt x="525" y="67" on="1"/>
        <pt x="525" y="43" on="0"/>
        <pt x="503" y="0" on="0"/>
        <pt x="478" y="0" on="1"/>
        <pt x="122" y="0" on="1"/>
        <pt x="96" y="0" on="0"/>
        <pt x="54" y="24" on="0"/>
        <pt x="54" y="48" on="1"/>
        <pt x="54" y="683" on="1"/>
        <pt x="54" y="707" on="0"/>
        <pt x="96" y="731" on="0"/>
        <pt x="122" y="731" on="1"/>
        <pt x="478" y="731" on="1"/>
        <pt x="503" y="731" on="0"/>
        <pt x="525" y="688" on="0"/>
        <pt x="525" y="664" on="1"/>
        <pt x="525" y="636" on="0"/>
        <pt x="501" y="595" on="0"/>
        <pt x="478" y="595" on="1"/>
        <pt x="210" y="595" on="1"/>
      </contour>
      <contour>
        <pt x="303" y="927" on="1"/>
        <pt x="326" y="927" on="0"/>
        <pt x="359" y="892" on="0"/>
        <pt x="359" y="869" on="1"/>
        <pt x="359" y="846" on="0"/>
        <pt x="326" y="810" on="0"/>
        <pt x="303" y="810" on="1"/>
        <pt x="280" y="810" on="0"/>
        <pt x="246" y="846" on="0"/>
        <pt x="246" y="869" on="1"/>
        <pt x="246" y="892" on="0"/>
        <pt x="280" y="927" on="0"/>
      </contour>
    </TTGlyph>
    <TTGlyph name="Egrave" xMin="54" yMin="0" xMax="525" yMax="959">
      <contour>
        <pt x="210" y="426" on="1"/>
        <pt x="360" y="426" on="1"/>
        <pt x="383" y="426" on="0"/>
        <pt x="407" y="389" on="0"/>
        <pt x="407" y="365" on="1"/>
        <pt x="407" y="345" on="0"/>
        <pt x="385" y="306" on="0"/>
        <pt x="360" y="306" on="1"/>
        <pt x="210" y="306" on="1"/>
        <pt x="210" y="136" on="1"/>
        <pt x="478" y="136" on="1"/>
        <pt x="501" y="136" on="0"/>
        <pt x="525" y="95" on="0"/>
        <pt x="525" y="67" on="1"/>
        <pt x="525" y="43" on="0"/>
        <pt x="503" y="0" on="0"/>
        <pt x="478" y="0" on="1"/>
        <pt x="122" y="0" on="1"/>
        <pt x="96" y="0" on="0"/>
        <pt x="54" y="24" on="0"/>
        <pt x="54" y="48" on="1"/>
        <pt x="54" y="683" on="1"/>
        <pt x="54" y="707" on="0"/>
        <pt x="96" y="731" on="0"/>
        <pt x="122" y="731" on="1"/>
        <pt x="478" y="731" on="1"/>
        <pt x="503" y="731" on="0"/>
        <pt x="525" y="688" on="0"/>
        <pt x="525" y="664" on="1"/>
        <pt x="525" y="636" on="0"/>
        <pt x="501" y="595" on="0"/>
        <pt x="478" y="595" on="1"/>
        <pt x="210" y="595" on="1"/>
      </contour>
      <contour>
        <pt x="193" y="867" on="1"/>
        <pt x="182" y="872" on="0"/>
        <pt x="173" y="890" on="0"/>
        <pt x="173" y="901" on="1"/>
        <pt x="173" y="911" on="0"/>
        <pt x="180" y="931" on="0"/>
        <pt x="193" y="948" on="0"/>
        <pt x="210" y="959" on="0"/>
        <pt x="220" y="959" on="1"/>
        <pt x="226" y="959" on="0"/>
        <pt x="234" y="956" on="1"/>
        <pt x="374" y="891" on="1"/>
        <pt x="394" y="881" on="0"/>
        <pt x="394" y="856" on="1"/>
        <pt x="394" y="836" on="0"/>
        <pt x="368" y="798" on="0"/>
        <pt x="348" y="798" on="1"/>
        <pt x="343" y="798" on="0"/>
        <pt x="333" y="802" on="1"/>
      </contour>
    </TTGlyph>
    <TTGlyph name="Emacron" xMin="54" yMin="0" xMax="525" yMax="938">
      <contour>
        <pt x="210" y="426" on="1"/>
        <pt x="360" y="426" on="1"/>
        <pt x="383" y="426" on="0"/>
        <pt x="407" y="389" on="0"/>
        <pt x="407" y="365" on="1"/>
        <pt x="407" y="345" on="0"/>
        <pt x="385" y="306" on="0"/>
        <pt x="360" y="306" on="1"/>
        <pt x="210" y="306" on="1"/>
        <pt x="210" y="136" on="1"/>
        <pt x="478" y="136" on="1"/>
        <pt x="501" y="136" on="0"/>
        <pt x="525" y="95" on="0"/>
        <pt x="525" y="67" on="1"/>
        <pt x="525" y="43" on="0"/>
        <pt x="503" y="0" on="0"/>
        <pt x="478" y="0" on="1"/>
        <pt x="122" y="0" on="1"/>
        <pt x="96" y="0" on="0"/>
        <pt x="54" y="24" on="0"/>
        <pt x="54" y="48" on="1"/>
        <pt x="54" y="683" on="1"/>
        <pt x="54" y="707" on="0"/>
        <pt x="96" y="731" on="0"/>
        <pt x="122" y="731" on="1"/>
        <pt x="478" y="731" on="1"/>
        <pt x="503" y="731" on="0"/>
        <pt x="525" y="688" on="0"/>
        <pt x="525" y="664" on="1"/>
        <pt x="525" y="636" on="0"/>
        <pt x="501" y="595" on="0"/>
        <pt x="478" y="595" on="1"/>
        <pt x="210" y="595" on="1"/>
      </contour>
      <contour>
        <pt x="147" y="888" on="1"/>
        <pt x="147" y="909" on="0"/>
        <pt x="173" y="938" on="0"/>
        <pt x="194" y="938" on="1"/>
        <pt x="394" y="938" on="1"/>
        <pt x="412" y="938" on="0"/>
        <pt x="442" y="909" on="0"/>
        <pt x="442" y="888" on="1"/>
        <pt x="442" y="866" on="0"/>
        <pt x="412" y="839" on="0"/>
        <pt x="394" y="839" on="1"/>
        <pt x="194" y="839" on="1"/>
        <pt x="173" y="839" on="0"/>
        <pt x="147" y="866" on="0"/>
      </contour>
    </TTGlyph>
    <TTGlyph name="Eng" xMin="54" yMin="-217" xMax="565" yMax="731">
      <contour>
        <pt x="383" y="-87" on="1"/>
        <pt x="400" y="-87" on="0"/>
        <pt x="409" y="-54" on="0"/>
        <pt x="409" y="-28" on="1"/>
        <pt x="409" y="8" on="1"/>
        <pt x="409" y="19" on="0"/>
        <pt x="405" y="34" on="0"/>
        <pt x="400" y="42" on="1"/>
        <pt x="210" y="388" on="1"/>
        <pt x="210" y="48" on="1"/>
        <pt x="210" y="24" on="0"/>
        <pt x="161" y="0" on="0"/>
        <pt x="132" y="0" on="1"/>
        <pt x="103" y="0" on="0"/>
        <pt x="54" y="24" on="0"/>
        <pt x="54" y="48" on="1"/>
        <pt x="54" y="683" on="1"/>
        <pt x="54" y="708" on="0"/>
        <pt x="103" y="731" on="0"/>
        <pt x="132" y="731" on="1"/>
        <pt x="153" y="731" on="0"/>
        <pt x="183" y="727" on="0"/>
        <pt x="209" y="712" on="0"/>
        <pt x="233" y="680" on="0"/>
        <pt x="247" y="653" on="1"/>
        <pt x="409" y="344" on="1"/>
        <pt x="409" y="684" on="1"/>
        <pt x="409" y="709" on="0"/>
        <pt x="458" y="731" on="0"/>
        <pt x="487" y="731" on="1"/>
        <pt x="516" y="731" on="0"/>
        <pt x="565" y="709" on="0"/>
        <pt x="565" y="684" on="1"/>
        <pt x="565" y="-28" on="1"/>
        <pt x="565" y="-70" on="0"/>
        <pt x="544" y="-139" on="0"/>
        <pt x="503" y="-189" on="0"/>
        <pt x="444" y="-217" on="0"/>
        <pt x="406" y="-217" on="1"/>
        <pt x="381" y="-217" on="0"/>
        <pt x="350" y="-206" on="0"/>
        <pt x="332" y="-188" on="0"/>
        <pt x="325" y="-166" on="0"/>
        <pt x="325" y="-154" on="1"/>
        <pt x="325" y="-123" on="0"/>
        <pt x="359" y="-87" on="0"/>
      </contour>
    </TTGlyph>
    <TTGlyph name="Eogonek" xMin="54" yMin="-218" xMax="525" yMax="731">
      <contour>
        <pt x="482" y="-155" on="1"/>
        <pt x="496" y="-155" on="0"/>
        <pt x="507" y="-178" on="0"/>
        <pt x="507" y="-189" on="1"/>
        <pt x="507" y="-200" on="0"/>
        <pt x="496" y="-218" on="0"/>
        <pt x="476" y="-218" on="1"/>
        <pt x="410" y="-218" on="0"/>
        <pt x="351" y="-161" on="0"/>
        <pt x="351" y="-121" on="1"/>
        <pt x="351" y="-90" on="0"/>
        <pt x="382" y="-26" on="0"/>
        <pt x="411" y="0" on="1"/>
        <pt x="122" y="0" on="1"/>
        <pt x="96" y="0" on="0"/>
        <pt x="54" y="24" on="0"/>
        <pt x="54" y="48" on="1"/>
        <pt x="54" y="683" on="1"/>
        <pt x="54" y="707" on="0"/>
        <pt x="96" y="731" on="0"/>
        <pt x="122" y="731" on="1"/>
        <pt x="478" y="731" on="1"/>
        <pt x="503" y="731" on="0"/>
        <pt x="525" y="688" on="0"/>
        <pt x="525" y="664" on="1"/>
        <pt x="525" y="636" on="0"/>
        <pt x="501" y="595" on="0"/>
        <pt x="478" y="595" on="1"/>
        <pt x="210" y="595" on="1"/>
        <pt x="210" y="426" on="1"/>
        <pt x="360" y="426" on="1"/>
        <pt x="383" y="426" on="0"/>
        <pt x="407" y="389" on="0"/>
        <pt x="407" y="365" on="1"/>
        <pt x="407" y="345" on="0"/>
        <pt x="385" y="306" on="0"/>
        <pt x="360" y="306" on="1"/>
        <pt x="210" y="306" on="1"/>
        <pt x="210" y="136" on="1"/>
        <pt x="478" y="136" on="1"/>
        <pt x="501" y="136" on="0"/>
        <pt x="525" y="95" on="0"/>
        <pt x="525" y="67" on="1"/>
        <pt x="525" y="47" on="0"/>
        <pt x="509" y="8" on="0"/>
        <pt x="491" y="2" on="1"/>
        <pt x="462" y="-18" on="0"/>
        <pt x="424" y="-80" on="0"/>
        <pt x="424" y="-107" on="1"/>
        <pt x="424" y="-128" on="0"/>
        <pt x="450" y="-155" on="0"/>
      </contour>
    </TTGlyph>
    <TTGlyph name="Eth" xMin="-10" yMin="0" xMax="551" yMax="731">
      <contour>
        <pt x="305" y="731" on="1"/>
        <pt x="357" y="731" on="0"/>
        <pt x="447" y="706" on="0"/>
        <pt x="513" y="649" on="0"/>
        <pt x="551" y="559" on="0"/>
        <pt x="551" y="495" on="1"/>
        <pt x="551" y="236" on="1"/>
        <pt x="551" y="171" on="0"/>
        <pt x="513" y="82" on="0"/>
        <pt x="447" y="25" on="0"/>
        <pt x="357" y="0" on="0"/>
        <pt x="305" y="0" on="1"/>
        <pt x="128" y="0" on="1"/>
        <pt x="97" y="0" on="0"/>
        <pt x="60" y="28" on="0"/>
        <pt x="60" y="47" on="1"/>
        <pt x="60" y="327" on="1"/>
        <pt x="28" y="327" on="1"/>
        <pt x="9" y="327" on="0"/>
        <pt x="-10" y="361" on="0"/>
        <pt x="-10" y="382" on="1"/>
        <pt x="-10" y="402" on="0"/>
        <pt x="9" y="437" on="0"/>
        <pt x="28" y="437" on="1"/>
        <pt x="60" y="437" on="1"/>
        <pt x="60" y="684" on="1"/>
        <pt x="60" y="703" on="0"/>
        <pt x="97" y="731" on="0"/>
        <pt x="128" y="731" on="1"/>
      </contour>
      <contour>
        <pt x="216" y="595" on="1"/>
        <pt x="216" y="437" on="1"/>
        <pt x="278" y="437" on="1"/>
        <pt x="297" y="437" on="0"/>
        <pt x="316" y="402" on="0"/>
        <pt x="316" y="382" on="1"/>
        <pt x="316" y="360" on="0"/>
        <pt x="297" y="327" on="0"/>
        <pt x="278" y="327" on="1"/>
        <pt x="216" y="327" on="1"/>
        <pt x="216" y="136" on="1"/>
        <pt x="305" y="136" on="1"/>
        <pt x="347" y="136" on="0"/>
        <pt x="395" y="185" on="0"/>
        <pt x="395" y="236" on="1"/>
        <pt x="395" y="495" on="1"/>
        <pt x="395" y="546" on="0"/>
        <pt x="347" y="595" on="0"/>
        <pt x="305" y="595" on="1"/>
      </contour>
    </TTGlyph>
    <TTGlyph name="Euro" xMin="23" yMin="-6" xMax="601" yMax="731">
      <contour>
        <pt x="266" y="212" on="1"/>
        <pt x="266" y="207" on="0"/>
        <pt x="271" y="181" on="0"/>
        <pt x="289" y="152" on="0"/>
        <pt x="326" y="130" on="0"/>
        <pt x="358" y="130" on="1"/>
        <pt x="388" y="130" on="0"/>
        <pt x="422" y="150" on="0"/>
        <pt x="440" y="180" on="0"/>
        <pt x="445" y="215" on="0"/>
        <pt x="445" y="230" on="1"/>
        <pt x="446" y="254" on="0"/>
        <pt x="480" y="273" on="0"/>
        <pt x="522" y="273" on="1"/>
        <pt x="565" y="273" on="0"/>
        <pt x="601" y="246" on="0"/>
        <pt x="601" y="202" on="1"/>
        <pt x="601" y="153" on="0"/>
        <pt x="563" y="76" on="0"/>
        <pt x="495" y="22" on="0"/>
        <pt x="404" y="-6" on="0"/>
        <pt x="351" y="-6" on="1"/>
        <pt x="292" y="-6" on="0"/>
        <pt x="202" y="28" on="0"/>
        <pt x="141" y="86" on="0"/>
        <pt x="110" y="166" on="0"/>
        <pt x="110" y="212" on="1"/>
        <pt x="110" y="216" on="1"/>
        <pt x="70" y="216" on="1"/>
        <pt x="49" y="216" on="0"/>
        <pt x="23" y="245" on="0"/>
        <pt x="23" y="268" on="1"/>
        <pt x="23" y="291" on="0"/>
        <pt x="49" y="323" on="0"/>
        <pt x="70" y="323" on="1"/>
        <pt x="110" y="323" on="1"/>
        <pt x="110" y="383" on="1"/>
        <pt x="70" y="383" on="1"/>
        <pt x="49" y="383" on="0"/>
        <pt x="23" y="412" on="0"/>
        <pt x="23" y="435" on="1"/>
        <pt x="23" y="458" on="0"/>
        <pt x="49" y="490" on="0"/>
        <pt x="70" y="490" on="1"/>
        <pt x="110" y="490" on="1"/>
        <pt x="110" y="495" on="1"/>
        <pt x="110" y="559" on="0"/>
        <pt x="148" y="649" on="0"/>
        <pt x="213" y="706" on="0"/>
        <pt x="301" y="731" on="0"/>
        <pt x="351" y="731" on="1"/>
        <pt x="404" y="731" on="0"/>
        <pt x="495" y="705" on="0"/>
        <pt x="563" y="654" on="0"/>
        <pt x="601" y="580" on="0"/>
        <pt x="601" y="532" on="1"/>
        <pt x="601" y="510" on="0"/>
        <pt x="592" y="483" on="0"/>
        <pt x="573" y="468" on="0"/>
        <pt x="543" y="462" on="0"/>
        <pt x="522" y="462" on="1"/>
        <pt x="480" y="462" on="0"/>
        <pt x="445" y="482" on="0"/>
        <pt x="445" y="505" on="1"/>
        <pt x="445" y="514" on="0"/>
        <pt x="441" y="545" on="0"/>
        <pt x="424" y="574" on="0"/>
        <pt x="388" y="595" on="0"/>
        <pt x="357" y="595" on="1"/>
        <pt x="266" y="595" on="0"/>
        <pt x="266" y="495" on="1"/>
        <pt x="266" y="490" on="1"/>
        <pt x="330" y="490" on="1"/>
        <pt x="348" y="490" on="0"/>
        <pt x="378" y="459" on="0"/>
        <pt x="378" y="436" on="1"/>
        <pt x="378" y="413" on="0"/>
        <pt x="348" y="383" on="0"/>
        <pt x="330" y="383" on="1"/>
        <pt x="266" y="383" on="1"/>
        <pt x="266" y="323" on="1"/>
        <pt x="330" y="323" on="1"/>
        <pt x="348" y="323" on="0"/>
        <pt x="378" y="292" on="0"/>
        <pt x="378" y="269" on="1"/>
        <pt x="378" y="246" on="0"/>
        <pt x="348" y="216" on="0"/>
        <pt x="330" y="216" on="1"/>
        <pt x="266" y="216" on="1"/>
      </contour>
    </TTGlyph>
    <TTGlyph name="F" xMin="54" yMin="0" xMax="516" yMax="731">
      <contour>
        <pt x="54" y="683" on="1"/>
        <pt x="54" y="707" on="0"/>
        <pt x="96" y="731" on="0"/>
        <pt x="122" y="731" on="1"/>
        <pt x="469" y="731" on="1"/>
        <pt x="494" y="731" on="0"/>
        <pt x="516" y="688" on="0"/>
        <pt x="516" y="664" on="1"/>
        <pt x="516" y="636" on="0"/>
        <pt x="492" y="595" on="0"/>
        <pt x="469" y="595" on="1"/>
        <pt x="210" y="595" on="1"/>
        <pt x="210" y="426" on="1"/>
        <pt x="361" y="426" on="1"/>
        <pt x="384" y="426" on="0"/>
        <pt x="408" y="389" on="0"/>
        <pt x="408" y="365" on="1"/>
        <pt x="408" y="345" on="0"/>
        <pt x="386" y="306" on="0"/>
        <pt x="361" y="306" on="1"/>
        <pt x="210" y="306" on="1"/>
        <pt x="210" y="48" on="1"/>
        <pt x="210" y="24" on="0"/>
        <pt x="161" y="0" on="0"/>
        <pt x="132" y="0" on="1"/>
        <pt x="103" y="0" on="0"/>
        <pt x="54" y="24" on="0"/>
        <pt x="54" y="48" on="1"/>
      </contour>
    </TTGlyph>
    <TTGlyph name="G" xMin="46" yMin="-6" xMax="537" yMax="731">
      <contour>
        <pt x="381" y="505" on="1"/>
        <pt x="381" y="518" on="0"/>
        <pt x="377" y="550" on="0"/>
        <pt x="359" y="577" on="0"/>
        <pt x="324" y="595" on="0"/>
        <pt x="292" y="595" on="1"/>
        <pt x="249" y="595" on="0"/>
        <pt x="202" y="546" on="0"/>
        <pt x="202" y="495" on="1"/>
        <pt x="202" y="230" on="1"/>
        <pt x="202" y="179" on="0"/>
        <pt x="249" y="130" on="0"/>
        <pt x="291" y="130" on="1"/>
        <pt x="333" y="130" on="0"/>
        <pt x="381" y="179" on="0"/>
        <pt x="381" y="230" on="1"/>
        <pt x="381" y="264" on="1"/>
        <pt x="322" y="264" on="1"/>
        <pt x="299" y="264" on="0"/>
        <pt x="275" y="301" on="0"/>
        <pt x="275" y="324" on="1"/>
        <pt x="275" y="346" on="0"/>
        <pt x="299" y="384" on="0"/>
        <pt x="322" y="384" on="1"/>
        <pt x="490" y="384" on="1"/>
        <pt x="513" y="384" on="0"/>
        <pt x="537" y="355" on="0"/>
        <pt x="537" y="335" on="1"/>
        <pt x="537" y="230" on="1"/>
        <pt x="537" y="165" on="0"/>
        <pt x="499" y="76" on="0"/>
        <pt x="433" y="19" on="0"/>
        <pt x="343" y="-6" on="0"/>
        <pt x="291" y="-6" on="1"/>
        <pt x="239" y="-6" on="0"/>
        <pt x="150" y="19" on="0"/>
        <pt x="84" y="76" on="0"/>
        <pt x="46" y="165" on="0"/>
        <pt x="46" y="230" on="1"/>
        <pt x="46" y="495" on="1"/>
        <pt x="46" y="559" on="0"/>
        <pt x="84" y="649" on="0"/>
        <pt x="150" y="706" on="0"/>
        <pt x="237" y="731" on="0"/>
        <pt x="286" y="731" on="1"/>
        <pt x="340" y="731" on="0"/>
        <pt x="431" y="705" on="0"/>
        <pt x="499" y="654" on="0"/>
        <pt x="537" y="580" on="0"/>
        <pt x="537" y="532" on="1"/>
        <pt x="537" y="487" on="0"/>
        <pt x="499" y="458" on="0"/>
        <pt x="459" y="458" on="1"/>
        <pt x="427" y="458" on="0"/>
        <pt x="382" y="478" on="0"/>
      </contour>
    </TTGlyph>
    <TTGlyph name="Gbreve" xMin="46" yMin="-6" xMax="537" yMax="963">
      <contour>
        <pt x="381" y="505" on="1"/>
        <pt x="381" y="518" on="0"/>
        <pt x="377" y="550" on="0"/>
        <pt x="359" y="577" on="0"/>
        <pt x="324" y="595" on="0"/>
        <pt x="292" y="595" on="1"/>
        <pt x="249" y="595" on="0"/>
        <pt x="202" y="546" on="0"/>
        <pt x="202" y="495" on="1"/>
        <pt x="202" y="230" on="1"/>
        <pt x="202" y="179" on="0"/>
        <pt x="249" y="130" on="0"/>
        <pt x="291" y="130" on="1"/>
        <pt x="333" y="130" on="0"/>
        <pt x="381" y="179" on="0"/>
        <pt x="381" y="230" on="1"/>
        <pt x="381" y="264" on="1"/>
        <pt x="322" y="264" on="1"/>
        <pt x="299" y="264" on="0"/>
        <pt x="275" y="301" on="0"/>
        <pt x="275" y="324" on="1"/>
        <pt x="275" y="346" on="0"/>
        <pt x="299" y="384" on="0"/>
        <pt x="322" y="384" on="1"/>
        <pt x="490" y="384" on="1"/>
        <pt x="513" y="384" on="0"/>
        <pt x="537" y="355" on="0"/>
        <pt x="537" y="335" on="1"/>
        <pt x="537" y="230" on="1"/>
        <pt x="537" y="165" on="0"/>
        <pt x="499" y="76" on="0"/>
        <pt x="433" y="19" on="0"/>
        <pt x="343" y="-6" on="0"/>
        <pt x="291" y="-6" on="1"/>
        <pt x="239" y="-6" on="0"/>
        <pt x="150" y="19" on="0"/>
        <pt x="84" y="76" on="0"/>
        <pt x="46" y="165" on="0"/>
        <pt x="46" y="230" on="1"/>
        <pt x="46" y="495" on="1"/>
        <pt x="46" y="559" on="0"/>
        <pt x="84" y="649" on="0"/>
        <pt x="150" y="706" on="0"/>
        <pt x="237" y="731" on="0"/>
        <pt x="286" y="731" on="1"/>
        <pt x="340" y="731" on="0"/>
        <pt x="431" y="705" on="0"/>
        <pt x="499" y="654" on="0"/>
        <pt x="537" y="580" on="0"/>
        <pt x="537" y="532" on="1"/>
        <pt x="537" y="487" on="0"/>
        <pt x="499" y="458" on="0"/>
        <pt x="459" y="458" on="1"/>
        <pt x="427" y="458" on="0"/>
        <pt x="382" y="478" on="0"/>
      </contour>
      <contour>
        <pt x="429" y="963" on="1"/>
        <pt x="429" y="935" on="0"/>
        <pt x="406" y="885" on="0"/>
        <pt x="367" y="847" on="0"/>
        <pt x="317" y="824" on="0"/>
        <pt x="290" y="824" on="1"/>
        <pt x="263" y="824" on="0"/>
        <pt x="212" y="847" on="0"/>
        <pt x="173" y="885" on="0"/>
        <pt x="150" y="935" on="0"/>
        <pt x="150" y="963" on="1"/>
        <pt x="230" y="963" on="1"/>
        <pt x="230" y="931" on="0"/>
        <pt x="268" y="890" on="0"/>
        <pt x="290" y="890" on="1"/>
        <pt x="311" y="890" on="0"/>
        <pt x="349" y="931" on="0"/>
        <pt x="349" y="963" on="1"/>
      </contour>
    </TTGlyph>
    <TTGlyph name="Gcircumflex" xMin="46" yMin="-6" xMax="537" yMax="959">
      <contour>
        <pt x="381" y="505" on="1"/>
        <pt x="381" y="518" on="0"/>
        <pt x="377" y="550" on="0"/>
        <pt x="359" y="577" on="0"/>
        <pt x="324" y="595" on="0"/>
        <pt x="292" y="595" on="1"/>
        <pt x="249" y="595" on="0"/>
        <pt x="202" y="546" on="0"/>
        <pt x="202" y="495" on="1"/>
        <pt x="202" y="230" on="1"/>
        <pt x="202" y="179" on="0"/>
        <pt x="249" y="130" on="0"/>
        <pt x="291" y="130" on="1"/>
        <pt x="333" y="130" on="0"/>
        <pt x="381" y="179" on="0"/>
        <pt x="381" y="230" on="1"/>
        <pt x="381" y="264" on="1"/>
        <pt x="322" y="264" on="1"/>
        <pt x="299" y="264" on="0"/>
        <pt x="275" y="301" on="0"/>
        <pt x="275" y="324" on="1"/>
        <pt x="275" y="346" on="0"/>
        <pt x="299" y="384" on="0"/>
        <pt x="322" y="384" on="1"/>
        <pt x="490" y="384" on="1"/>
        <pt x="513" y="384" on="0"/>
        <pt x="537" y="355" on="0"/>
        <pt x="537" y="335" on="1"/>
        <pt x="537" y="230" on="1"/>
        <pt x="537" y="165" on="0"/>
        <pt x="499" y="76" on="0"/>
        <pt x="433" y="19" on="0"/>
        <pt x="343" y="-6" on="0"/>
        <pt x="291" y="-6" on="1"/>
        <pt x="239" y="-6" on="0"/>
        <pt x="150" y="19" on="0"/>
        <pt x="84" y="76" on="0"/>
        <pt x="46" y="165" on="0"/>
        <pt x="46" y="230" on="1"/>
        <pt x="46" y="495" on="1"/>
        <pt x="46" y="559" on="0"/>
        <pt x="84" y="649" on="0"/>
        <pt x="150" y="706" on="0"/>
        <pt x="237" y="731" on="0"/>
        <pt x="286" y="731" on="1"/>
        <pt x="340" y="731" on="0"/>
        <pt x="431" y="705" on="0"/>
        <pt x="499" y="654" on="0"/>
        <pt x="537" y="580" on="0"/>
        <pt x="537" y="532" on="1"/>
        <pt x="537" y="487" on="0"/>
        <pt x="499" y="458" on="0"/>
        <pt x="459" y="458" on="1"/>
        <pt x="427" y="458" on="0"/>
        <pt x="382" y="478" on="0"/>
      </contour>
      <contour>
        <pt x="172" y="811" on="1"/>
        <pt x="166" y="808" on="0"/>
        <pt x="161" y="808" on="1"/>
        <pt x="147" y="808" on="0"/>
        <pt x="130" y="837" on="0"/>
        <pt x="130" y="854" on="1"/>
        <pt x="130" y="867" on="0"/>
        <pt x="141" y="890" on="0"/>
        <pt x="155" y="898" on="1"/>
        <pt x="259" y="954" on="1"/>
        <pt x="269" y="959" on="0"/>
        <pt x="276" y="959" on="1"/>
        <pt x="283" y="959" on="0"/>
        <pt x="293" y="954" on="1"/>
        <pt x="397" y="898" on="1"/>
        <pt x="411" y="890" on="0"/>
        <pt x="422" y="867" on="0"/>
        <pt x="422" y="854" on="1"/>
        <pt x="422" y="837" on="0"/>
        <pt x="405" y="808" on="0"/>
        <pt x="391" y="808" on="1"/>
        <pt x="386" y="808" on="0"/>
        <pt x="380" y="811" on="1"/>
        <pt x="276" y="867" on="1"/>
      </contour>
    </TTGlyph>
    <TTGlyph name="Gcommaaccent" xMin="46" yMin="-209" xMax="537" yMax="731">
      <contour>
        <pt x="381" y="505" on="1"/>
        <pt x="381" y="518" on="0"/>
        <pt x="377" y="550" on="0"/>
        <pt x="359" y="577" on="0"/>
        <pt x="324" y="595" on="0"/>
        <pt x="292" y="595" on="1"/>
        <pt x="249" y="595" on="0"/>
        <pt x="202" y="546" on="0"/>
        <pt x="202" y="495" on="1"/>
        <pt x="202" y="230" on="1"/>
        <pt x="202" y="179" on="0"/>
        <pt x="249" y="130" on="0"/>
        <pt x="291" y="130" on="1"/>
        <pt x="333" y="130" on="0"/>
        <pt x="381" y="179" on="0"/>
        <pt x="381" y="230" on="1"/>
        <pt x="381" y="264" on="1"/>
        <pt x="322" y="264" on="1"/>
        <pt x="299" y="264" on="0"/>
        <pt x="275" y="301" on="0"/>
        <pt x="275" y="324" on="1"/>
        <pt x="275" y="346" on="0"/>
        <pt x="299" y="384" on="0"/>
        <pt x="322" y="384" on="1"/>
        <pt x="490" y="384" on="1"/>
        <pt x="513" y="384" on="0"/>
        <pt x="537" y="355" on="0"/>
        <pt x="537" y="335" on="1"/>
        <pt x="537" y="230" on="1"/>
        <pt x="537" y="165" on="0"/>
        <pt x="499" y="76" on="0"/>
        <pt x="433" y="19" on="0"/>
        <pt x="343" y="-6" on="0"/>
        <pt x="291" y="-6" on="1"/>
        <pt x="239" y="-6" on="0"/>
        <pt x="150" y="19" on="0"/>
        <pt x="84" y="76" on="0"/>
        <pt x="46" y="165" on="0"/>
        <pt x="46" y="230" on="1"/>
        <pt x="46" y="495" on="1"/>
        <pt x="46" y="559" on="0"/>
        <pt x="84" y="649" on="0"/>
        <pt x="150" y="706" on="0"/>
        <pt x="237" y="731" on="0"/>
        <pt x="286" y="731" on="1"/>
        <pt x="340" y="731" on="0"/>
        <pt x="431" y="705" on="0"/>
        <pt x="499" y="654" on="0"/>
        <pt x="537" y="580" on="0"/>
        <pt x="537" y="532" on="1"/>
        <pt x="537" y="487" on="0"/>
        <pt x="499" y="458" on="0"/>
        <pt x="459" y="458" on="1"/>
        <pt x="427" y="458" on="0"/>
        <pt x="382" y="478" on="0"/>
      </contour>
      <contour>
        <pt x="241" y="-205" on="1"/>
        <pt x="231" y="-209" on="0"/>
        <pt x="226" y="-209" on="1"/>
        <pt x="206" y="-209" on="0"/>
        <pt x="180" y="-171" on="0"/>
        <pt x="180" y="-151" on="1"/>
        <pt x="180" y="-126" on="0"/>
        <pt x="200" y="-116" on="1"/>
        <pt x="340" y="-51" on="1"/>
        <pt x="347" y="-48" on="0"/>
        <pt x="354" y="-48" on="1"/>
        <pt x="364" y="-48" on="0"/>
        <pt x="381" y="-59" on="0"/>
        <pt x="394" y="-76" on="0"/>
        <pt x="401" y="-96" on="0"/>
        <pt x="401" y="-106" on="1"/>
        <pt x="401" y="-117" on="0"/>
        <pt x="392" y="-135" on="0"/>
        <pt x="381" y="-140" on="1"/>
      </contour>
    </TTGlyph>
    <TTGlyph name="Gdotaccent" xMin="46" yMin="-6" xMax="537" yMax="927">
      <contour>
        <pt x="381" y="505" on="1"/>
        <pt x="381" y="518" on="0"/>
        <pt x="377" y="550" on="0"/>
        <pt x="359" y="577" on="0"/>
        <pt x="324" y="595" on="0"/>
        <pt x="292" y="595" on="1"/>
        <pt x="249" y="595" on="0"/>
        <pt x="202" y="546" on="0"/>
        <pt x="202" y="495" on="1"/>
        <pt x="202" y="230" on="1"/>
        <pt x="202" y="179" on="0"/>
        <pt x="249" y="130" on="0"/>
        <pt x="291" y="130" on="1"/>
        <pt x="333" y="130" on="0"/>
        <pt x="381" y="179" on="0"/>
        <pt x="381" y="230" on="1"/>
        <pt x="381" y="264" on="1"/>
        <pt x="322" y="264" on="1"/>
        <pt x="299" y="264" on="0"/>
        <pt x="275" y="301" on="0"/>
        <pt x="275" y="324" on="1"/>
        <pt x="275" y="346" on="0"/>
        <pt x="299" y="384" on="0"/>
        <pt x="322" y="384" on="1"/>
        <pt x="490" y="384" on="1"/>
        <pt x="513" y="384" on="0"/>
        <pt x="537" y="355" on="0"/>
        <pt x="537" y="335" on="1"/>
        <pt x="537" y="230" on="1"/>
        <pt x="537" y="165" on="0"/>
        <pt x="499" y="76" on="0"/>
        <pt x="433" y="19" on="0"/>
        <pt x="343" y="-6" on="0"/>
        <pt x="291" y="-6" on="1"/>
        <pt x="239" y="-6" on="0"/>
        <pt x="150" y="19" on="0"/>
        <pt x="84" y="76" on="0"/>
        <pt x="46" y="165" on="0"/>
        <pt x="46" y="230" on="1"/>
        <pt x="46" y="495" on="1"/>
        <pt x="46" y="559" on="0"/>
        <pt x="84" y="649" on="0"/>
        <pt x="150" y="706" on="0"/>
        <pt x="237" y="731" on="0"/>
        <pt x="286" y="731" on="1"/>
        <pt x="340" y="731" on="0"/>
        <pt x="431" y="705" on="0"/>
        <pt x="499" y="654" on="0"/>
        <pt x="537" y="580" on="0"/>
        <pt x="537" y="532" on="1"/>
        <pt x="537" y="487" on="0"/>
        <pt x="499" y="458" on="0"/>
        <pt x="459" y="458" on="1"/>
        <pt x="427" y="458" on="0"/>
        <pt x="382" y="478" on="0"/>
      </contour>
      <contour>
        <pt x="287" y="927" on="1"/>
        <pt x="310" y="927" on="0"/>
        <pt x="343" y="892" on="0"/>
        <pt x="343" y="869" on="1"/>
        <pt x="343" y="846" on="0"/>
        <pt x="310" y="810" on="0"/>
        <pt x="287" y="810" on="1"/>
        <pt x="264" y="810" on="0"/>
        <pt x="230" y="846" on="0"/>
        <pt x="230" y="869" on="1"/>
        <pt x="230" y="892" on="0"/>
        <pt x="264" y="927" on="0"/>
      </contour>
    </TTGlyph>
    <TTGlyph name="H" xMin="54" yMin="0" xMax="565" yMax="731">
      <contour>
        <pt x="409" y="319" on="1"/>
        <pt x="210" y="319" on="1"/>
        <pt x="210" y="48" on="1"/>
        <pt x="210" y="24" on="0"/>
        <pt x="161" y="0" on="0"/>
        <pt x="132" y="0" on="1"/>
        <pt x="103" y="0" on="0"/>
        <pt x="54" y="24" on="0"/>
        <pt x="54" y="48" on="1"/>
        <pt x="54" y="684" on="1"/>
        <pt x="54" y="709" on="0"/>
        <pt x="103" y="731" on="0"/>
        <pt x="132" y="731" on="1"/>
        <pt x="161" y="731" on="0"/>
        <pt x="210" y="709" on="0"/>
        <pt x="210" y="684" on="1"/>
        <pt x="210" y="439" on="1"/>
        <pt x="409" y="439" on="1"/>
        <pt x="409" y="684" on="1"/>
        <pt x="409" y="709" on="0"/>
        <pt x="458" y="731" on="0"/>
        <pt x="487" y="731" on="1"/>
        <pt x="516" y="731" on="0"/>
        <pt x="565" y="709" on="0"/>
        <pt x="565" y="684" on="1"/>
        <pt x="565" y="48" on="1"/>
        <pt x="565" y="24" on="0"/>
        <pt x="516" y="0" on="0"/>
        <pt x="487" y="0" on="1"/>
        <pt x="458" y="0" on="0"/>
        <pt x="409" y="24" on="0"/>
        <pt x="409" y="48" on="1"/>
      </contour>
    </TTGlyph>
    <TTGlyph name="Hbar" xMin="15" yMin="0" xMax="607" yMax="731">
      <contour>
        <pt x="411" y="319" on="1"/>
        <pt x="212" y="319" on="1"/>
        <pt x="212" y="48" on="1"/>
        <pt x="212" y="24" on="0"/>
        <pt x="163" y="0" on="0"/>
        <pt x="134" y="0" on="1"/>
        <pt x="105" y="0" on="0"/>
        <pt x="56" y="24" on="0"/>
        <pt x="56" y="48" on="1"/>
        <pt x="56" y="532" on="1"/>
        <pt x="52" y="532" on="1"/>
        <pt x="33" y="532" on="0"/>
        <pt x="15" y="562" on="0"/>
        <pt x="15" y="581" on="1"/>
        <pt x="15" y="599" on="0"/>
        <pt x="33" y="630" on="0"/>
        <pt x="52" y="630" on="1"/>
        <pt x="56" y="630" on="1"/>
        <pt x="56" y="684" on="1"/>
        <pt x="56" y="709" on="0"/>
        <pt x="105" y="731" on="0"/>
        <pt x="134" y="731" on="1"/>
        <pt x="163" y="731" on="0"/>
        <pt x="212" y="709" on="0"/>
        <pt x="212" y="684" on="1"/>
        <pt x="212" y="630" on="1"/>
        <pt x="411" y="630" on="1"/>
        <pt x="411" y="684" on="1"/>
        <pt x="411" y="709" on="0"/>
        <pt x="460" y="731" on="0"/>
        <pt x="489" y="731" on="1"/>
        <pt x="518" y="731" on="0"/>
        <pt x="567" y="709" on="0"/>
        <pt x="567" y="684" on="1"/>
        <pt x="567" y="630" on="1"/>
        <pt x="571" y="630" on="1"/>
        <pt x="590" y="630" on="0"/>
        <pt x="607" y="599" on="0"/>
        <pt x="607" y="581" on="1"/>
        <pt x="607" y="561" on="0"/>
        <pt x="590" y="532" on="0"/>
        <pt x="571" y="532" on="1"/>
        <pt x="567" y="532" on="1"/>
        <pt x="567" y="48" on="1"/>
        <pt x="567" y="24" on="0"/>
        <pt x="518" y="0" on="0"/>
        <pt x="489" y="0" on="1"/>
        <pt x="460" y="0" on="0"/>
        <pt x="411" y="24" on="0"/>
        <pt x="411" y="48" on="1"/>
      </contour>
      <contour>
        <pt x="411" y="439" on="1"/>
        <pt x="411" y="532" on="1"/>
        <pt x="212" y="532" on="1"/>
        <pt x="212" y="439" on="1"/>
      </contour>
    </TTGlyph>
    <TTGlyph name="Hcircumflex" xMin="54" yMin="0" xMax="565" yMax="959">
      <contour>
        <pt x="409" y="319" on="1"/>
        <pt x="210" y="319" on="1"/>
        <pt x="210" y="48" on="1"/>
        <pt x="210" y="24" on="0"/>
        <pt x="161" y="0" on="0"/>
        <pt x="132" y="0" on="1"/>
        <pt x="103" y="0" on="0"/>
        <pt x="54" y="24" on="0"/>
        <pt x="54" y="48" on="1"/>
        <pt x="54" y="684" on="1"/>
        <pt x="54" y="709" on="0"/>
        <pt x="103" y="731" on="0"/>
        <pt x="132" y="731" on="1"/>
        <pt x="161" y="731" on="0"/>
        <pt x="210" y="709" on="0"/>
        <pt x="210" y="684" on="1"/>
        <pt x="210" y="439" on="1"/>
        <pt x="409" y="439" on="1"/>
        <pt x="409" y="684" on="1"/>
        <pt x="409" y="709" on="0"/>
        <pt x="458" y="731" on="0"/>
        <pt x="487" y="731" on="1"/>
        <pt x="516" y="731" on="0"/>
        <pt x="565" y="709" on="0"/>
        <pt x="565" y="684" on="1"/>
        <pt x="565" y="48" on="1"/>
        <pt x="565" y="24" on="0"/>
        <pt x="516" y="0" on="0"/>
        <pt x="487" y="0" on="1"/>
        <pt x="458" y="0" on="0"/>
        <pt x="409" y="24" on="0"/>
        <pt x="409" y="48" on="1"/>
      </contour>
      <contour>
        <pt x="206" y="811" on="1"/>
        <pt x="200" y="808" on="0"/>
        <pt x="195" y="808" on="1"/>
        <pt x="181" y="808" on="0"/>
        <pt x="164" y="837" on="0"/>
        <pt x="164" y="854" on="1"/>
        <pt x="164" y="867" on="0"/>
        <pt x="175" y="890" on="0"/>
        <pt x="189" y="898" on="1"/>
        <pt x="293" y="954" on="1"/>
        <pt x="303" y="959" on="0"/>
        <pt x="310" y="959" on="1"/>
        <pt x="317" y="959" on="0"/>
        <pt x="327" y="954" on="1"/>
        <pt x="431" y="898" on="1"/>
        <pt x="445" y="890" on="0"/>
        <pt x="456" y="867" on="0"/>
        <pt x="456" y="854" on="1"/>
        <pt x="456" y="837" on="0"/>
        <pt x="439" y="808" on="0"/>
        <pt x="425" y="808" on="1"/>
        <pt x="420" y="808" on="0"/>
        <pt x="414" y="811" on="1"/>
        <pt x="310" y="867" on="1"/>
      </contour>
    </TTGlyph>
    <TTGlyph name="I" xMin="54" yMin="0" xMax="210" yMax="731">
      <contour>
        <pt x="54" y="684" on="1"/>
        <pt x="54" y="709" on="0"/>
        <pt x="103" y="731" on="0"/>
        <pt x="132" y="731" on="1"/>
        <pt x="161" y="731" on="0"/>
        <pt x="210" y="709" on="0"/>
        <pt x="210" y="684" on="1"/>
        <pt x="210" y="48" on="1"/>
        <pt x="210" y="24" on="0"/>
        <pt x="161" y="0" on="0"/>
        <pt x="132" y="0" on="1"/>
        <pt x="103" y="0" on="0"/>
        <pt x="54" y="24" on="0"/>
        <pt x="54" y="48" on="1"/>
      </contour>
    </TTGlyph>
    <TTGlyph name="IJ" xMin="54" yMin="-6" xMax="754" yMax="731">
      <contour>
        <pt x="54" y="684" on="1"/>
        <pt x="54" y="709" on="0"/>
        <pt x="103" y="731" on="0"/>
        <pt x="132" y="731" on="1"/>
        <pt x="161" y="731" on="0"/>
        <pt x="210" y="709" on="0"/>
        <pt x="210" y="684" on="1"/>
        <pt x="210" y="48" on="1"/>
        <pt x="210" y="24" on="0"/>
        <pt x="161" y="0" on="0"/>
        <pt x="132" y="0" on="1"/>
        <pt x="103" y="0" on="0"/>
        <pt x="54" y="24" on="0"/>
        <pt x="54" y="48" on="1"/>
      </contour>
      <contour>
        <pt x="511" y="595" on="1"/>
        <pt x="488" y="595" on="0"/>
        <pt x="464" y="636" on="0"/>
        <pt x="464" y="664" on="1"/>
        <pt x="464" y="688" on="0"/>
        <pt x="486" y="731" on="0"/>
        <pt x="511" y="731" on="1"/>
        <pt x="686" y="731" on="1"/>
        <pt x="712" y="731" on="0"/>
        <pt x="754" y="707" on="0"/>
        <pt x="754" y="683" on="1"/>
        <pt x="754" y="230" on="1"/>
        <pt x="754" y="165" on="0"/>
        <pt x="716" y="76" on="0"/>
        <pt x="650" y="19" on="0"/>
        <pt x="563" y="-6" on="0"/>
        <pt x="514" y="-6" on="1"/>
        <pt x="460" y="-6" on="0"/>
        <pt x="369" y="22" on="0"/>
        <pt x="301" y="75" on="0"/>
        <pt x="263" y="153" on="0"/>
        <pt x="263" y="203" on="1"/>
        <pt x="263" y="248" on="0"/>
        <pt x="301" y="277" on="0"/>
        <pt x="342" y="277" on="1"/>
        <pt x="372" y="277" on="0"/>
        <pt x="417" y="258" on="0"/>
        <pt x="419" y="230" on="1"/>
        <pt x="420" y="215" on="0"/>
        <pt x="425" y="180" on="0"/>
        <pt x="443" y="150" on="0"/>
        <pt x="477" y="130" on="0"/>
        <pt x="507" y="130" on="1"/>
        <pt x="551" y="130" on="0"/>
        <pt x="598" y="179" on="0"/>
        <pt x="598" y="230" on="1"/>
        <pt x="598" y="595" on="1"/>
      </contour>
    </TTGlyph>
    <TTGlyph name="Iacute" xMin="31" yMin="0" xMax="252" yMax="959">
      <contour>
        <pt x="54" y="684" on="1"/>
        <pt x="54" y="709" on="0"/>
        <pt x="103" y="731" on="0"/>
        <pt x="132" y="731" on="1"/>
        <pt x="161" y="731" on="0"/>
        <pt x="210" y="709" on="0"/>
        <pt x="210" y="684" on="1"/>
        <pt x="210" y="48" on="1"/>
        <pt x="210" y="24" on="0"/>
        <pt x="161" y="0" on="0"/>
        <pt x="132" y="0" on="1"/>
        <pt x="103" y="0" on="0"/>
        <pt x="54" y="24" on="0"/>
        <pt x="54" y="48" on="1"/>
      </contour>
      <contour>
        <pt x="92" y="802" on="1"/>
        <pt x="82" y="798" on="0"/>
        <pt x="77" y="798" on="1"/>
        <pt x="57" y="798" on="0"/>
        <pt x="31" y="836" on="0"/>
        <pt x="31" y="856" on="1"/>
        <pt x="31" y="881" on="0"/>
        <pt x="51" y="891" on="1"/>
        <pt x="191" y="956" on="1"/>
        <pt x="198" y="959" on="0"/>
        <pt x="205" y="959" on="1"/>
        <pt x="215" y="959" on="0"/>
        <pt x="232" y="948" on="0"/>
        <pt x="245" y="931" on="0"/>
        <pt x="252" y="911" on="0"/>
        <pt x="252" y="901" on="1"/>
        <pt x="252" y="890" on="0"/>
        <pt x="243" y="872" on="0"/>
        <pt x="232" y="867" on="1"/>
      </contour>
    </TTGlyph>
    <TTGlyph name="Ibreve" xMin="-7" yMin="0" xMax="272" yMax="963">
      <contour>
        <pt x="54" y="684" on="1"/>
        <pt x="54" y="709" on="0"/>
        <pt x="103" y="731" on="0"/>
        <pt x="132" y="731" on="1"/>
        <pt x="161" y="731" on="0"/>
        <pt x="210" y="709" on="0"/>
        <pt x="210" y="684" on="1"/>
        <pt x="210" y="48" on="1"/>
        <pt x="210" y="24" on="0"/>
        <pt x="161" y="0" on="0"/>
        <pt x="132" y="0" on="1"/>
        <pt x="103" y="0" on="0"/>
        <pt x="54" y="24" on="0"/>
        <pt x="54" y="48" on="1"/>
      </contour>
      <contour>
        <pt x="272" y="963" on="1"/>
        <pt x="272" y="935" on="0"/>
        <pt x="249" y="885" on="0"/>
        <pt x="210" y="847" on="0"/>
        <pt x="160" y="824" on="0"/>
        <pt x="133" y="824" on="1"/>
        <pt x="106" y="824" on="0"/>
        <pt x="55" y="847" on="0"/>
        <pt x="16" y="885" on="0"/>
        <pt x="-7" y="935" on="0"/>
        <pt x="-7" y="963" on="1"/>
        <pt x="73" y="963" on="1"/>
        <pt x="73" y="931" on="0"/>
        <pt x="111" y="890" on="0"/>
        <pt x="133" y="890" on="1"/>
        <pt x="154" y="890" on="0"/>
        <pt x="192" y="931" on="0"/>
        <pt x="192" y="963" on="1"/>
      </contour>
    </TTGlyph>
    <TTGlyph name="Icircumflex" xMin="-12" yMin="0" xMax="280" yMax="959">
      <contour>
        <pt x="54" y="684" on="1"/>
        <pt x="54" y="709" on="0"/>
        <pt x="103" y="731" on="0"/>
        <pt x="132" y="731" on="1"/>
        <pt x="161" y="731" on="0"/>
        <pt x="210" y="709" on="0"/>
        <pt x="210" y="684" on="1"/>
        <pt x="210" y="48" on="1"/>
        <pt x="210" y="24" on="0"/>
        <pt x="161" y="0" on="0"/>
        <pt x="132" y="0" on="1"/>
        <pt x="103" y="0" on="0"/>
        <pt x="54" y="24" on="0"/>
        <pt x="54" y="48" on="1"/>
      </contour>
      <contour>
        <pt x="30" y="811" on="1"/>
        <pt x="24" y="808" on="0"/>
        <pt x="19" y="808" on="1"/>
        <pt x="5" y="808" on="0"/>
        <pt x="-12" y="837" on="0"/>
        <pt x="-12" y="854" on="1"/>
        <pt x="-12" y="867" on="0"/>
        <pt x="-1" y="890" on="0"/>
        <pt x="13" y="898" on="1"/>
        <pt x="117" y="954" on="1"/>
        <pt x="127" y="959" on="0"/>
        <pt x="134" y="959" on="1"/>
        <pt x="141" y="959" on="0"/>
        <pt x="151" y="954" on="1"/>
        <pt x="255" y="898" on="1"/>
        <pt x="269" y="890" on="0"/>
        <pt x="280" y="867" on="0"/>
        <pt x="280" y="854" on="1"/>
        <pt x="280" y="837" on="0"/>
        <pt x="263" y="808" on="0"/>
        <pt x="249" y="808" on="1"/>
        <pt x="244" y="808" on="0"/>
        <pt x="238" y="811" on="1"/>
        <pt x="134" y="867" on="1"/>
      </contour>
    </TTGlyph>
    <TTGlyph name="Idieresis" xMin="-3" yMin="0" xMax="270" yMax="927">
      <contour>
        <pt x="54" y="684" on="1"/>
        <pt x="54" y="709" on="0"/>
        <pt x="103" y="731" on="0"/>
        <pt x="132" y="731" on="1"/>
        <pt x="161" y="731" on="0"/>
        <pt x="210" y="709" on="0"/>
        <pt x="210" y="684" on="1"/>
        <pt x="210" y="48" on="1"/>
        <pt x="210" y="24" on="0"/>
        <pt x="161" y="0" on="0"/>
        <pt x="132" y="0" on="1"/>
        <pt x="103" y="0" on="0"/>
        <pt x="54" y="24" on="0"/>
        <pt x="54" y="48" on="1"/>
      </contour>
      <contour>
        <pt x="54" y="927" on="1"/>
        <pt x="77" y="927" on="0"/>
        <pt x="110" y="892" on="0"/>
        <pt x="110" y="869" on="1"/>
        <pt x="110" y="846" on="0"/>
        <pt x="77" y="810" on="0"/>
        <pt x="54" y="810" on="1"/>
        <pt x="31" y="810" on="0"/>
        <pt x="-3" y="846" on="0"/>
        <pt x="-3" y="869" on="1"/>
        <pt x="-3" y="892" on="0"/>
        <pt x="31" y="927" on="0"/>
      </contour>
      <contour>
        <pt x="214" y="927" on="1"/>
        <pt x="237" y="927" on="0"/>
        <pt x="270" y="892" on="0"/>
        <pt x="270" y="869" on="1"/>
        <pt x="270" y="846" on="0"/>
        <pt x="237" y="810" on="0"/>
        <pt x="214" y="810" on="1"/>
        <pt x="191" y="810" on="0"/>
        <pt x="157" y="846" on="0"/>
        <pt x="157" y="869" on="1"/>
        <pt x="157" y="892" on="0"/>
        <pt x="191" y="927" on="0"/>
      </contour>
    </TTGlyph>
    <TTGlyph name="Idotaccent" xMin="54" yMin="0" xMax="210" yMax="927">
      <contour>
        <pt x="54" y="684" on="1"/>
        <pt x="54" y="709" on="0"/>
        <pt x="103" y="731" on="0"/>
        <pt x="132" y="731" on="1"/>
        <pt x="161" y="731" on="0"/>
        <pt x="210" y="709" on="0"/>
        <pt x="210" y="684" on="1"/>
        <pt x="210" y="48" on="1"/>
        <pt x="210" y="24" on="0"/>
        <pt x="161" y="0" on="0"/>
        <pt x="132" y="0" on="1"/>
        <pt x="103" y="0" on="0"/>
        <pt x="54" y="24" on="0"/>
        <pt x="54" y="48" on="1"/>
      </contour>
      <contour>
        <pt x="133" y="927" on="1"/>
        <pt x="156" y="927" on="0"/>
        <pt x="189" y="892" on="0"/>
        <pt x="189" y="869" on="1"/>
        <pt x="189" y="846" on="0"/>
        <pt x="156" y="810" on="0"/>
        <pt x="133" y="810" on="1"/>
        <pt x="110" y="810" on="0"/>
        <pt x="76" y="846" on="0"/>
        <pt x="76" y="869" on="1"/>
        <pt x="76" y="892" on="0"/>
        <pt x="110" y="927" on="0"/>
      </contour>
    </TTGlyph>
    <TTGlyph name="Igrave" xMin="13" yMin="0" xMax="234" yMax="959">
      <contour>
        <pt x="54" y="684" on="1"/>
        <pt x="54" y="709" on="0"/>
        <pt x="103" y="731" on="0"/>
        <pt x="132" y="731" on="1"/>
        <pt x="161" y="731" on="0"/>
        <pt x="210" y="709" on="0"/>
        <pt x="210" y="684" on="1"/>
        <pt x="210" y="48" on="1"/>
        <pt x="210" y="24" on="0"/>
        <pt x="161" y="0" on="0"/>
        <pt x="132" y="0" on="1"/>
        <pt x="103" y="0" on="0"/>
        <pt x="54" y="24" on="0"/>
        <pt x="54" y="48" on="1"/>
      </contour>
      <contour>
        <pt x="33" y="867" on="1"/>
        <pt x="22" y="872" on="0"/>
        <pt x="13" y="890" on="0"/>
        <pt x="13" y="901" on="1"/>
        <pt x="13" y="911" on="0"/>
        <pt x="20" y="931" on="0"/>
        <pt x="33" y="948" on="0"/>
        <pt x="50" y="959" on="0"/>
        <pt x="60" y="959" on="1"/>
        <pt x="66" y="959" on="0"/>
        <pt x="74" y="956" on="1"/>
        <pt x="214" y="891" on="1"/>
        <pt x="234" y="881" on="0"/>
        <pt x="234" y="856" on="1"/>
        <pt x="234" y="836" on="0"/>
        <pt x="208" y="798" on="0"/>
        <pt x="188" y="798" on="1"/>
        <pt x="183" y="798" on="0"/>
        <pt x="173" y="802" on="1"/>
      </contour>
    </TTGlyph>
    <TTGlyph name="Imacron" xMin="-16" yMin="0" xMax="279" yMax="938">
      <contour>
        <pt x="54" y="684" on="1"/>
        <pt x="54" y="709" on="0"/>
        <pt x="103" y="731" on="0"/>
        <pt x="132" y="731" on="1"/>
        <pt x="161" y="731" on="0"/>
        <pt x="210" y="709" on="0"/>
        <pt x="210" y="684" on="1"/>
        <pt x="210" y="48" on="1"/>
        <pt x="210" y="24" on="0"/>
        <pt x="161" y="0" on="0"/>
        <pt x="132" y="0" on="1"/>
        <pt x="103" y="0" on="0"/>
        <pt x="54" y="24" on="0"/>
        <pt x="54" y="48" on="1"/>
      </contour>
      <contour>
        <pt x="-16" y="888" on="1"/>
        <pt x="-16" y="909" on="0"/>
        <pt x="10" y="938" on="0"/>
        <pt x="31" y="938" on="1"/>
        <pt x="231" y="938" on="1"/>
        <pt x="249" y="938" on="0"/>
        <pt x="279" y="909" on="0"/>
        <pt x="279" y="888" on="1"/>
        <pt x="279" y="866" on="0"/>
        <pt x="249" y="839" on="0"/>
        <pt x="231" y="839" on="1"/>
        <pt x="31" y="839" on="1"/>
        <pt x="10" y="839" on="0"/>
        <pt x="-16" y="866" on="0"/>
      </contour>
    </TTGlyph>
    <TTGlyph name="Iogonek" xMin="26" yMin="-218" xMax="210" yMax="731">
      <contour>
        <pt x="157" y="-155" on="1"/>
        <pt x="171" y="-155" on="0"/>
        <pt x="182" y="-178" on="0"/>
        <pt x="182" y="-189" on="1"/>
        <pt x="182" y="-200" on="0"/>
        <pt x="171" y="-218" on="0"/>
        <pt x="151" y="-218" on="1"/>
        <pt x="85" y="-218" on="0"/>
        <pt x="26" y="-161" on="0"/>
        <pt x="26" y="-121" on="1"/>
        <pt x="26" y="-89" on="0"/>
        <pt x="60" y="-20" on="0"/>
        <pt x="92" y="6" on="1"/>
        <pt x="75" y="11" on="0"/>
        <pt x="54" y="32" on="0"/>
        <pt x="54" y="48" on="1"/>
        <pt x="54" y="684" on="1"/>
        <pt x="54" y="709" on="0"/>
        <pt x="103" y="731" on="0"/>
        <pt x="132" y="731" on="1"/>
        <pt x="161" y="731" on="0"/>
        <pt x="210" y="709" on="0"/>
        <pt x="210" y="684" on="1"/>
        <pt x="210" y="48" on="1"/>
        <pt x="210" y="33" on="0"/>
        <pt x="190" y="12" on="0"/>
        <pt x="174" y="7" on="1"/>
        <pt x="158" y="-2" on="0"/>
        <pt x="130" y="-30" on="0"/>
        <pt x="110" y="-61" on="0"/>
        <pt x="99" y="-93" on="0"/>
        <pt x="99" y="-107" on="1"/>
        <pt x="99" y="-128" on="0"/>
        <pt x="125" y="-155" on="0"/>
      </contour>
    </TTGlyph>
    <TTGlyph name="Itilde" xMin="-46" yMin="0" xMax="309" yMax="946">
      <contour>
        <pt x="54" y="684" on="1"/>
        <pt x="54" y="709" on="0"/>
        <pt x="103" y="731" on="0"/>
        <pt x="132" y="731" on="1"/>
        <pt x="161" y="731" on="0"/>
        <pt x="210" y="709" on="0"/>
        <pt x="210" y="684" on="1"/>
        <pt x="210" y="48" on="1"/>
        <pt x="210" y="24" on="0"/>
        <pt x="161" y="0" on="0"/>
        <pt x="132" y="0" on="1"/>
        <pt x="103" y="0" on="0"/>
        <pt x="54" y="24" on="0"/>
        <pt x="54" y="48" on="1"/>
      </contour>
      <contour>
        <pt x="78" y="845" on="1"/>
        <pt x="62" y="845" on="0"/>
        <pt x="38" y="838" on="0"/>
        <pt x="18" y="831" on="0"/>
        <pt x="1" y="824" on="0"/>
        <pt x="-8" y="824" on="1"/>
        <pt x="-20" y="824" on="0"/>
        <pt x="-34" y="836" on="0"/>
        <pt x="-43" y="853" on="0"/>
        <pt x="-46" y="869" on="0"/>
        <pt x="-46" y="873" on="1"/>
        <pt x="-46" y="900" on="0"/>
        <pt x="-25" y="929" on="0"/>
        <pt x="4" y="943" on="0"/>
        <pt x="32" y="946" on="0"/>
        <pt x="39" y="946" on="1"/>
        <pt x="62" y="946" on="0"/>
        <pt x="98" y="938" on="0"/>
        <pt x="131" y="927" on="0"/>
        <pt x="164" y="919" on="0"/>
        <pt x="185" y="919" on="1"/>
        <pt x="201" y="919" on="0"/>
        <pt x="225" y="926" on="0"/>
        <pt x="245" y="933" on="0"/>
        <pt x="262" y="940" on="0"/>
        <pt x="271" y="940" on="1"/>
        <pt x="283" y="940" on="0"/>
        <pt x="297" y="927" on="0"/>
        <pt x="306" y="911" on="0"/>
        <pt x="309" y="895" on="0"/>
        <pt x="309" y="891" on="1"/>
        <pt x="309" y="864" on="0"/>
        <pt x="288" y="835" on="0"/>
        <pt x="259" y="821" on="0"/>
        <pt x="231" y="818" on="0"/>
        <pt x="224" y="818" on="1"/>
        <pt x="197" y="818" on="0"/>
        <pt x="159" y="826" on="0"/>
        <pt x="126" y="837" on="0"/>
        <pt x="96" y="845" on="0"/>
      </contour>
    </TTGlyph>
    <TTGlyph name="J" xMin="6" yMin="-6" xMax="497" yMax="731">
      <contour>
        <pt x="254" y="595" on="1"/>
        <pt x="231" y="595" on="0"/>
        <pt x="207" y="636" on="0"/>
        <pt x="207" y="664" on="1"/>
        <pt x="207" y="688" on="0"/>
        <pt x="229" y="731" on="0"/>
        <pt x="254" y="731" on="1"/>
        <pt x="429" y="731" on="1"/>
        <pt x="455" y="731" on="0"/>
        <pt x="497" y="707" on="0"/>
        <pt x="497" y="683" on="1"/>
        <pt x="497" y="230" on="1"/>
        <pt x="497" y="165" on="0"/>
        <pt x="459" y="76" on="0"/>
        <pt x="393" y="19" on="0"/>
        <pt x="306" y="-6" on="0"/>
        <pt x="257" y="-6" on="1"/>
        <pt x="203" y="-6" on="0"/>
        <pt x="112" y="22" on="0"/>
        <pt x="44" y="75" on="0"/>
        <pt x="6" y="153" on="0"/>
        <pt x="6" y="203" on="1"/>
        <pt x="6" y="248" on="0"/>
        <pt x="44" y="277" on="0"/>
        <pt x="85" y="277" on="1"/>
        <pt x="115" y="277" on="0"/>
        <pt x="160" y="258" on="0"/>
        <pt x="162" y="230" on="1"/>
        <pt x="163" y="215" on="0"/>
        <pt x="168" y="180" on="0"/>
        <pt x="186" y="150" on="0"/>
        <pt x="220" y="130" on="0"/>
        <pt x="250" y="130" on="1"/>
        <pt x="294" y="130" on="0"/>
        <pt x="341" y="179" on="0"/>
        <pt x="341" y="230" on="1"/>
        <pt x="341" y="595" on="1"/>
      </contour>
    </TTGlyph>
    <TTGlyph name="Jcircumflex" xMin="6" yMin="-6" xMax="497" yMax="959">
      <contour>
        <pt x="254" y="595" on="1"/>
        <pt x="231" y="595" on="0"/>
        <pt x="207" y="636" on="0"/>
        <pt x="207" y="664" on="1"/>
        <pt x="207" y="688" on="0"/>
        <pt x="229" y="731" on="0"/>
        <pt x="254" y="731" on="1"/>
        <pt x="429" y="731" on="1"/>
        <pt x="455" y="731" on="0"/>
        <pt x="497" y="707" on="0"/>
        <pt x="497" y="683" on="1"/>
        <pt x="497" y="230" on="1"/>
        <pt x="497" y="165" on="0"/>
        <pt x="459" y="76" on="0"/>
        <pt x="393" y="19" on="0"/>
        <pt x="306" y="-6" on="0"/>
        <pt x="257" y="-6" on="1"/>
        <pt x="203" y="-6" on="0"/>
        <pt x="112" y="22" on="0"/>
        <pt x="44" y="75" on="0"/>
        <pt x="6" y="153" on="0"/>
        <pt x="6" y="203" on="1"/>
        <pt x="6" y="248" on="0"/>
        <pt x="44" y="277" on="0"/>
        <pt x="85" y="277" on="1"/>
        <pt x="115" y="277" on="0"/>
        <pt x="160" y="258" on="0"/>
        <pt x="162" y="230" on="1"/>
        <pt x="163" y="215" on="0"/>
        <pt x="168" y="180" on="0"/>
        <pt x="186" y="150" on="0"/>
        <pt x="220" y="130" on="0"/>
        <pt x="250" y="130" on="1"/>
        <pt x="294" y="130" on="0"/>
        <pt x="341" y="179" on="0"/>
        <pt x="341" y="230" on="1"/>
        <pt x="341" y="595" on="1"/>
      </contour>
      <contour>
        <pt x="170" y="811" on="1"/>
        <pt x="164" y="808" on="0"/>
        <pt x="159" y="808" on="1"/>
        <pt x="145" y="808" on="0"/>
        <pt x="128" y="837" on="0"/>
        <pt x="128" y="854" on="1"/>
        <pt x="128" y="867" on="0"/>
        <pt x="139" y="890" on="0"/>
        <pt x="153" y="898" on="1"/>
        <pt x="257" y="954" on="1"/>
        <pt x="267" y="959" on="0"/>
        <pt x="274" y="959" on="1"/>
        <pt x="281" y="959" on="0"/>
        <pt x="291" y="954" on="1"/>
        <pt x="395" y="898" on="1"/>
        <pt x="409" y="890" on="0"/>
        <pt x="420" y="867" on="0"/>
        <pt x="420" y="854" on="1"/>
        <pt x="420" y="837" on="0"/>
        <pt x="403" y="808" on="0"/>
        <pt x="389" y="808" on="1"/>
        <pt x="384" y="808" on="0"/>
        <pt x="378" y="811" on="1"/>
        <pt x="274" y="867" on="1"/>
      </contour>
    </TTGlyph>
    <TTGlyph name="K" xMin="54" yMin="-6" xMax="571" yMax="731">
      <contour>
        <pt x="54" y="684" on="1"/>
        <pt x="54" y="709" on="0"/>
        <pt x="103" y="731" on="0"/>
        <pt x="132" y="731" on="1"/>
        <pt x="161" y="731" on="0"/>
        <pt x="210" y="709" on="0"/>
        <pt x="210" y="684" on="1"/>
        <pt x="210" y="444" on="1"/>
        <pt x="397" y="709" on="1"/>
        <pt x="412" y="731" on="0"/>
        <pt x="438" y="731" on="1"/>
        <pt x="453" y="731" on="0"/>
        <pt x="485" y="717" on="0"/>
        <pt x="512" y="694" on="0"/>
        <pt x="530" y="666" on="0"/>
        <pt x="530" y="651" on="1"/>
        <pt x="530" y="645" on="0"/>
        <pt x="526" y="629" on="0"/>
        <pt x="520" y="621" on="1"/>
        <pt x="356" y="415" on="1"/>
        <pt x="563" y="98" on="1"/>
        <pt x="571" y="85" on="0"/>
        <pt x="571" y="72" on="1"/>
        <pt x="571" y="57" on="0"/>
        <pt x="554" y="29" on="0"/>
        <pt x="527" y="7" on="0"/>
        <pt x="494" y="-6" on="0"/>
        <pt x="477" y="-6" on="1"/>
        <pt x="461" y="-6" on="0"/>
        <pt x="433" y="7" on="0"/>
        <pt x="423" y="23" on="1"/>
        <pt x="252" y="283" on="1"/>
        <pt x="210" y="229" on="1"/>
        <pt x="210" y="48" on="1"/>
        <pt x="210" y="24" on="0"/>
        <pt x="161" y="0" on="0"/>
        <pt x="132" y="0" on="1"/>
        <pt x="103" y="0" on="0"/>
        <pt x="54" y="24" on="0"/>
        <pt x="54" y="48" on="1"/>
      </contour>
    </TTGlyph>
    <TTGlyph name="Kcommaaccent" xMin="54" yMin="-209" xMax="571" yMax="731">
      <contour>
        <pt x="54" y="684" on="1"/>
        <pt x="54" y="709" on="0"/>
        <pt x="103" y="731" on="0"/>
        <pt x="132" y="731" on="1"/>
        <pt x="161" y="731" on="0"/>
        <pt x="210" y="709" on="0"/>
        <pt x="210" y="684" on="1"/>
        <pt x="210" y="444" on="1"/>
        <pt x="397" y="709" on="1"/>
        <pt x="412" y="731" on="0"/>
        <pt x="438" y="731" on="1"/>
        <pt x="453" y="731" on="0"/>
        <pt x="485" y="717" on="0"/>
        <pt x="512" y="694" on="0"/>
        <pt x="530" y="666" on="0"/>
        <pt x="530" y="651" on="1"/>
        <pt x="530" y="645" on="0"/>
        <pt x="526" y="629" on="0"/>
        <pt x="520" y="621" on="1"/>
        <pt x="356" y="415" on="1"/>
        <pt x="563" y="98" on="1"/>
        <pt x="571" y="85" on="0"/>
        <pt x="571" y="72" on="1"/>
        <pt x="571" y="57" on="0"/>
        <pt x="554" y="29" on="0"/>
        <pt x="527" y="7" on="0"/>
        <pt x="494" y="-6" on="0"/>
        <pt x="477" y="-6" on="1"/>
        <pt x="461" y="-6" on="0"/>
        <pt x="433" y="7" on="0"/>
        <pt x="423" y="23" on="1"/>
        <pt x="252" y="283" on="1"/>
        <pt x="210" y="229" on="1"/>
        <pt x="210" y="48" on="1"/>
        <pt x="210" y="24" on="0"/>
        <pt x="161" y="0" on="0"/>
        <pt x="132" y="0" on="1"/>
        <pt x="103" y="0" on="0"/>
        <pt x="54" y="24" on="0"/>
        <pt x="54" y="48" on="1"/>
      </contour>
      <contour>
        <pt x="238" y="-205" on="1"/>
        <pt x="228" y="-209" on="0"/>
        <pt x="223" y="-209" on="1"/>
        <pt x="203" y="-209" on="0"/>
        <pt x="177" y="-171" on="0"/>
        <pt x="177" y="-151" on="1"/>
        <pt x="177" y="-126" on="0"/>
        <pt x="197" y="-116" on="1"/>
        <pt x="337" y="-51" on="1"/>
        <pt x="344" y="-48" on="0"/>
        <pt x="351" y="-48" on="1"/>
        <pt x="361" y="-48" on="0"/>
        <pt x="378" y="-59" on="0"/>
        <pt x="391" y="-76" on="0"/>
        <pt x="398" y="-96" on="0"/>
        <pt x="398" y="-106" on="1"/>
        <pt x="398" y="-117" on="0"/>
        <pt x="389" y="-135" on="0"/>
        <pt x="378" y="-140" on="1"/>
      </contour>
    </TTGlyph>
    <TTGlyph name="L" xMin="54" yMin="0" xMax="483" yMax="731">
      <contour>
        <pt x="122" y="0" on="1"/>
        <pt x="96" y="0" on="0"/>
        <pt x="54" y="24" on="0"/>
        <pt x="54" y="48" on="1"/>
        <pt x="54" y="684" on="1"/>
        <pt x="54" y="709" on="0"/>
        <pt x="103" y="731" on="0"/>
        <pt x="132" y="731" on="1"/>
        <pt x="161" y="731" on="0"/>
        <pt x="210" y="709" on="0"/>
        <pt x="210" y="684" on="1"/>
        <pt x="210" y="136" on="1"/>
        <pt x="438" y="136" on="1"/>
        <pt x="461" y="136" on="0"/>
        <pt x="483" y="94" on="0"/>
        <pt x="483" y="68" on="1"/>
        <pt x="483" y="42" on="0"/>
        <pt x="461" y="0" on="0"/>
        <pt x="438" y="0" on="1"/>
      </contour>
    </TTGlyph>
    <TTGlyph name="Lacute" xMin="54" yMin="0" xMax="483" yMax="959">
      <contour>
        <pt x="122" y="0" on="1"/>
        <pt x="96" y="0" on="0"/>
        <pt x="54" y="24" on="0"/>
        <pt x="54" y="48" on="1"/>
        <pt x="54" y="684" on="1"/>
        <pt x="54" y="709" on="0"/>
        <pt x="103" y="731" on="0"/>
        <pt x="132" y="731" on="1"/>
        <pt x="161" y="731" on="0"/>
        <pt x="210" y="709" on="0"/>
        <pt x="210" y="684" on="1"/>
        <pt x="210" y="136" on="1"/>
        <pt x="438" y="136" on="1"/>
        <pt x="461" y="136" on="0"/>
        <pt x="483" y="94" on="0"/>
        <pt x="483" y="68" on="1"/>
        <pt x="483" y="42" on="0"/>
        <pt x="461" y="0" on="0"/>
        <pt x="438" y="0" on="1"/>
      </contour>
      <contour>
        <pt x="207" y="802" on="1"/>
        <pt x="197" y="798" on="0"/>
        <pt x="192" y="798" on="1"/>
        <pt x="172" y="798" on="0"/>
        <pt x="146" y="836" on="0"/>
        <pt x="146" y="856" on="1"/>
        <pt x="146" y="881" on="0"/>
        <pt x="166" y="891" on="1"/>
        <pt x="306" y="956" on="1"/>
        <pt x="313" y="959" on="0"/>
        <pt x="320" y="959" on="1"/>
        <pt x="330" y="959" on="0"/>
        <pt x="347" y="948" on="0"/>
        <pt x="360" y="931" on="0"/>
        <pt x="367" y="911" on="0"/>
        <pt x="367" y="901" on="1"/>
        <pt x="367" y="890" on="0"/>
        <pt x="358" y="872" on="0"/>
        <pt x="347" y="867" on="1"/>
      </contour>
    </TTGlyph>
    <TTGlyph name="Lcaron" xMin="54" yMin="0" xMax="483" yMax="741">
      <contour>
        <pt x="122" y="0" on="1"/>
        <pt x="96" y="0" on="0"/>
        <pt x="54" y="24" on="0"/>
        <pt x="54" y="48" on="1"/>
        <pt x="54" y="684" on="1"/>
        <pt x="54" y="709" on="0"/>
        <pt x="103" y="731" on="0"/>
        <pt x="132" y="731" on="1"/>
        <pt x="161" y="731" on="0"/>
        <pt x="210" y="709" on="0"/>
        <pt x="210" y="684" on="1"/>
        <pt x="210" y="136" on="1"/>
        <pt x="438" y="136" on="1"/>
        <pt x="461" y="136" on="0"/>
        <pt x="483" y="94" on="0"/>
        <pt x="483" y="68" on="1"/>
        <pt x="483" y="42" on="0"/>
        <pt x="461" y="0" on="0"/>
        <pt x="438" y="0" on="1"/>
      </contour>
      <contour>
        <pt x="389" y="741" on="1"/>
        <pt x="421" y="741" on="0"/>
        <pt x="466" y="696" on="0"/>
        <pt x="466" y="665" on="1"/>
        <pt x="466" y="660" on="0"/>
        <pt x="463" y="648" on="0"/>
        <pt x="451" y="616" on="0"/>
        <pt x="426" y="556" on="0"/>
        <pt x="404" y="505" on="1"/>
        <pt x="399" y="494" on="0"/>
        <pt x="382" y="487" on="0"/>
        <pt x="374" y="487" on="1"/>
        <pt x="358" y="487" on="0"/>
        <pt x="324" y="507" on="0"/>
        <pt x="324" y="526" on="1"/>
        <pt x="324" y="534" on="0"/>
        <pt x="328" y="542" on="1"/>
        <pt x="353" y="596" on="1"/>
        <pt x="335" y="607" on="0"/>
        <pt x="313" y="642" on="0"/>
        <pt x="313" y="664" on="1"/>
        <pt x="313" y="696" on="0"/>
        <pt x="357" y="741" on="0"/>
      </contour>
    </TTGlyph>
    <TTGlyph name="Lcommaaccent" xMin="54" yMin="-209" xMax="483" yMax="731">
      <contour>
        <pt x="122" y="0" on="1"/>
        <pt x="96" y="0" on="0"/>
        <pt x="54" y="24" on="0"/>
        <pt x="54" y="48" on="1"/>
        <pt x="54" y="684" on="1"/>
        <pt x="54" y="709" on="0"/>
        <pt x="103" y="731" on="0"/>
        <pt x="132" y="731" on="1"/>
        <pt x="161" y="731" on="0"/>
        <pt x="210" y="709" on="0"/>
        <pt x="210" y="684" on="1"/>
        <pt x="210" y="136" on="1"/>
        <pt x="438" y="136" on="1"/>
        <pt x="461" y="136" on="0"/>
        <pt x="483" y="94" on="0"/>
        <pt x="483" y="68" on="1"/>
        <pt x="483" y="42" on="0"/>
        <pt x="461" y="0" on="0"/>
        <pt x="438" y="0" on="1"/>
      </contour>
      <contour>
        <pt x="211" y="-205" on="1"/>
        <pt x="201" y="-209" on="0"/>
        <pt x="196" y="-209" on="1"/>
        <pt x="176" y="-209" on="0"/>
        <pt x="150" y="-171" on="0"/>
        <pt x="150" y="-151" on="1"/>
        <pt x="150" y="-126" on="0"/>
        <pt x="170" y="-116" on="1"/>
        <pt x="310" y="-51" on="1"/>
        <pt x="317" y="-48" on="0"/>
        <pt x="324" y="-48" on="1"/>
        <pt x="334" y="-48" on="0"/>
        <pt x="351" y="-59" on="0"/>
        <pt x="364" y="-76" on="0"/>
        <pt x="371" y="-96" on="0"/>
        <pt x="371" y="-106" on="1"/>
        <pt x="371" y="-117" on="0"/>
        <pt x="362" y="-135" on="0"/>
        <pt x="351" y="-140" on="1"/>
      </contour>
    </TTGlyph>
    <TTGlyph name="Ldot" xMin="54" yMin="0" xMax="483" yMax="731">
      <contour>
        <pt x="122" y="0" on="1"/>
        <pt x="96" y="0" on="0"/>
        <pt x="54" y="24" on="0"/>
        <pt x="54" y="48" on="1"/>
        <pt x="54" y="684" on="1"/>
        <pt x="54" y="709" on="0"/>
        <pt x="103" y="731" on="0"/>
        <pt x="132" y="731" on="1"/>
        <pt x="161" y="731" on="0"/>
        <pt x="210" y="709" on="0"/>
        <pt x="210" y="684" on="1"/>
        <pt x="210" y="136" on="1"/>
        <pt x="438" y="136" on="1"/>
        <pt x="461" y="136" on="0"/>
        <pt x="483" y="94" on="0"/>
        <pt x="483" y="68" on="1"/>
        <pt x="483" y="42" on="0"/>
        <pt x="461" y="0" on="0"/>
        <pt x="438" y="0" on="1"/>
      </contour>
      <contour>
        <pt x="382" y="492" on="1"/>
        <pt x="416" y="492" on="0"/>
        <pt x="463" y="450" on="0"/>
        <pt x="463" y="421" on="1"/>
        <pt x="463" y="392" on="0"/>
        <pt x="416" y="349" on="0"/>
        <pt x="382" y="349" on="1"/>
        <pt x="347" y="349" on="0"/>
        <pt x="300" y="392" on="0"/>
        <pt x="300" y="421" on="1"/>
        <pt x="300" y="450" on="0"/>
        <pt x="347" y="492" on="0"/>
      </contour>
    </TTGlyph>
    <TTGlyph name="Lslash" xMin="-10" yMin="0" xMax="489" yMax="731">
      <contour>
        <pt x="128" y="0" on="1"/>
        <pt x="102" y="0" on="0"/>
        <pt x="60" y="24" on="0"/>
        <pt x="60" y="48" on="1"/>
        <pt x="60" y="253" on="1"/>
        <pt x="55" y="251" on="1"/>
        <pt x="49" y="248" on="0"/>
        <pt x="42" y="248" on="1"/>
        <pt x="31" y="248" on="0"/>
        <pt x="13" y="261" on="0"/>
        <pt x="-2" y="280" on="0"/>
        <pt x="-10" y="305" on="0"/>
        <pt x="-10" y="317" on="1"/>
        <pt x="-10" y="328" on="0"/>
        <pt x="-2" y="346" on="0"/>
        <pt x="8" y="351" on="1"/>
        <pt x="60" y="375" on="1"/>
        <pt x="60" y="684" on="1"/>
        <pt x="60" y="709" on="0"/>
        <pt x="109" y="731" on="0"/>
        <pt x="138" y="731" on="1"/>
        <pt x="167" y="731" on="0"/>
        <pt x="216" y="709" on="0"/>
        <pt x="216" y="684" on="1"/>
        <pt x="216" y="448" on="1"/>
        <pt x="261" y="469" on="1"/>
        <pt x="267" y="472" on="0"/>
        <pt x="273" y="472" on="1"/>
        <pt x="284" y="472" on="0"/>
        <pt x="303" y="459" on="0"/>
        <pt x="318" y="438" on="0"/>
        <pt x="327" y="414" on="0"/>
        <pt x="327" y="403" on="1"/>
        <pt x="327" y="378" on="0"/>
        <pt x="308" y="369" on="1"/>
        <pt x="216" y="326" on="1"/>
        <pt x="216" y="136" on="1"/>
        <pt x="444" y="136" on="1"/>
        <pt x="467" y="136" on="0"/>
        <pt x="489" y="94" on="0"/>
        <pt x="489" y="68" on="1"/>
        <pt x="489" y="42" on="0"/>
        <pt x="467" y="0" on="0"/>
        <pt x="444" y="0" on="1"/>
      </contour>
    </TTGlyph>
    <TTGlyph name="M" xMin="54" yMin="0" xMax="658" yMax="731">
      <contour>
        <pt x="406" y="259" on="1"/>
        <pt x="396" y="242" on="0"/>
        <pt x="368" y="230" on="0"/>
        <pt x="354" y="230" on="1"/>
        <pt x="340" y="230" on="0"/>
        <pt x="314" y="242" on="0"/>
        <pt x="305" y="259" on="1"/>
        <pt x="210" y="433" on="1"/>
        <pt x="210" y="48" on="1"/>
        <pt x="210" y="24" on="0"/>
        <pt x="161" y="0" on="0"/>
        <pt x="132" y="0" on="1"/>
        <pt x="103" y="0" on="0"/>
        <pt x="54" y="24" on="0"/>
        <pt x="54" y="48" on="1"/>
        <pt x="54" y="653" on="1"/>
        <pt x="54" y="674" on="0"/>
        <pt x="67" y="704" on="0"/>
        <pt x="89" y="723" on="0"/>
        <pt x="117" y="731" on="0"/>
        <pt x="132" y="731" on="1"/>
        <pt x="153" y="731" on="0"/>
        <pt x="185" y="727" on="0"/>
        <pt x="212" y="711" on="0"/>
        <pt x="238" y="680" on="0"/>
        <pt x="253" y="653" on="1"/>
        <pt x="356" y="473" on="1"/>
        <pt x="459" y="653" on="1"/>
        <pt x="474" y="680" on="0"/>
        <pt x="500" y="711" on="0"/>
        <pt x="527" y="727" on="0"/>
        <pt x="559" y="731" on="0"/>
        <pt x="580" y="731" on="1"/>
        <pt x="610" y="731" on="0"/>
        <pt x="658" y="696" on="0"/>
        <pt x="658" y="653" on="1"/>
        <pt x="658" y="48" on="1"/>
        <pt x="658" y="24" on="0"/>
        <pt x="609" y="0" on="0"/>
        <pt x="580" y="0" on="1"/>
        <pt x="551" y="0" on="0"/>
        <pt x="502" y="24" on="0"/>
        <pt x="502" y="48" on="1"/>
        <pt x="502" y="423" on="1"/>
      </contour>
    </TTGlyph>
    <TTGlyph name="N" xMin="54" yMin="0" xMax="565" yMax="731">
      <contour>
        <pt x="487" y="0" on="1"/>
        <pt x="460" y="0" on="0"/>
        <pt x="414" y="16" on="0"/>
        <pt x="400" y="42" on="1"/>
        <pt x="210" y="388" on="1"/>
        <pt x="210" y="48" on="1"/>
        <pt x="210" y="24" on="0"/>
        <pt x="161" y="0" on="0"/>
        <pt x="132" y="0" on="1"/>
        <pt x="103" y="0" on="0"/>
        <pt x="54" y="24" on="0"/>
        <pt x="54" y="48" on="1"/>
        <pt x="54" y="683" on="1"/>
        <pt x="54" y="708" on="0"/>
        <pt x="103" y="731" on="0"/>
        <pt x="132" y="731" on="1"/>
        <pt x="153" y="731" on="0"/>
        <pt x="183" y="727" on="0"/>
        <pt x="209" y="712" on="0"/>
        <pt x="233" y="680" on="0"/>
        <pt x="247" y="653" on="1"/>
        <pt x="409" y="344" on="1"/>
        <pt x="409" y="684" on="1"/>
        <pt x="409" y="709" on="0"/>
        <pt x="458" y="731" on="0"/>
        <pt x="487" y="731" on="1"/>
        <pt x="516" y="731" on="0"/>
        <pt x="565" y="709" on="0"/>
        <pt x="565" y="684" on="1"/>
        <pt x="565" y="48" on="1"/>
        <pt x="565" y="24" on="0"/>
        <pt x="516" y="0" on="0"/>
      </contour>
    </TTGlyph>
    <TTGlyph name="Nacute" xMin="54" yMin="0" xMax="565" yMax="959">
      <contour>
        <pt x="487" y="0" on="1"/>
        <pt x="460" y="0" on="0"/>
        <pt x="414" y="16" on="0"/>
        <pt x="400" y="42" on="1"/>
        <pt x="210" y="388" on="1"/>
        <pt x="210" y="48" on="1"/>
        <pt x="210" y="24" on="0"/>
        <pt x="161" y="0" on="0"/>
        <pt x="132" y="0" on="1"/>
        <pt x="103" y="0" on="0"/>
        <pt x="54" y="24" on="0"/>
        <pt x="54" y="48" on="1"/>
        <pt x="54" y="683" on="1"/>
        <pt x="54" y="708" on="0"/>
        <pt x="103" y="731" on="0"/>
        <pt x="132" y="731" on="1"/>
        <pt x="153" y="731" on="0"/>
        <pt x="183" y="727" on="0"/>
        <pt x="209" y="712" on="0"/>
        <pt x="233" y="680" on="0"/>
        <pt x="247" y="653" on="1"/>
        <pt x="409" y="344" on="1"/>
        <pt x="409" y="684" on="1"/>
        <pt x="409" y="709" on="0"/>
        <pt x="458" y="731" on="0"/>
        <pt x="487" y="731" on="1"/>
        <pt x="516" y="731" on="0"/>
        <pt x="565" y="709" on="0"/>
        <pt x="565" y="684" on="1"/>
        <pt x="565" y="48" on="1"/>
        <pt x="565" y="24" on="0"/>
        <pt x="516" y="0" on="0"/>
      </contour>
      <contour>
        <pt x="246" y="802" on="1"/>
        <pt x="236" y="798" on="0"/>
        <pt x="231" y="798" on="1"/>
        <pt x="211" y="798" on="0"/>
        <pt x="185" y="836" on="0"/>
        <pt x="185" y="856" on="1"/>
        <pt x="185" y="881" on="0"/>
        <pt x="205" y="891" on="1"/>
        <pt x="345" y="956" on="1"/>
        <pt x="352" y="959" on="0"/>
        <pt x="359" y="959" on="1"/>
        <pt x="369" y="959" on="0"/>
        <pt x="386" y="948" on="0"/>
        <pt x="399" y="931" on="0"/>
        <pt x="406" y="911" on="0"/>
        <pt x="406" y="901" on="1"/>
        <pt x="406" y="890" on="0"/>
        <pt x="397" y="872" on="0"/>
        <pt x="386" y="867" on="1"/>
      </contour>
    </TTGlyph>
    <TTGlyph name="Ncaron" xMin="54" yMin="0" xMax="565" yMax="971">
      <contour>
        <pt x="487" y="0" on="1"/>
        <pt x="460" y="0" on="0"/>
        <pt x="414" y="16" on="0"/>
        <pt x="400" y="42" on="1"/>
        <pt x="210" y="388" on="1"/>
        <pt x="210" y="48" on="1"/>
        <pt x="210" y="24" on="0"/>
        <pt x="161" y="0" on="0"/>
        <pt x="132" y="0" on="1"/>
        <pt x="103" y="0" on="0"/>
        <pt x="54" y="24" on="0"/>
        <pt x="54" y="48" on="1"/>
        <pt x="54" y="683" on="1"/>
        <pt x="54" y="708" on="0"/>
        <pt x="103" y="731" on="0"/>
        <pt x="132" y="731" on="1"/>
        <pt x="153" y="731" on="0"/>
        <pt x="183" y="727" on="0"/>
        <pt x="209" y="712" on="0"/>
        <pt x="233" y="680" on="0"/>
        <pt x="247" y="653" on="1"/>
        <pt x="409" y="344" on="1"/>
        <pt x="409" y="684" on="1"/>
        <pt x="409" y="709" on="0"/>
        <pt x="458" y="731" on="0"/>
        <pt x="487" y="731" on="1"/>
        <pt x="516" y="731" on="0"/>
        <pt x="565" y="709" on="0"/>
        <pt x="565" y="684" on="1"/>
        <pt x="565" y="48" on="1"/>
        <pt x="565" y="24" on="0"/>
        <pt x="516" y="0" on="0"/>
      </contour>
      <contour>
        <pt x="310" y="912" on="1"/>
        <pt x="414" y="968" on="1"/>
        <pt x="420" y="971" on="0"/>
        <pt x="425" y="971" on="1"/>
        <pt x="439" y="971" on="0"/>
        <pt x="456" y="942" on="0"/>
        <pt x="456" y="925" on="1"/>
        <pt x="456" y="912" on="0"/>
        <pt x="445" y="889" on="0"/>
        <pt x="431" y="881" on="1"/>
        <pt x="327" y="825" on="1"/>
        <pt x="317" y="820" on="0"/>
        <pt x="310" y="820" on="1"/>
        <pt x="303" y="820" on="0"/>
        <pt x="293" y="825" on="1"/>
        <pt x="189" y="881" on="1"/>
        <pt x="175" y="889" on="0"/>
        <pt x="164" y="912" on="0"/>
        <pt x="164" y="925" on="1"/>
        <pt x="164" y="942" on="0"/>
        <pt x="181" y="971" on="0"/>
        <pt x="195" y="971" on="1"/>
        <pt x="200" y="971" on="0"/>
        <pt x="206" y="968" on="1"/>
      </contour>
    </TTGlyph>
    <TTGlyph name="Ncommaaccent" xMin="54" yMin="-209" xMax="565" yMax="731">
      <contour>
        <pt x="487" y="0" on="1"/>
        <pt x="460" y="0" on="0"/>
        <pt x="414" y="16" on="0"/>
        <pt x="400" y="42" on="1"/>
        <pt x="210" y="388" on="1"/>
        <pt x="210" y="48" on="1"/>
        <pt x="210" y="24" on="0"/>
        <pt x="161" y="0" on="0"/>
        <pt x="132" y="0" on="1"/>
        <pt x="103" y="0" on="0"/>
        <pt x="54" y="24" on="0"/>
        <pt x="54" y="48" on="1"/>
        <pt x="54" y="683" on="1"/>
        <pt x="54" y="708" on="0"/>
        <pt x="103" y="731" on="0"/>
        <pt x="132" y="731" on="1"/>
        <pt x="153" y="731" on="0"/>
        <pt x="183" y="727" on="0"/>
        <pt x="209" y="712" on="0"/>
        <pt x="233" y="680" on="0"/>
        <pt x="247" y="653" on="1"/>
        <pt x="409" y="344" on="1"/>
        <pt x="409" y="684" on="1"/>
        <pt x="409" y="709" on="0"/>
        <pt x="458" y="731" on="0"/>
        <pt x="487" y="731" on="1"/>
        <pt x="516" y="731" on="0"/>
        <pt x="565" y="709" on="0"/>
        <pt x="565" y="684" on="1"/>
        <pt x="565" y="48" on="1"/>
        <pt x="565" y="24" on="0"/>
        <pt x="516" y="0" on="0"/>
      </contour>
      <contour>
        <pt x="260" y="-205" on="1"/>
        <pt x="250" y="-209" on="0"/>
        <pt x="245" y="-209" on="1"/>
        <pt x="225" y="-209" on="0"/>
        <pt x="199" y="-171" on="0"/>
        <pt x="199" y="-151" on="1"/>
        <pt x="199" y="-126" on="0"/>
        <pt x="219" y="-116" on="1"/>
        <pt x="359" y="-51" on="1"/>
        <pt x="366" y="-48" on="0"/>
        <pt x="373" y="-48" on="1"/>
        <pt x="383" y="-48" on="0"/>
        <pt x="400" y="-59" on="0"/>
        <pt x="413" y="-76" on="0"/>
        <pt x="420" y="-96" on="0"/>
        <pt x="420" y="-106" on="1"/>
        <pt x="420" y="-117" on="0"/>
        <pt x="411" y="-135" on="0"/>
        <pt x="400" y="-140" on="1"/>
      </contour>
    </TTGlyph>
    <TTGlyph name="Ntilde" xMin="54" yMin="0" xMax="565" yMax="946">
      <contour>
        <pt x="487" y="0" on="1"/>
        <pt x="460" y="0" on="0"/>
        <pt x="414" y="16" on="0"/>
        <pt x="400" y="42" on="1"/>
        <pt x="210" y="388" on="1"/>
        <pt x="210" y="48" on="1"/>
        <pt x="210" y="24" on="0"/>
        <pt x="161" y="0" on="0"/>
        <pt x="132" y="0" on="1"/>
        <pt x="103" y="0" on="0"/>
        <pt x="54" y="24" on="0"/>
        <pt x="54" y="48" on="1"/>
        <pt x="54" y="683" on="1"/>
        <pt x="54" y="708" on="0"/>
        <pt x="103" y="731" on="0"/>
        <pt x="132" y="731" on="1"/>
        <pt x="153" y="731" on="0"/>
        <pt x="183" y="727" on="0"/>
        <pt x="209" y="712" on="0"/>
        <pt x="233" y="680" on="0"/>
        <pt x="247" y="653" on="1"/>
        <pt x="409" y="344" on="1"/>
        <pt x="409" y="684" on="1"/>
        <pt x="409" y="709" on="0"/>
        <pt x="458" y="731" on="0"/>
        <pt x="487" y="731" on="1"/>
        <pt x="516" y="731" on="0"/>
        <pt x="565" y="709" on="0"/>
        <pt x="565" y="684" on="1"/>
        <pt x="565" y="48" on="1"/>
        <pt x="565" y="24" on="0"/>
        <pt x="516" y="0" on="0"/>
      </contour>
      <contour>
        <pt x="247" y="845" on="1"/>
        <pt x="231" y="845" on="0"/>
        <pt x="207" y="838" on="0"/>
        <pt x="187" y="831" on="0"/>
        <pt x="170" y="824" on="0"/>
        <pt x="161" y="824" on="1"/>
        <pt x="149" y="824" on="0"/>
        <pt x="135" y="836" on="0"/>
        <pt x="126" y="853" on="0"/>
        <pt x="123" y="869" on="0"/>
        <pt x="123" y="873" on="1"/>
        <pt x="123" y="900" on="0"/>
        <pt x="144" y="929" on="0"/>
        <pt x="173" y="943" on="0"/>
        <pt x="201" y="946" on="0"/>
        <pt x="208" y="946" on="1"/>
        <pt x="231" y="946" on="0"/>
        <pt x="267" y="938" on="0"/>
        <pt x="300" y="927" on="0"/>
        <pt x="333" y="919" on="0"/>
        <pt x="354" y="919" on="1"/>
        <pt x="370" y="919" on="0"/>
        <pt x="394" y="926" on="0"/>
        <pt x="414" y="933" on="0"/>
        <pt x="431" y="940" on="0"/>
        <pt x="440" y="940" on="1"/>
        <pt x="452" y="940" on="0"/>
        <pt x="466" y="927" on="0"/>
        <pt x="475" y="911" on="0"/>
        <pt x="478" y="895" on="0"/>
        <pt x="478" y="891" on="1"/>
        <pt x="478" y="864" on="0"/>
        <pt x="457" y="835" on="0"/>
        <pt x="428" y="821" on="0"/>
        <pt x="400" y="818" on="0"/>
        <pt x="393" y="818" on="1"/>
        <pt x="366" y="818" on="0"/>
        <pt x="328" y="826" on="0"/>
        <pt x="295" y="837" on="0"/>
        <pt x="265" y="845" on="0"/>
      </contour>
    </TTGlyph>
    <TTGlyph name="O" xMin="46" yMin="-6" xMax="537" yMax="731">
      <contour>
        <pt x="291" y="-6" on="1"/>
        <pt x="239" y="-6" on="0"/>
        <pt x="150" y="19" on="0"/>
        <pt x="84" y="76" on="0"/>
        <pt x="46" y="165" on="0"/>
        <pt x="46" y="230" on="1"/>
        <pt x="46" y="495" on="1"/>
        <pt x="46" y="559" on="0"/>
        <pt x="84" y="649" on="0"/>
        <pt x="150" y="706" on="0"/>
        <pt x="239" y="731" on="0"/>
        <pt x="291" y="731" on="1"/>
        <pt x="343" y="731" on="0"/>
        <pt x="433" y="706" on="0"/>
        <pt x="499" y="649" on="0"/>
        <pt x="537" y="559" on="0"/>
        <pt x="537" y="495" on="1"/>
        <pt x="537" y="230" on="1"/>
        <pt x="537" y="165" on="0"/>
        <pt x="499" y="76" on="0"/>
        <pt x="433" y="19" on="0"/>
        <pt x="343" y="-6" on="0"/>
      </contour>
      <contour>
        <pt x="381" y="495" on="1"/>
        <pt x="381" y="547" on="0"/>
        <pt x="333" y="595" on="0"/>
        <pt x="291" y="595" on="1"/>
        <pt x="249" y="595" on="0"/>
        <pt x="202" y="547" on="0"/>
        <pt x="202" y="495" on="1"/>
        <pt x="202" y="230" on="1"/>
        <pt x="202" y="178" on="0"/>
        <pt x="249" y="130" on="0"/>
        <pt x="291" y="130" on="1"/>
        <pt x="333" y="130" on="0"/>
        <pt x="381" y="178" on="0"/>
        <pt x="381" y="230" on="1"/>
      </contour>
    </TTGlyph>
    <TTGlyph name="OE" xMin="47" yMin="-6" xMax="812" yMax="731">
      <contour>
        <pt x="262" y="-6" on="1"/>
        <pt x="215" y="-6" on="0"/>
        <pt x="136" y="19" on="0"/>
        <pt x="79" y="76" on="0"/>
        <pt x="47" y="165" on="0"/>
        <pt x="47" y="230" on="1"/>
        <pt x="47" y="495" on="1"/>
        <pt x="47" y="559" on="0"/>
        <pt x="79" y="649" on="0"/>
        <pt x="136" y="706" on="0"/>
        <pt x="215" y="731" on="0"/>
        <pt x="262" y="731" on="1"/>
        <pt x="302" y="731" on="0"/>
        <pt x="384" y="694" on="0"/>
        <pt x="403" y="657" on="1"/>
        <pt x="403" y="683" on="1"/>
        <pt x="403" y="707" on="0"/>
        <pt x="445" y="731" on="0"/>
        <pt x="471" y="731" on="1"/>
        <pt x="765" y="731" on="1"/>
        <pt x="790" y="731" on="0"/>
        <pt x="812" y="688" on="0"/>
        <pt x="812" y="664" on="1"/>
        <pt x="812" y="636" on="0"/>
        <pt x="788" y="595" on="0"/>
        <pt x="765" y="595" on="1"/>
        <pt x="539" y="595" on="1"/>
        <pt x="539" y="426" on="1"/>
        <pt x="647" y="426" on="1"/>
        <pt x="670" y="426" on="0"/>
        <pt x="694" y="389" on="0"/>
        <pt x="694" y="365" on="1"/>
        <pt x="694" y="345" on="0"/>
        <pt x="672" y="306" on="0"/>
        <pt x="647" y="306" on="1"/>
        <pt x="539" y="306" on="1"/>
        <pt x="539" y="136" on="1"/>
        <pt x="765" y="136" on="1"/>
        <pt x="788" y="136" on="0"/>
        <pt x="812" y="95" on="0"/>
        <pt x="812" y="67" on="1"/>
        <pt x="812" y="43" on="0"/>
        <pt x="790" y="0" on="0"/>
        <pt x="765" y="0" on="1"/>
        <pt x="471" y="0" on="1"/>
        <pt x="445" y="0" on="0"/>
        <pt x="403" y="24" on="0"/>
        <pt x="403" y="48" on="1"/>
        <pt x="403" y="68" on="1"/>
        <pt x="394" y="49" on="0"/>
        <pt x="362" y="21" on="0"/>
        <pt x="324" y="3" on="0"/>
        <pt x="282" y="-6" on="0"/>
      </contour>
      <contour>
        <pt x="382" y="495" on="1"/>
        <pt x="382" y="547" on="0"/>
        <pt x="334" y="595" on="0"/>
        <pt x="292" y="595" on="1"/>
        <pt x="250" y="595" on="0"/>
        <pt x="203" y="547" on="0"/>
        <pt x="203" y="495" on="1"/>
        <pt x="203" y="230" on="1"/>
        <pt x="203" y="178" on="0"/>
        <pt x="250" y="130" on="0"/>
        <pt x="292" y="130" on="1"/>
        <pt x="334" y="130" on="0"/>
        <pt x="382" y="178" on="0"/>
        <pt x="382" y="230" on="1"/>
      </contour>
    </TTGlyph>
    <TTGlyph name="Oacute" xMin="46" yMin="-6" xMax="537" yMax="959">
      <contour>
        <pt x="291" y="-6" on="1"/>
        <pt x="239" y="-6" on="0"/>
        <pt x="150" y="19" on="0"/>
        <pt x="84" y="76" on="0"/>
        <pt x="46" y="165" on="0"/>
        <pt x="46" y="230" on="1"/>
        <pt x="46" y="495" on="1"/>
        <pt x="46" y="559" on="0"/>
        <pt x="84" y="649" on="0"/>
        <pt x="150" y="706" on="0"/>
        <pt x="239" y="731" on="0"/>
        <pt x="291" y="731" on="1"/>
        <pt x="343" y="731" on="0"/>
        <pt x="433" y="706" on="0"/>
        <pt x="499" y="649" on="0"/>
        <pt x="537" y="559" on="0"/>
        <pt x="537" y="495" on="1"/>
        <pt x="537" y="230" on="1"/>
        <pt x="537" y="165" on="0"/>
        <pt x="499" y="76" on="0"/>
        <pt x="433" y="19" on="0"/>
        <pt x="343" y="-6" on="0"/>
      </contour>
      <contour>
        <pt x="381" y="495" on="1"/>
        <pt x="381" y="547" on="0"/>
        <pt x="333" y="595" on="0"/>
        <pt x="291" y="595" on="1"/>
        <pt x="249" y="595" on="0"/>
        <pt x="202" y="547" on="0"/>
        <pt x="202" y="495" on="1"/>
        <pt x="202" y="230" on="1"/>
        <pt x="202" y="178" on="0"/>
        <pt x="249" y="130" on="0"/>
        <pt x="291" y="130" on="1"/>
        <pt x="333" y="130" on="0"/>
        <pt x="381" y="178" on="0"/>
        <pt x="381" y="230" on="1"/>
      </contour>
      <contour>
        <pt x="286" y="802" on="1"/>
        <pt x="276" y="798" on="0"/>
        <pt x="271" y="798" on="1"/>
        <pt x="251" y="798" on="0"/>
        <pt x="225" y="836" on="0"/>
        <pt x="225" y="856" on="1"/>
        <pt x="225" y="881" on="0"/>
        <pt x="245" y="891" on="1"/>
        <pt x="385" y="956" on="1"/>
        <pt x="392" y="959" on="0"/>
        <pt x="399" y="959" on="1"/>
        <pt x="409" y="959" on="0"/>
        <pt x="426" y="948" on="0"/>
        <pt x="439" y="931" on="0"/>
        <pt x="446" y="911" on="0"/>
        <pt x="446" y="901" on="1"/>
        <pt x="446" y="890" on="0"/>
        <pt x="437" y="872" on="0"/>
        <pt x="426" y="867" on="1"/>
      </contour>
    </TTGlyph>
    <TTGlyph name="Obreve" xMin="46" yMin="-6" xMax="537" yMax="963">
      <contour>
        <pt x="291" y="-6" on="1"/>
        <pt x="239" y="-6" on="0"/>
        <pt x="150" y="19" on="0"/>
        <pt x="84" y="76" on="0"/>
        <pt x="46" y="165" on="0"/>
        <pt x="46" y="230" on="1"/>
        <pt x="46" y="495" on="1"/>
        <pt x="46" y="559" on="0"/>
        <pt x="84" y="649" on="0"/>
        <pt x="150" y="706" on="0"/>
        <pt x="239" y="731" on="0"/>
        <pt x="291" y="731" on="1"/>
        <pt x="343" y="731" on="0"/>
        <pt x="433" y="706" on="0"/>
        <pt x="499" y="649" on="0"/>
        <pt x="537" y="559" on="0"/>
        <pt x="537" y="495" on="1"/>
        <pt x="537" y="230" on="1"/>
        <pt x="537" y="165" on="0"/>
        <pt x="499" y="76" on="0"/>
        <pt x="433" y="19" on="0"/>
        <pt x="343" y="-6" on="0"/>
      </contour>
      <contour>
        <pt x="381" y="495" on="1"/>
        <pt x="381" y="547" on="0"/>
        <pt x="333" y="595" on="0"/>
        <pt x="291" y="595" on="1"/>
        <pt x="249" y="595" on="0"/>
        <pt x="202" y="547" on="0"/>
        <pt x="202" y="495" on="1"/>
        <pt x="202" y="230" on="1"/>
        <pt x="202" y="178" on="0"/>
        <pt x="249" y="130" on="0"/>
        <pt x="291" y="130" on="1"/>
        <pt x="333" y="130" on="0"/>
        <pt x="381" y="178" on="0"/>
        <pt x="381" y="230" on="1"/>
      </contour>
      <contour>
        <pt x="430" y="963" on="1"/>
        <pt x="430" y="935" on="0"/>
        <pt x="407" y="885" on="0"/>
        <pt x="368" y="847" on="0"/>
        <pt x="318" y="824" on="0"/>
        <pt x="291" y="824" on="1"/>
        <pt x="264" y="824" on="0"/>
        <pt x="213" y="847" on="0"/>
        <pt x="174" y="885" on="0"/>
        <pt x="151" y="935" on="0"/>
        <pt x="151" y="963" on="1"/>
        <pt x="231" y="963" on="1"/>
        <pt x="231" y="931" on="0"/>
        <pt x="269" y="890" on="0"/>
        <pt x="291" y="890" on="1"/>
        <pt x="312" y="890" on="0"/>
        <pt x="350" y="931" on="0"/>
        <pt x="350" y="963" on="1"/>
      </contour>
    </TTGlyph>
    <TTGlyph name="Ocircumflex" xMin="46" yMin="-6" xMax="537" yMax="959">
      <contour>
        <pt x="291" y="-6" on="1"/>
        <pt x="239" y="-6" on="0"/>
        <pt x="150" y="19" on="0"/>
        <pt x="84" y="76" on="0"/>
        <pt x="46" y="165" on="0"/>
        <pt x="46" y="230" on="1"/>
        <pt x="46" y="495" on="1"/>
        <pt x="46" y="559" on="0"/>
        <pt x="84" y="649" on="0"/>
        <pt x="150" y="706" on="0"/>
        <pt x="239" y="731" on="0"/>
        <pt x="291" y="731" on="1"/>
        <pt x="343" y="731" on="0"/>
        <pt x="433" y="706" on="0"/>
        <pt x="499" y="649" on="0"/>
        <pt x="537" y="559" on="0"/>
        <pt x="537" y="495" on="1"/>
        <pt x="537" y="230" on="1"/>
        <pt x="537" y="165" on="0"/>
        <pt x="499" y="76" on="0"/>
        <pt x="433" y="19" on="0"/>
        <pt x="343" y="-6" on="0"/>
      </contour>
      <contour>
        <pt x="381" y="495" on="1"/>
        <pt x="381" y="547" on="0"/>
        <pt x="333" y="595" on="0"/>
        <pt x="291" y="595" on="1"/>
        <pt x="249" y="595" on="0"/>
        <pt x="202" y="547" on="0"/>
        <pt x="202" y="495" on="1"/>
        <pt x="202" y="230" on="1"/>
        <pt x="202" y="178" on="0"/>
        <pt x="249" y="130" on="0"/>
        <pt x="291" y="130" on="1"/>
        <pt x="333" y="130" on="0"/>
        <pt x="381" y="178" on="0"/>
        <pt x="381" y="230" on="1"/>
      </contour>
      <contour>
        <pt x="187" y="811" on="1"/>
        <pt x="181" y="808" on="0"/>
        <pt x="176" y="808" on="1"/>
        <pt x="162" y="808" on="0"/>
        <pt x="145" y="837" on="0"/>
        <pt x="145" y="854" on="1"/>
        <pt x="145" y="867" on="0"/>
        <pt x="156" y="890" on="0"/>
        <pt x="170" y="898" on="1"/>
        <pt x="274" y="954" on="1"/>
        <pt x="284" y="959" on="0"/>
        <pt x="291" y="959" on="1"/>
        <pt x="298" y="959" on="0"/>
        <pt x="308" y="954" on="1"/>
        <pt x="412" y="898" on="1"/>
        <pt x="426" y="890" on="0"/>
        <pt x="437" y="867" on="0"/>
        <pt x="437" y="854" on="1"/>
        <pt x="437" y="837" on="0"/>
        <pt x="420" y="808" on="0"/>
        <pt x="406" y="808" on="1"/>
        <pt x="401" y="808" on="0"/>
        <pt x="395" y="811" on="1"/>
        <pt x="291" y="867" on="1"/>
      </contour>
    </TTGlyph>
    <TTGlyph name="Odieresis" xMin="46" yMin="-6" xMax="537" yMax="927">
      <contour>
        <pt x="291" y="-6" on="1"/>
        <pt x="239" y="-6" on="0"/>
        <pt x="150" y="19" on="0"/>
        <pt x="84" y="76" on="0"/>
        <pt x="46" y="165" on="0"/>
        <pt x="46" y="230" on="1"/>
        <pt x="46" y="495" on="1"/>
        <pt x="46" y="559" on="0"/>
        <pt x="84" y="649" on="0"/>
        <pt x="150" y="706" on="0"/>
        <pt x="239" y="731" on="0"/>
        <pt x="291" y="731" on="1"/>
        <pt x="343" y="731" on="0"/>
        <pt x="433" y="706" on="0"/>
        <pt x="499" y="649" on="0"/>
        <pt x="537" y="559" on="0"/>
        <pt x="537" y="495" on="1"/>
        <pt x="537" y="230" on="1"/>
        <pt x="537" y="165" on="0"/>
        <pt x="499" y="76" on="0"/>
        <pt x="433" y="19" on="0"/>
        <pt x="343" y="-6" on="0"/>
      </contour>
      <contour>
        <pt x="381" y="495" on="1"/>
        <pt x="381" y="547" on="0"/>
        <pt x="333" y="595" on="0"/>
        <pt x="291" y="595" on="1"/>
        <pt x="249" y="595" on="0"/>
        <pt x="202" y="547" on="0"/>
        <pt x="202" y="495" on="1"/>
        <pt x="202" y="230" on="1"/>
        <pt x="202" y="178" on="0"/>
        <pt x="249" y="130" on="0"/>
        <pt x="291" y="130" on="1"/>
        <pt x="333" y="130" on="0"/>
        <pt x="381" y="178" on="0"/>
        <pt x="381" y="230" on="1"/>
      </contour>
      <contour>
        <pt x="213" y="927" on="1"/>
        <pt x="236" y="927" on="0"/>
        <pt x="269" y="892" on="0"/>
        <pt x="269" y="869" on="1"/>
        <pt x="269" y="846" on="0"/>
        <pt x="236" y="810" on="0"/>
        <pt x="213" y="810" on="1"/>
        <pt x="190" y="810" on="0"/>
        <pt x="156" y="846" on="0"/>
        <pt x="156" y="869" on="1"/>
        <pt x="156" y="892" on="0"/>
        <pt x="190" y="927" on="0"/>
      </contour>
      <contour>
        <pt x="373" y="927" on="1"/>
        <pt x="396" y="927" on="0"/>
        <pt x="429" y="892" on="0"/>
        <pt x="429" y="869" on="1"/>
        <pt x="429" y="846" on="0"/>
        <pt x="396" y="810" on="0"/>
        <pt x="373" y="810" on="1"/>
        <pt x="350" y="810" on="0"/>
        <pt x="316" y="846" on="0"/>
        <pt x="316" y="869" on="1"/>
        <pt x="316" y="892" on="0"/>
        <pt x="350" y="927" on="0"/>
      </contour>
    </TTGlyph>
    <TTGlyph name="Ograve" xMin="46" yMin="-6" xMax="537" yMax="959">
      <contour>
        <pt x="291" y="-6" on="1"/>
        <pt x="239" y="-6" on="0"/>
        <pt x="150" y="19" on="0"/>
        <pt x="84" y="76" on="0"/>
        <pt x="46" y="165" on="0"/>
        <pt x="46" y="230" on="1"/>
        <pt x="46" y="495" on="1"/>
        <pt x="46" y="559" on="0"/>
        <pt x="84" y="649" on="0"/>
        <pt x="150" y="706" on="0"/>
        <pt x="239" y="731" on="0"/>
        <pt x="291" y="731" on="1"/>
        <pt x="343" y="731" on="0"/>
        <pt x="433" y="706" on="0"/>
        <pt x="499" y="649" on="0"/>
        <pt x="537" y="559" on="0"/>
        <pt x="537" y="495" on="1"/>
        <pt x="537" y="230" on="1"/>
        <pt x="537" y="165" on="0"/>
        <pt x="499" y="76" on="0"/>
        <pt x="433" y="19" on="0"/>
        <pt x="343" y="-6" on="0"/>
      </contour>
      <contour>
        <pt x="381" y="495" on="1"/>
        <pt x="381" y="547" on="0"/>
        <pt x="333" y="595" on="0"/>
        <pt x="291" y="595" on="1"/>
        <pt x="249" y="595" on="0"/>
        <pt x="202" y="547" on="0"/>
        <pt x="202" y="495" on="1"/>
        <pt x="202" y="230" on="1"/>
        <pt x="202" y="178" on="0"/>
        <pt x="249" y="130" on="0"/>
        <pt x="291" y="130" on="1"/>
        <pt x="333" y="130" on="0"/>
        <pt x="381" y="178" on="0"/>
        <pt x="381" y="230" on="1"/>
      </contour>
      <contour>
        <pt x="185" y="867" on="1"/>
        <pt x="174" y="872" on="0"/>
        <pt x="165" y="890" on="0"/>
        <pt x="165" y="901" on="1"/>
        <pt x="165" y="911" on="0"/>
        <pt x="172" y="931" on="0"/>
        <pt x="185" y="948" on="0"/>
        <pt x="202" y="959" on="0"/>
        <pt x="212" y="959" on="1"/>
        <pt x="218" y="959" on="0"/>
        <pt x="226" y="956" on="1"/>
        <pt x="366" y="891" on="1"/>
        <pt x="386" y="881" on="0"/>
        <pt x="386" y="856" on="1"/>
        <pt x="386" y="836" on="0"/>
        <pt x="360" y="798" on="0"/>
        <pt x="340" y="798" on="1"/>
        <pt x="335" y="798" on="0"/>
        <pt x="325" y="802" on="1"/>
      </contour>
    </TTGlyph>
    <TTGlyph name="Ohungarumlaut" xMin="46" yMin="-6" xMax="537" yMax="961">
      <contour>
        <pt x="291" y="-6" on="1"/>
        <pt x="239" y="-6" on="0"/>
        <pt x="150" y="19" on="0"/>
        <pt x="84" y="76" on="0"/>
        <pt x="46" y="165" on="0"/>
        <pt x="46" y="230" on="1"/>
        <pt x="46" y="495" on="1"/>
        <pt x="46" y="559" on="0"/>
        <pt x="84" y="649" on="0"/>
        <pt x="150" y="706" on="0"/>
        <pt x="239" y="731" on="0"/>
        <pt x="291" y="731" on="1"/>
        <pt x="343" y="731" on="0"/>
        <pt x="433" y="706" on="0"/>
        <pt x="499" y="649" on="0"/>
        <pt x="537" y="559" on="0"/>
        <pt x="537" y="495" on="1"/>
        <pt x="537" y="230" on="1"/>
        <pt x="537" y="165" on="0"/>
        <pt x="499" y="76" on="0"/>
        <pt x="433" y="19" on="0"/>
        <pt x="343" y="-6" on="0"/>
      </contour>
      <contour>
        <pt x="381" y="495" on="1"/>
        <pt x="381" y="547" on="0"/>
        <pt x="333" y="595" on="0"/>
        <pt x="291" y="595" on="1"/>
        <pt x="249" y="595" on="0"/>
        <pt x="202" y="547" on="0"/>
        <pt x="202" y="495" on="1"/>
        <pt x="202" y="230" on="1"/>
        <pt x="202" y="178" on="0"/>
        <pt x="249" y="130" on="0"/>
        <pt x="291" y="130" on="1"/>
        <pt x="333" y="130" on="0"/>
        <pt x="381" y="178" on="0"/>
        <pt x="381" y="230" on="1"/>
      </contour>
      <contour>
        <pt x="229" y="806" on="1"/>
        <pt x="221" y="795" on="0"/>
        <pt x="208" y="795" on="1"/>
        <pt x="191" y="795" on="0"/>
        <pt x="162" y="824" on="0"/>
        <pt x="162" y="839" on="1"/>
        <pt x="162" y="848" on="0"/>
        <pt x="169" y="856" on="1"/>
        <pt x="248" y="951" on="1"/>
        <pt x="253" y="957" on="0"/>
        <pt x="264" y="961" on="0"/>
        <pt x="270" y="961" on="1"/>
        <pt x="286" y="961" on="0"/>
        <pt x="314" y="932" on="0"/>
        <pt x="314" y="918" on="1"/>
        <pt x="314" y="908" on="0"/>
        <pt x="308" y="901" on="1"/>
      </contour>
      <contour>
        <pt x="389" y="806" on="1"/>
        <pt x="381" y="795" on="0"/>
        <pt x="368" y="795" on="1"/>
        <pt x="351" y="795" on="0"/>
        <pt x="322" y="824" on="0"/>
        <pt x="322" y="839" on="1"/>
        <pt x="322" y="848" on="0"/>
        <pt x="329" y="856" on="1"/>
        <pt x="408" y="951" on="1"/>
        <pt x="413" y="957" on="0"/>
        <pt x="424" y="961" on="0"/>
        <pt x="430" y="961" on="1"/>
        <pt x="446" y="961" on="0"/>
        <pt x="474" y="932" on="0"/>
        <pt x="474" y="918" on="1"/>
        <pt x="474" y="908" on="0"/>
        <pt x="468" y="901" on="1"/>
      </contour>
    </TTGlyph>
    <TTGlyph name="Omacron" xMin="46" yMin="-6" xMax="537" yMax="938">
      <contour>
        <pt x="291" y="-6" on="1"/>
        <pt x="239" y="-6" on="0"/>
        <pt x="150" y="19" on="0"/>
        <pt x="84" y="76" on="0"/>
        <pt x="46" y="165" on="0"/>
        <pt x="46" y="230" on="1"/>
        <pt x="46" y="495" on="1"/>
        <pt x="46" y="559" on="0"/>
        <pt x="84" y="649" on="0"/>
        <pt x="150" y="706" on="0"/>
        <pt x="239" y="731" on="0"/>
        <pt x="291" y="731" on="1"/>
        <pt x="343" y="731" on="0"/>
        <pt x="433" y="706" on="0"/>
        <pt x="499" y="649" on="0"/>
        <pt x="537" y="559" on="0"/>
        <pt x="537" y="495" on="1"/>
        <pt x="537" y="230" on="1"/>
        <pt x="537" y="165" on="0"/>
        <pt x="499" y="76" on="0"/>
        <pt x="433" y="19" on="0"/>
        <pt x="343" y="-6" on="0"/>
      </contour>
      <contour>
        <pt x="381" y="495" on="1"/>
        <pt x="381" y="547" on="0"/>
        <pt x="333" y="595" on="0"/>
        <pt x="291" y="595" on="1"/>
        <pt x="249" y="595" on="0"/>
        <pt x="202" y="547" on="0"/>
        <pt x="202" y="495" on="1"/>
        <pt x="202" y="230" on="1"/>
        <pt x="202" y="178" on="0"/>
        <pt x="249" y="130" on="0"/>
        <pt x="291" y="130" on="1"/>
        <pt x="333" y="130" on="0"/>
        <pt x="381" y="178" on="0"/>
        <pt x="381" y="230" on="1"/>
      </contour>
      <contour>
        <pt x="144" y="888" on="1"/>
        <pt x="144" y="909" on="0"/>
        <pt x="170" y="938" on="0"/>
        <pt x="191" y="938" on="1"/>
        <pt x="391" y="938" on="1"/>
        <pt x="409" y="938" on="0"/>
        <pt x="439" y="909" on="0"/>
        <pt x="439" y="888" on="1"/>
        <pt x="439" y="866" on="0"/>
        <pt x="409" y="839" on="0"/>
        <pt x="391" y="839" on="1"/>
        <pt x="191" y="839" on="1"/>
        <pt x="170" y="839" on="0"/>
        <pt x="144" y="866" on="0"/>
      </contour>
    </TTGlyph>
    <TTGlyph name="Omega" xMin="35" yMin="0" xMax="549" yMax="731">
      <contour>
        <pt x="320" y="275" on="1"/>
        <pt x="381" y="288" on="0"/>
        <pt x="381" y="370" on="1"/>
        <pt x="381" y="495" on="1"/>
        <pt x="381" y="547" on="0"/>
        <pt x="334" y="595" on="0"/>
        <pt x="292" y="595" on="1"/>
        <pt x="250" y="595" on="0"/>
        <pt x="203" y="547" on="0"/>
        <pt x="203" y="495" on="1"/>
        <pt x="203" y="370" on="1"/>
        <pt x="203" y="327" on="0"/>
        <pt x="233" y="275" on="0"/>
        <pt x="264" y="275" on="1"/>
        <pt x="264" y="0" on="1"/>
        <pt x="82" y="0" on="1"/>
        <pt x="61" y="0" on="0"/>
        <pt x="35" y="39" on="0"/>
        <pt x="35" y="68" on="1"/>
        <pt x="35" y="98" on="0"/>
        <pt x="63" y="135" on="0"/>
        <pt x="82" y="135" on="1"/>
        <pt x="179" y="135" on="1"/>
        <pt x="179" y="147" on="1"/>
        <pt x="119" y="168" on="0"/>
        <pt x="47" y="275" on="0"/>
        <pt x="47" y="370" on="1"/>
        <pt x="47" y="495" on="1"/>
        <pt x="47" y="559" on="0"/>
        <pt x="85" y="649" on="0"/>
        <pt x="151" y="706" on="0"/>
        <pt x="240" y="731" on="0"/>
        <pt x="292" y="731" on="1"/>
        <pt x="344" y="731" on="0"/>
        <pt x="433" y="706" on="0"/>
        <pt x="499" y="649" on="0"/>
        <pt x="537" y="559" on="0"/>
        <pt x="537" y="495" on="1"/>
        <pt x="537" y="370" on="1"/>
        <pt x="537" y="276" on="0"/>
        <pt x="463" y="167" on="0"/>
        <pt x="405" y="147" on="1"/>
        <pt x="405" y="135" on="1"/>
        <pt x="502" y="135" on="1"/>
        <pt x="521" y="135" on="0"/>
        <pt x="549" y="98" on="0"/>
        <pt x="549" y="68" on="1"/>
        <pt x="549" y="39" on="0"/>
        <pt x="523" y="0" on="0"/>
        <pt x="502" y="0" on="1"/>
        <pt x="320" y="0" on="1"/>
      </contour>
    </TTGlyph>
    <TTGlyph name="Oslash" xMin="46" yMin="-46" xMax="537" yMax="772">
      <contour>
        <pt x="464" y="772" on="1"/>
        <pt x="485" y="772" on="0"/>
        <pt x="523" y="743" on="0"/>
        <pt x="523" y="719" on="1"/>
        <pt x="523" y="708" on="0"/>
        <pt x="519" y="700" on="1"/>
        <pt x="493" y="648" on="1"/>
        <pt x="514" y="620" on="0"/>
        <pt x="537" y="545" on="0"/>
        <pt x="537" y="495" on="1"/>
        <pt x="537" y="230" on="1"/>
        <pt x="537" y="165" on="0"/>
        <pt x="499" y="76" on="0"/>
        <pt x="433" y="19" on="0"/>
        <pt x="343" y="-6" on="0"/>
        <pt x="291" y="-6" on="1"/>
        <pt x="230" y="-6" on="0"/>
        <pt x="182" y="10" on="1"/>
        <pt x="167" y="-21" on="1"/>
        <pt x="162" y="-32" on="0"/>
        <pt x="136" y="-46" on="0"/>
        <pt x="122" y="-46" on="1"/>
        <pt x="96" y="-46" on="0"/>
        <pt x="66" y="-12" on="0"/>
        <pt x="66" y="7" on="1"/>
        <pt x="66" y="16" on="0"/>
        <pt x="71" y="26" on="1"/>
        <pt x="93" y="71" on="1"/>
        <pt x="70" y="99" on="0"/>
        <pt x="46" y="177" on="0"/>
        <pt x="46" y="230" on="1"/>
        <pt x="46" y="495" on="1"/>
        <pt x="46" y="559" on="0"/>
        <pt x="84" y="649" on="0"/>
        <pt x="150" y="706" on="0"/>
        <pt x="239" y="731" on="0"/>
        <pt x="291" y="731" on="1"/>
        <pt x="355" y="731" on="0"/>
        <pt x="405" y="712" on="1"/>
        <pt x="422" y="747" on="1"/>
        <pt x="428" y="760" on="0"/>
        <pt x="450" y="772" on="0"/>
      </contour>
      <contour>
        <pt x="202" y="295" on="1"/>
        <pt x="342" y="583" on="1"/>
        <pt x="321" y="595" on="0"/>
        <pt x="291" y="595" on="1"/>
        <pt x="249" y="595" on="0"/>
        <pt x="202" y="547" on="0"/>
        <pt x="202" y="495" on="1"/>
      </contour>
      <contour>
        <pt x="381" y="417" on="1"/>
        <pt x="245" y="139" on="1"/>
        <pt x="264" y="130" on="0"/>
        <pt x="291" y="130" on="1"/>
        <pt x="333" y="130" on="0"/>
        <pt x="381" y="178" on="0"/>
        <pt x="381" y="230" on="1"/>
      </contour>
    </TTGlyph>
    <TTGlyph name="Oslashacute" xMin="46" yMin="-46" xMax="537" yMax="959">
      <contour>
        <pt x="464" y="772" on="1"/>
        <pt x="485" y="772" on="0"/>
        <pt x="523" y="743" on="0"/>
        <pt x="523" y="719" on="1"/>
        <pt x="523" y="708" on="0"/>
        <pt x="519" y="700" on="1"/>
        <pt x="493" y="648" on="1"/>
        <pt x="514" y="620" on="0"/>
        <pt x="537" y="545" on="0"/>
        <pt x="537" y="495" on="1"/>
        <pt x="537" y="230" on="1"/>
        <pt x="537" y="165" on="0"/>
        <pt x="499" y="76" on="0"/>
        <pt x="433" y="19" on="0"/>
        <pt x="343" y="-6" on="0"/>
        <pt x="291" y="-6" on="1"/>
        <pt x="230" y="-6" on="0"/>
        <pt x="182" y="10" on="1"/>
        <pt x="167" y="-21" on="1"/>
        <pt x="162" y="-32" on="0"/>
        <pt x="136" y="-46" on="0"/>
        <pt x="122" y="-46" on="1"/>
        <pt x="96" y="-46" on="0"/>
        <pt x="66" y="-12" on="0"/>
        <pt x="66" y="7" on="1"/>
        <pt x="66" y="16" on="0"/>
        <pt x="71" y="26" on="1"/>
        <pt x="93" y="71" on="1"/>
        <pt x="70" y="99" on="0"/>
        <pt x="46" y="177" on="0"/>
        <pt x="46" y="230" on="1"/>
        <pt x="46" y="495" on="1"/>
        <pt x="46" y="559" on="0"/>
        <pt x="84" y="649" on="0"/>
        <pt x="150" y="706" on="0"/>
        <pt x="239" y="731" on="0"/>
        <pt x="291" y="731" on="1"/>
        <pt x="355" y="731" on="0"/>
        <pt x="405" y="712" on="1"/>
        <pt x="422" y="747" on="1"/>
        <pt x="428" y="760" on="0"/>
        <pt x="450" y="772" on="0"/>
      </contour>
      <contour>
        <pt x="266" y="802" on="1"/>
        <pt x="256" y="798" on="0"/>
        <pt x="251" y="798" on="1"/>
        <pt x="231" y="798" on="0"/>
        <pt x="205" y="836" on="0"/>
        <pt x="205" y="856" on="1"/>
        <pt x="205" y="881" on="0"/>
        <pt x="225" y="891" on="1"/>
        <pt x="365" y="956" on="1"/>
        <pt x="372" y="959" on="0"/>
        <pt x="379" y="959" on="1"/>
        <pt x="389" y="959" on="0"/>
        <pt x="406" y="948" on="0"/>
        <pt x="419" y="931" on="0"/>
        <pt x="426" y="911" on="0"/>
        <pt x="426" y="901" on="1"/>
        <pt x="426" y="890" on="0"/>
        <pt x="417" y="872" on="0"/>
        <pt x="406" y="867" on="1"/>
      </contour>
      <contour>
        <pt x="202" y="295" on="1"/>
        <pt x="342" y="583" on="1"/>
        <pt x="321" y="595" on="0"/>
        <pt x="291" y="595" on="1"/>
        <pt x="249" y="595" on="0"/>
        <pt x="202" y="547" on="0"/>
        <pt x="202" y="495" on="1"/>
      </contour>
      <contour>
        <pt x="381" y="417" on="1"/>
        <pt x="245" y="139" on="1"/>
        <pt x="264" y="130" on="0"/>
        <pt x="291" y="130" on="1"/>
        <pt x="333" y="130" on="0"/>
        <pt x="381" y="178" on="0"/>
        <pt x="381" y="230" on="1"/>
      </contour>
    </TTGlyph>
    <TTGlyph name="Otilde" xMin="46" yMin="-6" xMax="537" yMax="946">
      <contour>
        <pt x="291" y="-6" on="1"/>
        <pt x="239" y="-6" on="0"/>
        <pt x="150" y="19" on="0"/>
        <pt x="84" y="76" on="0"/>
        <pt x="46" y="165" on="0"/>
        <pt x="46" y="230" on="1"/>
        <pt x="46" y="495" on="1"/>
        <pt x="46" y="559" on="0"/>
        <pt x="84" y="649" on="0"/>
        <pt x="150" y="706" on="0"/>
        <pt x="239" y="731" on="0"/>
        <pt x="291" y="731" on="1"/>
        <pt x="343" y="731" on="0"/>
        <pt x="433" y="706" on="0"/>
        <pt x="499" y="649" on="0"/>
        <pt x="537" y="559" on="0"/>
        <pt x="537" y="495" on="1"/>
        <pt x="537" y="230" on="1"/>
        <pt x="537" y="165" on="0"/>
        <pt x="499" y="76" on="0"/>
        <pt x="433" y="19" on="0"/>
        <pt x="343" y="-6" on="0"/>
      </contour>
      <contour>
        <pt x="381" y="495" on="1"/>
        <pt x="381" y="547" on="0"/>
        <pt x="333" y="595" on="0"/>
        <pt x="291" y="595" on="1"/>
        <pt x="249" y="595" on="0"/>
        <pt x="202" y="547" on="0"/>
        <pt x="202" y="495" on="1"/>
        <pt x="202" y="230" on="1"/>
        <pt x="202" y="178" on="0"/>
        <pt x="249" y="130" on="0"/>
        <pt x="291" y="130" on="1"/>
        <pt x="333" y="130" on="0"/>
        <pt x="381" y="178" on="0"/>
        <pt x="381" y="230" on="1"/>
      </contour>
      <contour>
        <pt x="238" y="845" on="1"/>
        <pt x="222" y="845" on="0"/>
        <pt x="198" y="838" on="0"/>
        <pt x="178" y="831" on="0"/>
        <pt x="161" y="824" on="0"/>
        <pt x="152" y="824" on="1"/>
        <pt x="140" y="824" on="0"/>
        <pt x="126" y="836" on="0"/>
        <pt x="117" y="853" on="0"/>
        <pt x="114" y="869" on="0"/>
        <pt x="114" y="873" on="1"/>
        <pt x="114" y="900" on="0"/>
        <pt x="135" y="929" on="0"/>
        <pt x="164" y="943" on="0"/>
        <pt x="192" y="946" on="0"/>
        <pt x="199" y="946" on="1"/>
        <pt x="222" y="946" on="0"/>
        <pt x="258" y="938" on="0"/>
        <pt x="291" y="927" on="0"/>
        <pt x="324" y="919" on="0"/>
        <pt x="345" y="919" on="1"/>
        <pt x="361" y="919" on="0"/>
        <pt x="385" y="926" on="0"/>
        <pt x="405" y="933" on="0"/>
        <pt x="422" y="940" on="0"/>
        <pt x="431" y="940" on="1"/>
        <pt x="443" y="940" on="0"/>
        <pt x="457" y="927" on="0"/>
        <pt x="466" y="911" on="0"/>
        <pt x="469" y="895" on="0"/>
        <pt x="469" y="891" on="1"/>
        <pt x="469" y="864" on="0"/>
        <pt x="448" y="835" on="0"/>
        <pt x="419" y="821" on="0"/>
        <pt x="391" y="818" on="0"/>
        <pt x="384" y="818" on="1"/>
        <pt x="357" y="818" on="0"/>
        <pt x="319" y="826" on="0"/>
        <pt x="286" y="837" on="0"/>
        <pt x="256" y="845" on="0"/>
      </contour>
    </TTGlyph>
    <TTGlyph name="P" xMin="54" yMin="0" xMax="555" yMax="731">
      <contour>
        <pt x="54" y="684" on="1"/>
        <pt x="54" y="703" on="0"/>
        <pt x="86" y="731" on="0"/>
        <pt x="112" y="731" on="1"/>
        <pt x="319" y="731" on="1"/>
        <pt x="368" y="731" on="0"/>
        <pt x="455" y="706" on="0"/>
        <pt x="518" y="652" on="0"/>
        <pt x="555" y="564" on="0"/>
        <pt x="555" y="501" on="1"/>
        <pt x="555" y="496" on="1"/>
        <pt x="555" y="433" on="0"/>
        <pt x="517" y="345" on="0"/>
        <pt x="451" y="289" on="0"/>
        <pt x="361" y="264" on="0"/>
        <pt x="309" y="264" on="1"/>
        <pt x="210" y="264" on="1"/>
        <pt x="210" y="48" on="1"/>
        <pt x="210" y="24" on="0"/>
        <pt x="161" y="0" on="0"/>
        <pt x="132" y="0" on="1"/>
        <pt x="103" y="0" on="0"/>
        <pt x="54" y="24" on="0"/>
        <pt x="54" y="48" on="1"/>
      </contour>
      <contour>
        <pt x="210" y="595" on="1"/>
        <pt x="210" y="384" on="1"/>
        <pt x="309" y="384" on="1"/>
        <pt x="351" y="384" on="0"/>
        <pt x="399" y="433" on="0"/>
        <pt x="399" y="484" on="1"/>
        <pt x="399" y="495" on="1"/>
        <pt x="399" y="546" on="0"/>
        <pt x="351" y="595" on="0"/>
        <pt x="309" y="595" on="1"/>
      </contour>
    </TTGlyph>
    <TTGlyph name="Q" xMin="46" yMin="-109" xMax="537" yMax="731">
      <contour>
        <pt x="291" y="-109" on="1"/>
        <pt x="273" y="-109" on="0"/>
        <pt x="243" y="-85" on="0"/>
        <pt x="243" y="-61" on="1"/>
        <pt x="243" y="-3" on="1"/>
        <pt x="200" y="2" on="0"/>
        <pt x="128" y="34" on="0"/>
        <pt x="75" y="90" on="0"/>
        <pt x="46" y="173" on="0"/>
        <pt x="46" y="230" on="1"/>
        <pt x="46" y="495" on="1"/>
        <pt x="46" y="560" on="0"/>
        <pt x="84" y="650" on="0"/>
        <pt x="150" y="706" on="0"/>
        <pt x="239" y="731" on="0"/>
        <pt x="291" y="731" on="1"/>
        <pt x="343" y="731" on="0"/>
        <pt x="433" y="706" on="0"/>
        <pt x="499" y="650" on="0"/>
        <pt x="537" y="560" on="0"/>
        <pt x="537" y="495" on="1"/>
        <pt x="537" y="230" on="1"/>
        <pt x="537" y="173" on="0"/>
        <pt x="507" y="90" on="0"/>
        <pt x="454" y="34" on="0"/>
        <pt x="382" y="2" on="0"/>
        <pt x="339" y="-3" on="1"/>
        <pt x="339" y="-61" on="1"/>
        <pt x="339" y="-85" on="0"/>
        <pt x="309" y="-109" on="0"/>
      </contour>
      <contour>
        <pt x="381" y="495" on="1"/>
        <pt x="381" y="546" on="0"/>
        <pt x="333" y="595" on="0"/>
        <pt x="291" y="595" on="1"/>
        <pt x="249" y="595" on="0"/>
        <pt x="202" y="546" on="0"/>
        <pt x="202" y="495" on="1"/>
        <pt x="202" y="230" on="1"/>
        <pt x="202" y="163" on="0"/>
        <pt x="243" y="140" on="1"/>
        <pt x="243" y="184" on="1"/>
        <pt x="243" y="209" on="0"/>
        <pt x="273" y="231" on="0"/>
        <pt x="291" y="231" on="1"/>
        <pt x="309" y="231" on="0"/>
        <pt x="339" y="209" on="0"/>
        <pt x="339" y="184" on="1"/>
        <pt x="339" y="140" on="1"/>
        <pt x="359" y="151" on="0"/>
        <pt x="381" y="195" on="0"/>
        <pt x="381" y="230" on="1"/>
      </contour>
    </TTGlyph>
    <TTGlyph name="R" xMin="54" yMin="-6" xMax="561" yMax="731">
      <contour>
        <pt x="54" y="684" on="1"/>
        <pt x="54" y="703" on="0"/>
        <pt x="80" y="731" on="0"/>
        <pt x="102" y="731" on="1"/>
        <pt x="309" y="731" on="1"/>
        <pt x="360" y="731" on="0"/>
        <pt x="450" y="710" on="0"/>
        <pt x="517" y="660" on="0"/>
        <pt x="555" y="578" on="0"/>
        <pt x="555" y="517" on="1"/>
        <pt x="555" y="433" on="0"/>
        <pt x="486" y="334" on="0"/>
        <pt x="434" y="314" on="1"/>
        <pt x="556" y="93" on="1"/>
        <pt x="561" y="85" on="0"/>
        <pt x="561" y="75" on="1"/>
        <pt x="561" y="60" on="0"/>
        <pt x="543" y="31" on="0"/>
        <pt x="515" y="8" on="0"/>
        <pt x="480" y="-6" on="0"/>
        <pt x="463" y="-6" on="1"/>
        <pt x="448" y="-6" on="0"/>
        <pt x="421" y="7" on="0"/>
        <pt x="413" y="23" on="1"/>
        <pt x="276" y="289" on="1"/>
        <pt x="210" y="289" on="1"/>
        <pt x="210" y="48" on="1"/>
        <pt x="210" y="24" on="0"/>
        <pt x="161" y="0" on="0"/>
        <pt x="132" y="0" on="1"/>
        <pt x="103" y="0" on="0"/>
        <pt x="54" y="24" on="0"/>
        <pt x="54" y="48" on="1"/>
      </contour>
      <contour>
        <pt x="210" y="595" on="1"/>
        <pt x="210" y="409" on="1"/>
        <pt x="309" y="409" on="1"/>
        <pt x="351" y="409" on="0"/>
        <pt x="399" y="449" on="0"/>
        <pt x="399" y="502" on="1"/>
        <pt x="399" y="555" on="0"/>
        <pt x="351" y="595" on="0"/>
        <pt x="309" y="595" on="1"/>
      </contour>
    </TTGlyph>
    <TTGlyph name="Racute" xMin="54" yMin="-6" xMax="561" yMax="959">
      <contour>
        <pt x="54" y="684" on="1"/>
        <pt x="54" y="703" on="0"/>
        <pt x="80" y="731" on="0"/>
        <pt x="102" y="731" on="1"/>
        <pt x="309" y="731" on="1"/>
        <pt x="360" y="731" on="0"/>
        <pt x="450" y="710" on="0"/>
        <pt x="517" y="660" on="0"/>
        <pt x="555" y="578" on="0"/>
        <pt x="555" y="517" on="1"/>
        <pt x="555" y="433" on="0"/>
        <pt x="486" y="334" on="0"/>
        <pt x="434" y="314" on="1"/>
        <pt x="556" y="93" on="1"/>
        <pt x="561" y="85" on="0"/>
        <pt x="561" y="75" on="1"/>
        <pt x="561" y="60" on="0"/>
        <pt x="543" y="31" on="0"/>
        <pt x="515" y="8" on="0"/>
        <pt x="480" y="-6" on="0"/>
        <pt x="463" y="-6" on="1"/>
        <pt x="448" y="-6" on="0"/>
        <pt x="421" y="7" on="0"/>
        <pt x="413" y="23" on="1"/>
        <pt x="276" y="289" on="1"/>
        <pt x="210" y="289" on="1"/>
        <pt x="210" y="48" on="1"/>
        <pt x="210" y="24" on="0"/>
        <pt x="161" y="0" on="0"/>
        <pt x="132" y="0" on="1"/>
        <pt x="103" y="0" on="0"/>
        <pt x="54" y="24" on="0"/>
        <pt x="54" y="48" on="1"/>
      </contour>
      <contour>
        <pt x="210" y="595" on="1"/>
        <pt x="210" y="409" on="1"/>
        <pt x="309" y="409" on="1"/>
        <pt x="351" y="409" on="0"/>
        <pt x="399" y="449" on="0"/>
        <pt x="399" y="502" on="1"/>
        <pt x="399" y="555" on="0"/>
        <pt x="351" y="595" on="0"/>
        <pt x="309" y="595" on="1"/>
      </contour>
      <contour>
        <pt x="279" y="802" on="1"/>
        <pt x="269" y="798" on="0"/>
        <pt x="264" y="798" on="1"/>
        <pt x="244" y="798" on="0"/>
        <pt x="218" y="836" on="0"/>
        <pt x="218" y="856" on="1"/>
        <pt x="218" y="881" on="0"/>
        <pt x="238" y="891" on="1"/>
        <pt x="378" y="956" on="1"/>
        <pt x="385" y="959" on="0"/>
        <pt x="392" y="959" on="1"/>
        <pt x="402" y="959" on="0"/>
        <pt x="419" y="948" on="0"/>
        <pt x="432" y="931" on="0"/>
        <pt x="439" y="911" on="0"/>
        <pt x="439" y="901" on="1"/>
        <pt x="439" y="890" on="0"/>
        <pt x="430" y="872" on="0"/>
        <pt x="419" y="867" on="1"/>
      </contour>
    </TTGlyph>
    <TTGlyph name="Rcaron" xMin="54" yMin="-6" xMax="561" yMax="971">
      <contour>
        <pt x="54" y="684" on="1"/>
        <pt x="54" y="703" on="0"/>
        <pt x="80" y="731" on="0"/>
        <pt x="102" y="731" on="1"/>
        <pt x="309" y="731" on="1"/>
        <pt x="360" y="731" on="0"/>
        <pt x="450" y="710" on="0"/>
        <pt x="517" y="660" on="0"/>
        <pt x="555" y="578" on="0"/>
        <pt x="555" y="517" on="1"/>
        <pt x="555" y="433" on="0"/>
        <pt x="486" y="334" on="0"/>
        <pt x="434" y="314" on="1"/>
        <pt x="556" y="93" on="1"/>
        <pt x="561" y="85" on="0"/>
        <pt x="561" y="75" on="1"/>
        <pt x="561" y="60" on="0"/>
        <pt x="543" y="31" on="0"/>
        <pt x="515" y="8" on="0"/>
        <pt x="480" y="-6" on="0"/>
        <pt x="463" y="-6" on="1"/>
        <pt x="448" y="-6" on="0"/>
        <pt x="421" y="7" on="0"/>
        <pt x="413" y="23" on="1"/>
        <pt x="276" y="289" on="1"/>
        <pt x="210" y="289" on="1"/>
        <pt x="210" y="48" on="1"/>
        <pt x="210" y="24" on="0"/>
        <pt x="161" y="0" on="0"/>
        <pt x="132" y="0" on="1"/>
        <pt x="103" y="0" on="0"/>
        <pt x="54" y="24" on="0"/>
        <pt x="54" y="48" on="1"/>
      </contour>
      <contour>
        <pt x="210" y="595" on="1"/>
        <pt x="210" y="409" on="1"/>
        <pt x="309" y="409" on="1"/>
        <pt x="351" y="409" on="0"/>
        <pt x="399" y="449" on="0"/>
        <pt x="399" y="502" on="1"/>
        <pt x="399" y="555" on="0"/>
        <pt x="351" y="595" on="0"/>
        <pt x="309" y="595" on="1"/>
      </contour>
      <contour>
        <pt x="274" y="912" on="1"/>
        <pt x="378" y="968" on="1"/>
        <pt x="384" y="971" on="0"/>
        <pt x="389" y="971" on="1"/>
        <pt x="403" y="971" on="0"/>
        <pt x="420" y="942" on="0"/>
        <pt x="420" y="925" on="1"/>
        <pt x="420" y="912" on="0"/>
        <pt x="409" y="889" on="0"/>
        <pt x="395" y="881" on="1"/>
        <pt x="291" y="825" on="1"/>
        <pt x="281" y="820" on="0"/>
        <pt x="274" y="820" on="1"/>
        <pt x="267" y="820" on="0"/>
        <pt x="257" y="825" on="1"/>
        <pt x="153" y="881" on="1"/>
        <pt x="139" y="889" on="0"/>
        <pt x="128" y="912" on="0"/>
        <pt x="128" y="925" on="1"/>
        <pt x="128" y="942" on="0"/>
        <pt x="145" y="971" on="0"/>
        <pt x="159" y="971" on="1"/>
        <pt x="164" y="971" on="0"/>
        <pt x="170" y="968" on="1"/>
      </contour>
    </TTGlyph>
    <TTGlyph name="Rcommaaccent" xMin="54" yMin="-209" xMax="561" yMax="731">
      <contour>
        <pt x="54" y="684" on="1"/>
        <pt x="54" y="703" on="0"/>
        <pt x="80" y="731" on="0"/>
        <pt x="102" y="731" on="1"/>
        <pt x="309" y="731" on="1"/>
        <pt x="360" y="731" on="0"/>
        <pt x="450" y="710" on="0"/>
        <pt x="517" y="660" on="0"/>
        <pt x="555" y="578" on="0"/>
        <pt x="555" y="517" on="1"/>
        <pt x="555" y="433" on="0"/>
        <pt x="486" y="334" on="0"/>
        <pt x="434" y="314" on="1"/>
        <pt x="556" y="93" on="1"/>
        <pt x="561" y="85" on="0"/>
        <pt x="561" y="75" on="1"/>
        <pt x="561" y="60" on="0"/>
        <pt x="543" y="31" on="0"/>
        <pt x="515" y="8" on="0"/>
        <pt x="480" y="-6" on="0"/>
        <pt x="463" y="-6" on="1"/>
        <pt x="448" y="-6" on="0"/>
        <pt x="421" y="7" on="0"/>
        <pt x="413" y="23" on="1"/>
        <pt x="276" y="289" on="1"/>
        <pt x="210" y="289" on="1"/>
        <pt x="210" y="48" on="1"/>
        <pt x="210" y="24" on="0"/>
        <pt x="161" y="0" on="0"/>
        <pt x="132" y="0" on="1"/>
        <pt x="103" y="0" on="0"/>
        <pt x="54" y="24" on="0"/>
        <pt x="54" y="48" on="1"/>
      </contour>
      <contour>
        <pt x="210" y="595" on="1"/>
        <pt x="210" y="409" on="1"/>
        <pt x="309" y="409" on="1"/>
        <pt x="351" y="409" on="0"/>
        <pt x="399" y="449" on="0"/>
        <pt x="399" y="502" on="1"/>
        <pt x="399" y="555" on="0"/>
        <pt x="351" y="595" on="0"/>
        <pt x="309" y="595" on="1"/>
      </contour>
      <contour>
        <pt x="244" y="-205" on="1"/>
        <pt x="234" y="-209" on="0"/>
        <pt x="229" y="-209" on="1"/>
        <pt x="209" y="-209" on="0"/>
        <pt x="183" y="-171" on="0"/>
        <pt x="183" y="-151" on="1"/>
        <pt x="183" y="-126" on="0"/>
        <pt x="203" y="-116" on="1"/>
        <pt x="343" y="-51" on="1"/>
        <pt x="350" y="-48" on="0"/>
        <pt x="357" y="-48" on="1"/>
        <pt x="367" y="-48" on="0"/>
        <pt x="384" y="-59" on="0"/>
        <pt x="397" y="-76" on="0"/>
        <pt x="404" y="-96" on="0"/>
        <pt x="404" y="-106" on="1"/>
        <pt x="404" y="-117" on="0"/>
        <pt x="395" y="-135" on="0"/>
        <pt x="384" y="-140" on="1"/>
      </contour>
    </TTGlyph>
    <TTGlyph name="S" xMin="19" yMin="-10" xMax="510" yMax="737">
      <contour>
        <pt x="257" y="130" on="1"/>
        <pt x="274" y="130" on="0"/>
        <pt x="309" y="137" on="0"/>
        <pt x="337" y="153" on="0"/>
        <pt x="354" y="178" on="0"/>
        <pt x="354" y="196" on="1"/>
        <pt x="354" y="226" on="0"/>
        <pt x="307" y="267" on="0"/>
        <pt x="237" y="302" on="0"/>
        <pt x="154" y="339" on="0"/>
        <pt x="84" y="393" on="0"/>
        <pt x="37" y="471" on="0"/>
        <pt x="37" y="530" on="1"/>
        <pt x="37" y="586" on="0"/>
        <pt x="82" y="665" on="0"/>
        <pt x="154" y="714" on="0"/>
        <pt x="246" y="737" on="0"/>
        <pt x="293" y="737" on="1"/>
        <pt x="313" y="737" on="0"/>
        <pt x="380" y="731" on="0"/>
        <pt x="445" y="713" on="0"/>
        <pt x="492" y="678" on="0"/>
        <pt x="492" y="649" on="1"/>
        <pt x="492" y="639" on="0"/>
        <pt x="485" y="611" on="0"/>
        <pt x="470" y="585" on="0"/>
        <pt x="446" y="567" on="0"/>
        <pt x="430" y="567" on="1"/>
        <pt x="416" y="567" on="0"/>
        <pt x="393" y="579" on="0"/>
        <pt x="364" y="593" on="0"/>
        <pt x="324" y="605" on="0"/>
        <pt x="293" y="605" on="1"/>
        <pt x="239" y="605" on="0"/>
        <pt x="193" y="568" on="0"/>
        <pt x="193" y="545" on="1"/>
        <pt x="193" y="520" on="0"/>
        <pt x="240" y="486" on="0"/>
        <pt x="310" y="454" on="0"/>
        <pt x="393" y="417" on="0"/>
        <pt x="463" y="359" on="0"/>
        <pt x="510" y="275" on="0"/>
        <pt x="510" y="212" on="1"/>
        <pt x="510" y="158" on="0"/>
        <pt x="473" y="75" on="0"/>
        <pt x="406" y="19" on="0"/>
        <pt x="314" y="-10" on="0"/>
        <pt x="260" y="-10" on="1"/>
        <pt x="211" y="-10" on="0"/>
        <pt x="123" y="12" on="0"/>
        <pt x="57" y="48" on="0"/>
        <pt x="19" y="95" on="0"/>
        <pt x="19" y="120" on="1"/>
        <pt x="19" y="133" on="0"/>
        <pt x="30" y="162" on="0"/>
        <pt x="48" y="187" on="0"/>
        <pt x="73" y="204" on="0"/>
        <pt x="87" y="204" on="1"/>
        <pt x="105" y="204" on="0"/>
        <pt x="136" y="181" on="0"/>
        <pt x="173" y="153" on="0"/>
        <pt x="222" y="130" on="0"/>
      </contour>
    </TTGlyph>
    <TTGlyph name="Sacute" xMin="19" yMin="-10" xMax="510" yMax="959">
      <contour>
        <pt x="257" y="130" on="1"/>
        <pt x="274" y="130" on="0"/>
        <pt x="309" y="137" on="0"/>
        <pt x="337" y="153" on="0"/>
        <pt x="354" y="178" on="0"/>
        <pt x="354" y="196" on="1"/>
        <pt x="354" y="226" on="0"/>
        <pt x="307" y="267" on="0"/>
        <pt x="237" y="302" on="0"/>
        <pt x="154" y="339" on="0"/>
        <pt x="84" y="393" on="0"/>
        <pt x="37" y="471" on="0"/>
        <pt x="37" y="530" on="1"/>
        <pt x="37" y="586" on="0"/>
        <pt x="82" y="665" on="0"/>
        <pt x="154" y="714" on="0"/>
        <pt x="246" y="737" on="0"/>
        <pt x="293" y="737" on="1"/>
        <pt x="313" y="737" on="0"/>
        <pt x="380" y="731" on="0"/>
        <pt x="445" y="713" on="0"/>
        <pt x="492" y="678" on="0"/>
        <pt x="492" y="649" on="1"/>
        <pt x="492" y="639" on="0"/>
        <pt x="485" y="611" on="0"/>
        <pt x="470" y="585" on="0"/>
        <pt x="446" y="567" on="0"/>
        <pt x="430" y="567" on="1"/>
        <pt x="416" y="567" on="0"/>
        <pt x="393" y="579" on="0"/>
        <pt x="364" y="593" on="0"/>
        <pt x="324" y="605" on="0"/>
        <pt x="293" y="605" on="1"/>
        <pt x="239" y="605" on="0"/>
        <pt x="193" y="568" on="0"/>
        <pt x="193" y="545" on="1"/>
        <pt x="193" y="520" on="0"/>
        <pt x="240" y="486" on="0"/>
        <pt x="310" y="454" on="0"/>
        <pt x="393" y="417" on="0"/>
        <pt x="463" y="359" on="0"/>
        <pt x="510" y="275" on="0"/>
        <pt x="510" y="212" on="1"/>
        <pt x="510" y="158" on="0"/>
        <pt x="473" y="75" on="0"/>
        <pt x="406" y="19" on="0"/>
        <pt x="314" y="-10" on="0"/>
        <pt x="260" y="-10" on="1"/>
        <pt x="211" y="-10" on="0"/>
        <pt x="123" y="12" on="0"/>
        <pt x="57" y="48" on="0"/>
        <pt x="19" y="95" on="0"/>
        <pt x="19" y="120" on="1"/>
        <pt x="19" y="133" on="0"/>
        <pt x="30" y="162" on="0"/>
        <pt x="48" y="187" on="0"/>
        <pt x="73" y="204" on="0"/>
        <pt x="87" y="204" on="1"/>
        <pt x="105" y="204" on="0"/>
        <pt x="136" y="181" on="0"/>
        <pt x="173" y="153" on="0"/>
        <pt x="222" y="130" on="0"/>
      </contour>
      <contour>
        <pt x="239" y="802" on="1"/>
        <pt x="229" y="798" on="0"/>
        <pt x="224" y="798" on="1"/>
        <pt x="204" y="798" on="0"/>
        <pt x="178" y="836" on="0"/>
        <pt x="178" y="856" on="1"/>
        <pt x="178" y="881" on="0"/>
        <pt x="198" y="891" on="1"/>
        <pt x="338" y="956" on="1"/>
        <pt x="345" y="959" on="0"/>
        <pt x="352" y="959" on="1"/>
        <pt x="362" y="959" on="0"/>
        <pt x="379" y="948" on="0"/>
        <pt x="392" y="931" on="0"/>
        <pt x="399" y="911" on="0"/>
        <pt x="399" y="901" on="1"/>
        <pt x="399" y="890" on="0"/>
        <pt x="390" y="872" on="0"/>
        <pt x="379" y="867" on="1"/>
      </contour>
    </TTGlyph>
    <TTGlyph name="Scaron" xMin="19" yMin="-10" xMax="510" yMax="971">
      <contour>
        <pt x="257" y="130" on="1"/>
        <pt x="274" y="130" on="0"/>
        <pt x="309" y="137" on="0"/>
        <pt x="337" y="153" on="0"/>
        <pt x="354" y="178" on="0"/>
        <pt x="354" y="196" on="1"/>
        <pt x="354" y="226" on="0"/>
        <pt x="307" y="267" on="0"/>
        <pt x="237" y="302" on="0"/>
        <pt x="154" y="339" on="0"/>
        <pt x="84" y="393" on="0"/>
        <pt x="37" y="471" on="0"/>
        <pt x="37" y="530" on="1"/>
        <pt x="37" y="586" on="0"/>
        <pt x="82" y="665" on="0"/>
        <pt x="154" y="714" on="0"/>
        <pt x="246" y="737" on="0"/>
        <pt x="293" y="737" on="1"/>
        <pt x="313" y="737" on="0"/>
        <pt x="380" y="731" on="0"/>
        <pt x="445" y="713" on="0"/>
        <pt x="492" y="678" on="0"/>
        <pt x="492" y="649" on="1"/>
        <pt x="492" y="639" on="0"/>
        <pt x="485" y="611" on="0"/>
        <pt x="470" y="585" on="0"/>
        <pt x="446" y="567" on="0"/>
        <pt x="430" y="567" on="1"/>
        <pt x="416" y="567" on="0"/>
        <pt x="393" y="579" on="0"/>
        <pt x="364" y="593" on="0"/>
        <pt x="324" y="605" on="0"/>
        <pt x="293" y="605" on="1"/>
        <pt x="239" y="605" on="0"/>
        <pt x="193" y="568" on="0"/>
        <pt x="193" y="545" on="1"/>
        <pt x="193" y="520" on="0"/>
        <pt x="240" y="486" on="0"/>
        <pt x="310" y="454" on="0"/>
        <pt x="393" y="417" on="0"/>
        <pt x="463" y="359" on="0"/>
        <pt x="510" y="275" on="0"/>
        <pt x="510" y="212" on="1"/>
        <pt x="510" y="158" on="0"/>
        <pt x="473" y="75" on="0"/>
        <pt x="406" y="19" on="0"/>
        <pt x="314" y="-10" on="0"/>
        <pt x="260" y="-10" on="1"/>
        <pt x="211" y="-10" on="0"/>
        <pt x="123" y="12" on="0"/>
        <pt x="57" y="48" on="0"/>
        <pt x="19" y="95" on="0"/>
        <pt x="19" y="120" on="1"/>
        <pt x="19" y="133" on="0"/>
        <pt x="30" y="162" on="0"/>
        <pt x="48" y="187" on="0"/>
        <pt x="73" y="204" on="0"/>
        <pt x="87" y="204" on="1"/>
        <pt x="105" y="204" on="0"/>
        <pt x="136" y="181" on="0"/>
        <pt x="173" y="153" on="0"/>
        <pt x="222" y="130" on="0"/>
      </contour>
      <contour>
        <pt x="265" y="912" on="1"/>
        <pt x="369" y="968" on="1"/>
        <pt x="375" y="971" on="0"/>
        <pt x="380" y="971" on="1"/>
        <pt x="394" y="971" on="0"/>
        <pt x="411" y="942" on="0"/>
        <pt x="411" y="925" on="1"/>
        <pt x="411" y="912" on="0"/>
        <pt x="400" y="889" on="0"/>
        <pt x="386" y="881" on="1"/>
        <pt x="282" y="825" on="1"/>
        <pt x="272" y="820" on="0"/>
        <pt x="265" y="820" on="1"/>
        <pt x="258" y="820" on="0"/>
        <pt x="248" y="825" on="1"/>
        <pt x="144" y="881" on="1"/>
        <pt x="130" y="889" on="0"/>
        <pt x="119" y="912" on="0"/>
        <pt x="119" y="925" on="1"/>
        <pt x="119" y="942" on="0"/>
        <pt x="136" y="971" on="0"/>
        <pt x="150" y="971" on="1"/>
        <pt x="155" y="971" on="0"/>
        <pt x="161" y="968" on="1"/>
      </contour>
    </TTGlyph>
    <TTGlyph name="Scedilla" xMin="19" yMin="-219" xMax="510" yMax="737">
      <contour>
        <pt x="257" y="130" on="1"/>
        <pt x="274" y="130" on="0"/>
        <pt x="309" y="137" on="0"/>
        <pt x="337" y="153" on="0"/>
        <pt x="354" y="178" on="0"/>
        <pt x="354" y="196" on="1"/>
        <pt x="354" y="226" on="0"/>
        <pt x="307" y="267" on="0"/>
        <pt x="237" y="302" on="0"/>
        <pt x="154" y="339" on="0"/>
        <pt x="84" y="393" on="0"/>
        <pt x="37" y="471" on="0"/>
        <pt x="37" y="530" on="1"/>
        <pt x="37" y="586" on="0"/>
        <pt x="82" y="665" on="0"/>
        <pt x="154" y="714" on="0"/>
        <pt x="246" y="737" on="0"/>
        <pt x="293" y="737" on="1"/>
        <pt x="313" y="737" on="0"/>
        <pt x="380" y="731" on="0"/>
        <pt x="445" y="713" on="0"/>
        <pt x="492" y="678" on="0"/>
        <pt x="492" y="649" on="1"/>
        <pt x="492" y="639" on="0"/>
        <pt x="485" y="611" on="0"/>
        <pt x="470" y="585" on="0"/>
        <pt x="446" y="567" on="0"/>
        <pt x="430" y="567" on="1"/>
        <pt x="416" y="567" on="0"/>
        <pt x="393" y="579" on="0"/>
        <pt x="364" y="593" on="0"/>
        <pt x="324" y="605" on="0"/>
        <pt x="293" y="605" on="1"/>
        <pt x="239" y="605" on="0"/>
        <pt x="193" y="568" on="0"/>
        <pt x="193" y="545" on="1"/>
        <pt x="193" y="520" on="0"/>
        <pt x="240" y="486" on="0"/>
        <pt x="310" y="454" on="0"/>
        <pt x="393" y="417" on="0"/>
        <pt x="463" y="359" on="0"/>
        <pt x="510" y="275" on="0"/>
        <pt x="510" y="212" on="1"/>
        <pt x="510" y="164" on="0"/>
        <pt x="481" y="89" on="0"/>
        <pt x="428" y="34" on="0"/>
        <pt x="355" y="0" on="0"/>
        <pt x="310" y="-6" on="1"/>
        <pt x="297" y="-47" on="1"/>
        <pt x="348" y="-49" on="0"/>
        <pt x="397" y="-94" on="0"/>
        <pt x="397" y="-126" on="1"/>
        <pt x="397" y="-139" on="0"/>
        <pt x="387" y="-171" on="0"/>
        <pt x="362" y="-200" on="0"/>
        <pt x="319" y="-219" on="0"/>
        <pt x="286" y="-219" on="1"/>
        <pt x="272" y="-219" on="0"/>
        <pt x="241" y="-215" on="0"/>
        <pt x="215" y="-208" on="0"/>
        <pt x="198" y="-196" on="0"/>
        <pt x="198" y="-188" on="1"/>
        <pt x="198" y="-185" on="0"/>
        <pt x="201" y="-171" on="0"/>
        <pt x="207" y="-157" on="0"/>
        <pt x="217" y="-146" on="0"/>
        <pt x="224" y="-146" on="1"/>
        <pt x="233" y="-146" on="0"/>
        <pt x="258" y="-160" on="0"/>
        <pt x="282" y="-160" on="1"/>
        <pt x="302" y="-160" on="0"/>
        <pt x="328" y="-145" on="0"/>
        <pt x="328" y="-129" on="1"/>
        <pt x="328" y="-116" on="0"/>
        <pt x="308" y="-97" on="0"/>
        <pt x="285" y="-95" on="1"/>
        <pt x="223" y="-89" on="1"/>
        <pt x="246" y="-10" on="1"/>
        <pt x="199" y="-9" on="0"/>
        <pt x="116" y="14" on="0"/>
        <pt x="55" y="50" on="0"/>
        <pt x="19" y="96" on="0"/>
        <pt x="19" y="120" on="1"/>
        <pt x="19" y="133" on="0"/>
        <pt x="30" y="162" on="0"/>
        <pt x="48" y="187" on="0"/>
        <pt x="73" y="204" on="0"/>
        <pt x="87" y="204" on="1"/>
        <pt x="105" y="204" on="0"/>
        <pt x="136" y="181" on="0"/>
        <pt x="173" y="153" on="0"/>
        <pt x="222" y="130" on="0"/>
      </contour>
    </TTGlyph>
</ttFont>
